%TF.GenerationSoftware,KiCad,Pcbnew,(6.0.8-1)-1*%
%TF.CreationDate,2023-01-08T15:16:01+01:00*%
%TF.ProjectId,Xarxa_RF,58617278-615f-4524-962e-6b696361645f,rev?*%
%TF.SameCoordinates,Original*%
%TF.FileFunction,Drillmap*%
%TF.FilePolarity,Positive*%
%FSLAX45Y45*%
G04 Gerber Fmt 4.5, Leading zero omitted, Abs format (unit mm)*
G04 Created by KiCad (PCBNEW (6.0.8-1)-1) date 2023-01-08 15:16:01*
%MOMM*%
%LPD*%
G01*
G04 APERTURE LIST*
%ADD10C,0.100000*%
%ADD11C,0.200000*%
%ADD12C,0.320000*%
G04 APERTURE END LIST*
D10*
X24130000Y-3621574D02*
X16002000Y-3621574D01*
X16002000Y-3621574D02*
X16002000Y-8890000D01*
X16002000Y-8890000D02*
X24130000Y-8890000D01*
X24130000Y-8890000D02*
X24130000Y-3621574D01*
D11*
D12*
X16218008Y-5769994D02*
X16538008Y-6089994D01*
X16538008Y-5769994D02*
X16218008Y-6089994D01*
X23462000Y-3904000D02*
X23782000Y-4224000D01*
X23782000Y-3904000D02*
X23462000Y-4224000D01*
X23462000Y-8222000D02*
X23782000Y-8542000D01*
X23782000Y-8222000D02*
X23462000Y-8542000D01*
D11*
X16254619Y-9205476D02*
X16254619Y-9005476D01*
X16302238Y-9005476D01*
X16330809Y-9015000D01*
X16349857Y-9034048D01*
X16359381Y-9053095D01*
X16368905Y-9091190D01*
X16368905Y-9119762D01*
X16359381Y-9157857D01*
X16349857Y-9176905D01*
X16330809Y-9195952D01*
X16302238Y-9205476D01*
X16254619Y-9205476D01*
X16454619Y-9205476D02*
X16454619Y-9072143D01*
X16454619Y-9110238D02*
X16464143Y-9091190D01*
X16473667Y-9081667D01*
X16492714Y-9072143D01*
X16511762Y-9072143D01*
X16578428Y-9205476D02*
X16578428Y-9072143D01*
X16578428Y-9005476D02*
X16568905Y-9015000D01*
X16578428Y-9024524D01*
X16587952Y-9015000D01*
X16578428Y-9005476D01*
X16578428Y-9024524D01*
X16702238Y-9205476D02*
X16683190Y-9195952D01*
X16673667Y-9176905D01*
X16673667Y-9005476D01*
X16807000Y-9205476D02*
X16787952Y-9195952D01*
X16778429Y-9176905D01*
X16778429Y-9005476D01*
X17035571Y-9205476D02*
X17035571Y-9005476D01*
X17102238Y-9148333D01*
X17168905Y-9005476D01*
X17168905Y-9205476D01*
X17349857Y-9205476D02*
X17349857Y-9100714D01*
X17340333Y-9081667D01*
X17321286Y-9072143D01*
X17283190Y-9072143D01*
X17264143Y-9081667D01*
X17349857Y-9195952D02*
X17330810Y-9205476D01*
X17283190Y-9205476D01*
X17264143Y-9195952D01*
X17254619Y-9176905D01*
X17254619Y-9157857D01*
X17264143Y-9138810D01*
X17283190Y-9129286D01*
X17330810Y-9129286D01*
X17349857Y-9119762D01*
X17445095Y-9072143D02*
X17445095Y-9272143D01*
X17445095Y-9081667D02*
X17464143Y-9072143D01*
X17502238Y-9072143D01*
X17521286Y-9081667D01*
X17530810Y-9091190D01*
X17540333Y-9110238D01*
X17540333Y-9167381D01*
X17530810Y-9186429D01*
X17521286Y-9195952D01*
X17502238Y-9205476D01*
X17464143Y-9205476D01*
X17445095Y-9195952D01*
X17626048Y-9186429D02*
X17635571Y-9195952D01*
X17626048Y-9205476D01*
X17616524Y-9195952D01*
X17626048Y-9186429D01*
X17626048Y-9205476D01*
X17626048Y-9081667D02*
X17635571Y-9091190D01*
X17626048Y-9100714D01*
X17616524Y-9091190D01*
X17626048Y-9081667D01*
X17626048Y-9100714D01*
X15797000Y-9435000D02*
X15997000Y-9635000D01*
X15997000Y-9435000D02*
X15797000Y-9635000D01*
X16235571Y-9425476D02*
X16359381Y-9425476D01*
X16292714Y-9501667D01*
X16321286Y-9501667D01*
X16340333Y-9511190D01*
X16349857Y-9520714D01*
X16359381Y-9539762D01*
X16359381Y-9587381D01*
X16349857Y-9606429D01*
X16340333Y-9615952D01*
X16321286Y-9625476D01*
X16264143Y-9625476D01*
X16245095Y-9615952D01*
X16235571Y-9606429D01*
X16445095Y-9606429D02*
X16454619Y-9615952D01*
X16445095Y-9625476D01*
X16435571Y-9615952D01*
X16445095Y-9606429D01*
X16445095Y-9625476D01*
X16530809Y-9444524D02*
X16540333Y-9435000D01*
X16559381Y-9425476D01*
X16607000Y-9425476D01*
X16626048Y-9435000D01*
X16635571Y-9444524D01*
X16645095Y-9463571D01*
X16645095Y-9482619D01*
X16635571Y-9511190D01*
X16521286Y-9625476D01*
X16645095Y-9625476D01*
X16768905Y-9425476D02*
X16787952Y-9425476D01*
X16807000Y-9435000D01*
X16816524Y-9444524D01*
X16826048Y-9463571D01*
X16835571Y-9501667D01*
X16835571Y-9549286D01*
X16826048Y-9587381D01*
X16816524Y-9606429D01*
X16807000Y-9615952D01*
X16787952Y-9625476D01*
X16768905Y-9625476D01*
X16749857Y-9615952D01*
X16740333Y-9606429D01*
X16730809Y-9587381D01*
X16721286Y-9549286D01*
X16721286Y-9501667D01*
X16730809Y-9463571D01*
X16740333Y-9444524D01*
X16749857Y-9435000D01*
X16768905Y-9425476D01*
X16959381Y-9425476D02*
X16978429Y-9425476D01*
X16997476Y-9435000D01*
X17007000Y-9444524D01*
X17016524Y-9463571D01*
X17026048Y-9501667D01*
X17026048Y-9549286D01*
X17016524Y-9587381D01*
X17007000Y-9606429D01*
X16997476Y-9615952D01*
X16978429Y-9625476D01*
X16959381Y-9625476D01*
X16940333Y-9615952D01*
X16930810Y-9606429D01*
X16921286Y-9587381D01*
X16911762Y-9549286D01*
X16911762Y-9501667D01*
X16921286Y-9463571D01*
X16930810Y-9444524D01*
X16940333Y-9435000D01*
X16959381Y-9425476D01*
X17111762Y-9625476D02*
X17111762Y-9492143D01*
X17111762Y-9511190D02*
X17121286Y-9501667D01*
X17140333Y-9492143D01*
X17168905Y-9492143D01*
X17187952Y-9501667D01*
X17197476Y-9520714D01*
X17197476Y-9625476D01*
X17197476Y-9520714D02*
X17207000Y-9501667D01*
X17226048Y-9492143D01*
X17254619Y-9492143D01*
X17273667Y-9501667D01*
X17283190Y-9520714D01*
X17283190Y-9625476D01*
X17378429Y-9625476D02*
X17378429Y-9492143D01*
X17378429Y-9511190D02*
X17387952Y-9501667D01*
X17407000Y-9492143D01*
X17435571Y-9492143D01*
X17454619Y-9501667D01*
X17464143Y-9520714D01*
X17464143Y-9625476D01*
X17464143Y-9520714D02*
X17473667Y-9501667D01*
X17492714Y-9492143D01*
X17521286Y-9492143D01*
X17540333Y-9501667D01*
X17549857Y-9520714D01*
X17549857Y-9625476D01*
X17940333Y-9415952D02*
X17768905Y-9673095D01*
X18197476Y-9425476D02*
X18216524Y-9425476D01*
X18235571Y-9435000D01*
X18245095Y-9444524D01*
X18254619Y-9463571D01*
X18264143Y-9501667D01*
X18264143Y-9549286D01*
X18254619Y-9587381D01*
X18245095Y-9606429D01*
X18235571Y-9615952D01*
X18216524Y-9625476D01*
X18197476Y-9625476D01*
X18178429Y-9615952D01*
X18168905Y-9606429D01*
X18159381Y-9587381D01*
X18149857Y-9549286D01*
X18149857Y-9501667D01*
X18159381Y-9463571D01*
X18168905Y-9444524D01*
X18178429Y-9435000D01*
X18197476Y-9425476D01*
X18349857Y-9606429D02*
X18359381Y-9615952D01*
X18349857Y-9625476D01*
X18340333Y-9615952D01*
X18349857Y-9606429D01*
X18349857Y-9625476D01*
X18549857Y-9625476D02*
X18435571Y-9625476D01*
X18492714Y-9625476D02*
X18492714Y-9425476D01*
X18473667Y-9454048D01*
X18454619Y-9473095D01*
X18435571Y-9482619D01*
X18626048Y-9444524D02*
X18635571Y-9435000D01*
X18654619Y-9425476D01*
X18702238Y-9425476D01*
X18721286Y-9435000D01*
X18730810Y-9444524D01*
X18740333Y-9463571D01*
X18740333Y-9482619D01*
X18730810Y-9511190D01*
X18616524Y-9625476D01*
X18740333Y-9625476D01*
X18911762Y-9425476D02*
X18873667Y-9425476D01*
X18854619Y-9435000D01*
X18845095Y-9444524D01*
X18826048Y-9473095D01*
X18816524Y-9511190D01*
X18816524Y-9587381D01*
X18826048Y-9606429D01*
X18835571Y-9615952D01*
X18854619Y-9625476D01*
X18892714Y-9625476D01*
X18911762Y-9615952D01*
X18921286Y-9606429D01*
X18930810Y-9587381D01*
X18930810Y-9539762D01*
X18921286Y-9520714D01*
X18911762Y-9511190D01*
X18892714Y-9501667D01*
X18854619Y-9501667D01*
X18835571Y-9511190D01*
X18826048Y-9520714D01*
X18816524Y-9539762D01*
X19054619Y-9425476D02*
X19073667Y-9425476D01*
X19092714Y-9435000D01*
X19102238Y-9444524D01*
X19111762Y-9463571D01*
X19121286Y-9501667D01*
X19121286Y-9549286D01*
X19111762Y-9587381D01*
X19102238Y-9606429D01*
X19092714Y-9615952D01*
X19073667Y-9625476D01*
X19054619Y-9625476D01*
X19035571Y-9615952D01*
X19026048Y-9606429D01*
X19016524Y-9587381D01*
X19007000Y-9549286D01*
X19007000Y-9501667D01*
X19016524Y-9463571D01*
X19026048Y-9444524D01*
X19035571Y-9435000D01*
X19054619Y-9425476D01*
X19197476Y-9425476D02*
X19197476Y-9463571D01*
X19273667Y-9425476D02*
X19273667Y-9463571D01*
X19568905Y-9701667D02*
X19559381Y-9692143D01*
X19540333Y-9663571D01*
X19530810Y-9644524D01*
X19521286Y-9615952D01*
X19511762Y-9568333D01*
X19511762Y-9530238D01*
X19521286Y-9482619D01*
X19530810Y-9454048D01*
X19540333Y-9435000D01*
X19559381Y-9406429D01*
X19568905Y-9396905D01*
X19626048Y-9425476D02*
X19749857Y-9425476D01*
X19683190Y-9501667D01*
X19711762Y-9501667D01*
X19730810Y-9511190D01*
X19740333Y-9520714D01*
X19749857Y-9539762D01*
X19749857Y-9587381D01*
X19740333Y-9606429D01*
X19730810Y-9615952D01*
X19711762Y-9625476D01*
X19654619Y-9625476D01*
X19635571Y-9615952D01*
X19626048Y-9606429D01*
X19987952Y-9625476D02*
X19987952Y-9425476D01*
X20073667Y-9625476D02*
X20073667Y-9520714D01*
X20064143Y-9501667D01*
X20045095Y-9492143D01*
X20016524Y-9492143D01*
X19997476Y-9501667D01*
X19987952Y-9511190D01*
X20197476Y-9625476D02*
X20178429Y-9615952D01*
X20168905Y-9606429D01*
X20159381Y-9587381D01*
X20159381Y-9530238D01*
X20168905Y-9511190D01*
X20178429Y-9501667D01*
X20197476Y-9492143D01*
X20226048Y-9492143D01*
X20245095Y-9501667D01*
X20254619Y-9511190D01*
X20264143Y-9530238D01*
X20264143Y-9587381D01*
X20254619Y-9606429D01*
X20245095Y-9615952D01*
X20226048Y-9625476D01*
X20197476Y-9625476D01*
X20378429Y-9625476D02*
X20359381Y-9615952D01*
X20349857Y-9596905D01*
X20349857Y-9425476D01*
X20530810Y-9615952D02*
X20511762Y-9625476D01*
X20473667Y-9625476D01*
X20454619Y-9615952D01*
X20445095Y-9596905D01*
X20445095Y-9520714D01*
X20454619Y-9501667D01*
X20473667Y-9492143D01*
X20511762Y-9492143D01*
X20530810Y-9501667D01*
X20540333Y-9520714D01*
X20540333Y-9539762D01*
X20445095Y-9558810D01*
X20616524Y-9615952D02*
X20635571Y-9625476D01*
X20673667Y-9625476D01*
X20692714Y-9615952D01*
X20702238Y-9596905D01*
X20702238Y-9587381D01*
X20692714Y-9568333D01*
X20673667Y-9558810D01*
X20645095Y-9558810D01*
X20626048Y-9549286D01*
X20616524Y-9530238D01*
X20616524Y-9520714D01*
X20626048Y-9501667D01*
X20645095Y-9492143D01*
X20673667Y-9492143D01*
X20692714Y-9501667D01*
X20768905Y-9701667D02*
X20778429Y-9692143D01*
X20797476Y-9663571D01*
X20807000Y-9644524D01*
X20816524Y-9615952D01*
X20826048Y-9568333D01*
X20826048Y-9530238D01*
X20816524Y-9482619D01*
X20807000Y-9454048D01*
X20797476Y-9435000D01*
X20778429Y-9406429D01*
X20768905Y-9396905D01*
X21130810Y-9701667D02*
X21121286Y-9692143D01*
X21102238Y-9663571D01*
X21092714Y-9644524D01*
X21083190Y-9615952D01*
X21073667Y-9568333D01*
X21073667Y-9530238D01*
X21083190Y-9482619D01*
X21092714Y-9454048D01*
X21102238Y-9435000D01*
X21121286Y-9406429D01*
X21130810Y-9396905D01*
X21207000Y-9492143D02*
X21207000Y-9625476D01*
X21207000Y-9511190D02*
X21216524Y-9501667D01*
X21235571Y-9492143D01*
X21264143Y-9492143D01*
X21283190Y-9501667D01*
X21292714Y-9520714D01*
X21292714Y-9625476D01*
X21416524Y-9625476D02*
X21397476Y-9615952D01*
X21387952Y-9606429D01*
X21378429Y-9587381D01*
X21378429Y-9530238D01*
X21387952Y-9511190D01*
X21397476Y-9501667D01*
X21416524Y-9492143D01*
X21445095Y-9492143D01*
X21464143Y-9501667D01*
X21473667Y-9511190D01*
X21483190Y-9530238D01*
X21483190Y-9587381D01*
X21473667Y-9606429D01*
X21464143Y-9615952D01*
X21445095Y-9625476D01*
X21416524Y-9625476D01*
X21540333Y-9492143D02*
X21616524Y-9492143D01*
X21568905Y-9425476D02*
X21568905Y-9596905D01*
X21578429Y-9615952D01*
X21597476Y-9625476D01*
X21616524Y-9625476D01*
X21835571Y-9492143D02*
X21835571Y-9692143D01*
X21835571Y-9501667D02*
X21854619Y-9492143D01*
X21892714Y-9492143D01*
X21911762Y-9501667D01*
X21921286Y-9511190D01*
X21930810Y-9530238D01*
X21930810Y-9587381D01*
X21921286Y-9606429D01*
X21911762Y-9615952D01*
X21892714Y-9625476D01*
X21854619Y-9625476D01*
X21835571Y-9615952D01*
X22045095Y-9625476D02*
X22026048Y-9615952D01*
X22016524Y-9596905D01*
X22016524Y-9425476D01*
X22207000Y-9625476D02*
X22207000Y-9520714D01*
X22197476Y-9501667D01*
X22178429Y-9492143D01*
X22140333Y-9492143D01*
X22121286Y-9501667D01*
X22207000Y-9615952D02*
X22187952Y-9625476D01*
X22140333Y-9625476D01*
X22121286Y-9615952D01*
X22111762Y-9596905D01*
X22111762Y-9577857D01*
X22121286Y-9558810D01*
X22140333Y-9549286D01*
X22187952Y-9549286D01*
X22207000Y-9539762D01*
X22273667Y-9492143D02*
X22349857Y-9492143D01*
X22302238Y-9425476D02*
X22302238Y-9596905D01*
X22311762Y-9615952D01*
X22330810Y-9625476D01*
X22349857Y-9625476D01*
X22492714Y-9615952D02*
X22473667Y-9625476D01*
X22435571Y-9625476D01*
X22416524Y-9615952D01*
X22407000Y-9596905D01*
X22407000Y-9520714D01*
X22416524Y-9501667D01*
X22435571Y-9492143D01*
X22473667Y-9492143D01*
X22492714Y-9501667D01*
X22502238Y-9520714D01*
X22502238Y-9539762D01*
X22407000Y-9558810D01*
X22673667Y-9625476D02*
X22673667Y-9425476D01*
X22673667Y-9615952D02*
X22654619Y-9625476D01*
X22616524Y-9625476D01*
X22597476Y-9615952D01*
X22587952Y-9606429D01*
X22578428Y-9587381D01*
X22578428Y-9530238D01*
X22587952Y-9511190D01*
X22597476Y-9501667D01*
X22616524Y-9492143D01*
X22654619Y-9492143D01*
X22673667Y-9501667D01*
X22749857Y-9701667D02*
X22759381Y-9692143D01*
X22778428Y-9663571D01*
X22787952Y-9644524D01*
X22797476Y-9615952D01*
X22807000Y-9568333D01*
X22807000Y-9530238D01*
X22797476Y-9482619D01*
X22787952Y-9454048D01*
X22778428Y-9435000D01*
X22759381Y-9406429D01*
X22749857Y-9396905D01*
M02*
