G04 #@! TF.GenerationSoftware,KiCad,Pcbnew,(6.0.8-1)-1*
G04 #@! TF.CreationDate,2023-01-08T15:15:57+01:00*
G04 #@! TF.ProjectId,Xarxa_RF,58617278-615f-4524-962e-6b696361645f,rev?*
G04 #@! TF.SameCoordinates,Original*
G04 #@! TF.FileFunction,Copper,L2,Bot*
G04 #@! TF.FilePolarity,Positive*
%FSLAX46Y46*%
G04 Gerber Fmt 4.6, Leading zero omitted, Abs format (unit mm)*
G04 Created by KiCad (PCBNEW (6.0.8-1)-1) date 2023-01-08 15:15:57*
%MOMM*%
%LPD*%
G01*
G04 APERTURE LIST*
G04 Aperture macros list*
%AMRoundRect*
0 Rectangle with rounded corners*
0 $1 Rounding radius*
0 $2 $3 $4 $5 $6 $7 $8 $9 X,Y pos of 4 corners*
0 Add a 4 corners polygon primitive as box body*
4,1,4,$2,$3,$4,$5,$6,$7,$8,$9,$2,$3,0*
0 Add four circle primitives for the rounded corners*
1,1,$1+$1,$2,$3*
1,1,$1+$1,$4,$5*
1,1,$1+$1,$6,$7*
1,1,$1+$1,$8,$9*
0 Add four rect primitives between the rounded corners*
20,1,$1+$1,$2,$3,$4,$5,0*
20,1,$1+$1,$4,$5,$6,$7,0*
20,1,$1+$1,$6,$7,$8,$9,0*
20,1,$1+$1,$8,$9,$2,$3,0*%
G04 Aperture macros list end*
G04 #@! TA.AperFunction,ComponentPad*
%ADD10C,1.879600*%
G04 #@! TD*
G04 #@! TA.AperFunction,ComponentPad*
%ADD11C,1.880000*%
G04 #@! TD*
G04 #@! TA.AperFunction,ComponentPad*
%ADD12RoundRect,0.250000X0.750000X-0.600000X0.750000X0.600000X-0.750000X0.600000X-0.750000X-0.600000X0*%
G04 #@! TD*
G04 #@! TA.AperFunction,ComponentPad*
%ADD13O,2.000000X1.700000*%
G04 #@! TD*
G04 #@! TA.AperFunction,ComponentPad*
%ADD14R,1.500000X1.050000*%
G04 #@! TD*
G04 #@! TA.AperFunction,ComponentPad*
%ADD15O,1.500000X1.050000*%
G04 #@! TD*
G04 #@! TA.AperFunction,ComponentPad*
%ADD16RoundRect,0.250000X0.600000X0.750000X-0.600000X0.750000X-0.600000X-0.750000X0.600000X-0.750000X0*%
G04 #@! TD*
G04 #@! TA.AperFunction,ComponentPad*
%ADD17O,1.700000X2.000000*%
G04 #@! TD*
G04 #@! TA.AperFunction,ComponentPad*
%ADD18R,1.700000X1.700000*%
G04 #@! TD*
G04 #@! TA.AperFunction,ComponentPad*
%ADD19O,1.700000X1.700000*%
G04 #@! TD*
G04 #@! TA.AperFunction,ComponentPad*
%ADD20C,1.600000*%
G04 #@! TD*
G04 #@! TA.AperFunction,ComponentPad*
%ADD21R,1.800000X1.800000*%
G04 #@! TD*
G04 #@! TA.AperFunction,ComponentPad*
%ADD22C,1.800000*%
G04 #@! TD*
G04 #@! TA.AperFunction,ComponentPad*
%ADD23C,1.700000*%
G04 #@! TD*
G04 #@! TA.AperFunction,Conductor*
%ADD24C,0.250000*%
G04 #@! TD*
G04 #@! TA.AperFunction,Conductor*
%ADD25C,0.800000*%
G04 #@! TD*
G04 APERTURE END LIST*
D10*
X191478383Y-79949254D03*
X191478383Y-77409254D03*
X191478383Y-74869254D03*
X201638383Y-65979254D03*
X191478383Y-69789254D03*
X191478383Y-67249254D03*
X205321383Y-68900254D03*
X202781383Y-68900254D03*
X194018383Y-65979254D03*
X196558383Y-65979254D03*
X199098383Y-65979254D03*
X191478383Y-72329254D03*
X204178383Y-65979254D03*
X206718383Y-65979254D03*
X209258383Y-65979254D03*
X211798383Y-65979254D03*
X214338383Y-65979254D03*
X216878383Y-65979254D03*
X219418383Y-65979254D03*
X221958383Y-65979254D03*
X221958383Y-81219254D03*
X219418383Y-81219254D03*
X216878383Y-81219254D03*
X214338383Y-81219254D03*
X211798383Y-81219254D03*
X209258383Y-81219254D03*
X206718383Y-81219254D03*
X204178383Y-81219254D03*
X201638383Y-81219254D03*
X199098383Y-81219254D03*
X196558383Y-81219254D03*
X194018383Y-81219254D03*
D11*
X229473563Y-62284871D03*
X229473563Y-64824871D03*
X229473563Y-67364871D03*
X229473563Y-69904871D03*
X229473563Y-72444871D03*
X229473563Y-74984871D03*
D12*
X164017585Y-69665143D03*
D13*
X164017585Y-67165143D03*
D14*
X193040000Y-58420000D03*
D15*
X193040000Y-59690000D03*
X193040000Y-60960000D03*
D16*
X177800000Y-72998615D03*
D17*
X175300000Y-72998615D03*
D18*
X186604613Y-67322340D03*
D19*
X186604613Y-69862340D03*
X186604613Y-72402340D03*
X186604613Y-74942340D03*
X186604613Y-77482340D03*
X186604613Y-80022340D03*
D20*
X216740956Y-58973650D03*
X219240956Y-58973650D03*
X231140000Y-53340000D03*
X231140000Y-50840000D03*
D21*
X176759537Y-79218612D03*
D22*
X176759537Y-84298612D03*
X176759537Y-81758612D03*
D18*
X223520000Y-51345000D03*
D23*
X220980000Y-51345000D03*
X223520000Y-48805000D03*
X220980000Y-48805000D03*
X223520000Y-46265000D03*
X220980000Y-46265000D03*
X223520000Y-43725000D03*
X220980000Y-43725000D03*
D24*
X221958383Y-65979254D02*
X221958383Y-56858383D01*
X218440000Y-53340000D02*
X218440000Y-51345000D01*
X218440000Y-51345000D02*
X220980000Y-48805000D01*
X221958383Y-56858383D02*
X218440000Y-53340000D01*
X229473563Y-67364871D02*
X224735129Y-67364871D01*
X224735129Y-67364871D02*
X220980000Y-71120000D01*
X220980000Y-71120000D02*
X205001129Y-71120000D01*
X205001129Y-71120000D02*
X202781383Y-68900254D01*
D25*
X216740956Y-58973650D02*
X214754606Y-60960000D01*
X214754606Y-60960000D02*
X193040000Y-60960000D01*
G04 #@! TA.AperFunction,Conductor*
G36*
X226070267Y-38120002D02*
G01*
X226097707Y-38143878D01*
X229816054Y-42470747D01*
X233052502Y-46236851D01*
X233620863Y-46898227D01*
X233650092Y-46962928D01*
X233651302Y-46980222D01*
X233679955Y-76153454D01*
X233679959Y-76157931D01*
X233660024Y-76226072D01*
X233654759Y-76233655D01*
X226097800Y-86309600D01*
X226040926Y-86352095D01*
X225997000Y-86360000D01*
X160654500Y-86360000D01*
X160586379Y-86339998D01*
X160539886Y-86286342D01*
X160528500Y-86234000D01*
X160528500Y-84264081D01*
X175346632Y-84264081D01*
X175346929Y-84269234D01*
X175346929Y-84269237D01*
X175352604Y-84367653D01*
X175359964Y-84495309D01*
X175361101Y-84500355D01*
X175361102Y-84500361D01*
X175393278Y-84643135D01*
X175410883Y-84721254D01*
X175412825Y-84726036D01*
X175412826Y-84726040D01*
X175496077Y-84931062D01*
X175498021Y-84935849D01*
X175619038Y-85133331D01*
X175770684Y-85308396D01*
X175948886Y-85456342D01*
X176148859Y-85573196D01*
X176365231Y-85655821D01*
X176370297Y-85656852D01*
X176370298Y-85656852D01*
X176423383Y-85667652D01*
X176592193Y-85701997D01*
X176722861Y-85706788D01*
X176818486Y-85710295D01*
X176818490Y-85710295D01*
X176823650Y-85710484D01*
X176828770Y-85709828D01*
X176828772Y-85709828D01*
X176901807Y-85700472D01*
X177053384Y-85681054D01*
X177058332Y-85679569D01*
X177058339Y-85679568D01*
X177270284Y-85615981D01*
X177275227Y-85614498D01*
X177355773Y-85575039D01*
X177478586Y-85514874D01*
X177478589Y-85514872D01*
X177483221Y-85512603D01*
X177671780Y-85378106D01*
X177835840Y-85214617D01*
X177970995Y-85026529D01*
X178018178Y-84931062D01*
X178071321Y-84823534D01*
X178071322Y-84823532D01*
X178073615Y-84818892D01*
X178140945Y-84597283D01*
X178171177Y-84367653D01*
X178172864Y-84298612D01*
X178166569Y-84222046D01*
X178154310Y-84072930D01*
X178154309Y-84072924D01*
X178153886Y-84067779D01*
X178097462Y-83843145D01*
X178095403Y-83838409D01*
X178007167Y-83635480D01*
X178007165Y-83635477D01*
X178005107Y-83630743D01*
X177879301Y-83436277D01*
X177723424Y-83264970D01*
X177719373Y-83261771D01*
X177719369Y-83261767D01*
X177546206Y-83125012D01*
X177505143Y-83067095D01*
X177501911Y-82996172D01*
X177537536Y-82934760D01*
X177543024Y-82930235D01*
X177553034Y-82917486D01*
X177546047Y-82904333D01*
X176772348Y-82130633D01*
X176758405Y-82123020D01*
X176756571Y-82123151D01*
X176749957Y-82127402D01*
X175969717Y-82907643D01*
X175962960Y-82920018D01*
X175982267Y-82945809D01*
X175981577Y-82946325D01*
X176006164Y-82972349D01*
X176019280Y-83042123D01*
X175992592Y-83107912D01*
X175969560Y-83130331D01*
X175821192Y-83241729D01*
X175661176Y-83409176D01*
X175658262Y-83413448D01*
X175658261Y-83413449D01*
X175642689Y-83436277D01*
X175530656Y-83600511D01*
X175433139Y-83810593D01*
X175371244Y-84033781D01*
X175346632Y-84264081D01*
X160528500Y-84264081D01*
X160528500Y-81729250D01*
X175347430Y-81729250D01*
X175360164Y-81950080D01*
X175361598Y-81960282D01*
X175410222Y-82176051D01*
X175413310Y-82185904D01*
X175496523Y-82390832D01*
X175501171Y-82400033D01*
X175589634Y-82544393D01*
X175600090Y-82553854D01*
X175608868Y-82550070D01*
X176387516Y-81771423D01*
X176393893Y-81759744D01*
X177123945Y-81759744D01*
X177124076Y-81761578D01*
X177128327Y-81768192D01*
X177905844Y-82545708D01*
X177917850Y-82552264D01*
X177929589Y-82543296D01*
X177967547Y-82490471D01*
X177972858Y-82481632D01*
X178070855Y-82283349D01*
X178074654Y-82273754D01*
X178138952Y-82062129D01*
X178141131Y-82052048D01*
X178170239Y-81830950D01*
X178170758Y-81824275D01*
X178172281Y-81761976D01*
X178172087Y-81755258D01*
X178153816Y-81533012D01*
X178152133Y-81522850D01*
X178098247Y-81308320D01*
X178094926Y-81298565D01*
X178006730Y-81095730D01*
X178001852Y-81086632D01*
X177928761Y-80973650D01*
X177918075Y-80964447D01*
X177908510Y-80968850D01*
X177131558Y-81745801D01*
X177123945Y-81759744D01*
X176393893Y-81759744D01*
X176395129Y-81757480D01*
X176394998Y-81755646D01*
X176390747Y-81749032D01*
X175613399Y-80971685D01*
X175601867Y-80965388D01*
X175589585Y-80975011D01*
X175534004Y-81056489D01*
X175528916Y-81065445D01*
X175435789Y-81266071D01*
X175432226Y-81275758D01*
X175373118Y-81488892D01*
X175371187Y-81499012D01*
X175347682Y-81718961D01*
X175347430Y-81729250D01*
X160528500Y-81729250D01*
X160528500Y-80166746D01*
X175351037Y-80166746D01*
X175357792Y-80228928D01*
X175408922Y-80365317D01*
X175496276Y-80481873D01*
X175612832Y-80569227D01*
X175749221Y-80620357D01*
X175811403Y-80627112D01*
X175935057Y-80627112D01*
X176003178Y-80647114D01*
X176024153Y-80664017D01*
X176746726Y-81386591D01*
X176760669Y-81394204D01*
X176762503Y-81394073D01*
X176769117Y-81389822D01*
X177494921Y-80664017D01*
X177557234Y-80629992D01*
X177584017Y-80627112D01*
X177707671Y-80627112D01*
X177769853Y-80620357D01*
X177906242Y-80569227D01*
X178022798Y-80481873D01*
X178110152Y-80365317D01*
X178161282Y-80228928D01*
X178168037Y-80166746D01*
X178168037Y-79989035D01*
X185241864Y-79989035D01*
X185242161Y-79994188D01*
X185242161Y-79994191D01*
X185252306Y-80170143D01*
X185254723Y-80212055D01*
X185255860Y-80217101D01*
X185255861Y-80217107D01*
X185274756Y-80300948D01*
X185303835Y-80429979D01*
X185347393Y-80537250D01*
X185380013Y-80617583D01*
X185387879Y-80636956D01*
X185390578Y-80641360D01*
X185494817Y-80811463D01*
X185504600Y-80827428D01*
X185650863Y-80996278D01*
X185822739Y-81138972D01*
X186015613Y-81251678D01*
X186020438Y-81253520D01*
X186020439Y-81253521D01*
X186037026Y-81259855D01*
X186224305Y-81331370D01*
X186229373Y-81332401D01*
X186229376Y-81332402D01*
X186295451Y-81345845D01*
X186443210Y-81375907D01*
X186448385Y-81376097D01*
X186448387Y-81376097D01*
X186661286Y-81383904D01*
X186661290Y-81383904D01*
X186666450Y-81384093D01*
X186671570Y-81383437D01*
X186671572Y-81383437D01*
X186882901Y-81356365D01*
X186882902Y-81356365D01*
X186888029Y-81355708D01*
X186920904Y-81345845D01*
X187097042Y-81293001D01*
X187097047Y-81292999D01*
X187101997Y-81291514D01*
X187302607Y-81193236D01*
X187484473Y-81063513D01*
X187642709Y-80905829D01*
X187702207Y-80823029D01*
X187770048Y-80728617D01*
X187773066Y-80724417D01*
X187802918Y-80664017D01*
X187869749Y-80528793D01*
X187869750Y-80528791D01*
X187872043Y-80524151D01*
X187922948Y-80356603D01*
X187935478Y-80315363D01*
X187935478Y-80315361D01*
X187936983Y-80310409D01*
X187966142Y-80088930D01*
X187967769Y-80022340D01*
X187958841Y-79913748D01*
X190025553Y-79913748D01*
X190025850Y-79918900D01*
X190025850Y-79918904D01*
X190034735Y-80073002D01*
X190039262Y-80151509D01*
X190040399Y-80156555D01*
X190040400Y-80156561D01*
X190062892Y-80256365D01*
X190091620Y-80383839D01*
X190093562Y-80388621D01*
X190093563Y-80388625D01*
X190164711Y-80563841D01*
X190181220Y-80604498D01*
X190305657Y-80807560D01*
X190461587Y-80987571D01*
X190644825Y-81139698D01*
X190649277Y-81142300D01*
X190649282Y-81142303D01*
X190831993Y-81249071D01*
X190850448Y-81259855D01*
X191072935Y-81344814D01*
X191078001Y-81345845D01*
X191078002Y-81345845D01*
X191126481Y-81355708D01*
X191306311Y-81392295D01*
X191440504Y-81397216D01*
X191539143Y-81400833D01*
X191539147Y-81400833D01*
X191544307Y-81401022D01*
X191549427Y-81400366D01*
X191549429Y-81400366D01*
X191775406Y-81371418D01*
X191775407Y-81371418D01*
X191780534Y-81370761D01*
X191863583Y-81345845D01*
X192003699Y-81303808D01*
X192003700Y-81303807D01*
X192008645Y-81302324D01*
X192222516Y-81197549D01*
X192366948Y-81094527D01*
X192434019Y-81071255D01*
X192503027Y-81087938D01*
X192552061Y-81139282D01*
X192565905Y-81189854D01*
X192572736Y-81308320D01*
X192579262Y-81421509D01*
X192580399Y-81426555D01*
X192580400Y-81426561D01*
X192604390Y-81533012D01*
X192631620Y-81653839D01*
X192633562Y-81658621D01*
X192633563Y-81658625D01*
X192703537Y-81830950D01*
X192721220Y-81874498D01*
X192845657Y-82077560D01*
X193001587Y-82257571D01*
X193184825Y-82409698D01*
X193189277Y-82412300D01*
X193189282Y-82412303D01*
X193385990Y-82527250D01*
X193390448Y-82529855D01*
X193612935Y-82614814D01*
X193618001Y-82615845D01*
X193618002Y-82615845D01*
X193672339Y-82626900D01*
X193846311Y-82662295D01*
X193980504Y-82667216D01*
X194079143Y-82670833D01*
X194079147Y-82670833D01*
X194084307Y-82671022D01*
X194089427Y-82670366D01*
X194089429Y-82670366D01*
X194315406Y-82641418D01*
X194315407Y-82641418D01*
X194320534Y-82640761D01*
X194403583Y-82615845D01*
X194543699Y-82573808D01*
X194543700Y-82573807D01*
X194548645Y-82572324D01*
X194762516Y-82467549D01*
X194766719Y-82464551D01*
X194766724Y-82464548D01*
X194952199Y-82332250D01*
X194952201Y-82332248D01*
X194956403Y-82329251D01*
X195125099Y-82161143D01*
X195183362Y-82080061D01*
X195239355Y-82036414D01*
X195310059Y-82029968D01*
X195373023Y-82062770D01*
X195384965Y-82076430D01*
X195385657Y-82077560D01*
X195541587Y-82257571D01*
X195724825Y-82409698D01*
X195729277Y-82412300D01*
X195729282Y-82412303D01*
X195925990Y-82527250D01*
X195930448Y-82529855D01*
X196152935Y-82614814D01*
X196158001Y-82615845D01*
X196158002Y-82615845D01*
X196212339Y-82626900D01*
X196386311Y-82662295D01*
X196520504Y-82667216D01*
X196619143Y-82670833D01*
X196619147Y-82670833D01*
X196624307Y-82671022D01*
X196629427Y-82670366D01*
X196629429Y-82670366D01*
X196855406Y-82641418D01*
X196855407Y-82641418D01*
X196860534Y-82640761D01*
X196943583Y-82615845D01*
X197083699Y-82573808D01*
X197083700Y-82573807D01*
X197088645Y-82572324D01*
X197302516Y-82467549D01*
X197306719Y-82464551D01*
X197306724Y-82464548D01*
X197492199Y-82332250D01*
X197492201Y-82332248D01*
X197496403Y-82329251D01*
X197665099Y-82161143D01*
X197723362Y-82080061D01*
X197779355Y-82036414D01*
X197850059Y-82029968D01*
X197913023Y-82062770D01*
X197924965Y-82076430D01*
X197925657Y-82077560D01*
X198081587Y-82257571D01*
X198264825Y-82409698D01*
X198269277Y-82412300D01*
X198269282Y-82412303D01*
X198465990Y-82527250D01*
X198470448Y-82529855D01*
X198692935Y-82614814D01*
X198698001Y-82615845D01*
X198698002Y-82615845D01*
X198752339Y-82626900D01*
X198926311Y-82662295D01*
X199060504Y-82667216D01*
X199159143Y-82670833D01*
X199159147Y-82670833D01*
X199164307Y-82671022D01*
X199169427Y-82670366D01*
X199169429Y-82670366D01*
X199395406Y-82641418D01*
X199395407Y-82641418D01*
X199400534Y-82640761D01*
X199483583Y-82615845D01*
X199623699Y-82573808D01*
X199623700Y-82573807D01*
X199628645Y-82572324D01*
X199842516Y-82467549D01*
X199846719Y-82464551D01*
X199846724Y-82464548D01*
X200032199Y-82332250D01*
X200032201Y-82332248D01*
X200036403Y-82329251D01*
X200205099Y-82161143D01*
X200263362Y-82080061D01*
X200319355Y-82036414D01*
X200390059Y-82029968D01*
X200453023Y-82062770D01*
X200464965Y-82076430D01*
X200465657Y-82077560D01*
X200621587Y-82257571D01*
X200804825Y-82409698D01*
X200809277Y-82412300D01*
X200809282Y-82412303D01*
X201005990Y-82527250D01*
X201010448Y-82529855D01*
X201232935Y-82614814D01*
X201238001Y-82615845D01*
X201238002Y-82615845D01*
X201292339Y-82626900D01*
X201466311Y-82662295D01*
X201600504Y-82667216D01*
X201699143Y-82670833D01*
X201699147Y-82670833D01*
X201704307Y-82671022D01*
X201709427Y-82670366D01*
X201709429Y-82670366D01*
X201935406Y-82641418D01*
X201935407Y-82641418D01*
X201940534Y-82640761D01*
X202023583Y-82615845D01*
X202163699Y-82573808D01*
X202163700Y-82573807D01*
X202168645Y-82572324D01*
X202382516Y-82467549D01*
X202386719Y-82464551D01*
X202386724Y-82464548D01*
X202572199Y-82332250D01*
X202572201Y-82332248D01*
X202576403Y-82329251D01*
X202745099Y-82161143D01*
X202803362Y-82080061D01*
X202859355Y-82036414D01*
X202930059Y-82029968D01*
X202993023Y-82062770D01*
X203004965Y-82076430D01*
X203005657Y-82077560D01*
X203161587Y-82257571D01*
X203344825Y-82409698D01*
X203349277Y-82412300D01*
X203349282Y-82412303D01*
X203545990Y-82527250D01*
X203550448Y-82529855D01*
X203772935Y-82614814D01*
X203778001Y-82615845D01*
X203778002Y-82615845D01*
X203832339Y-82626900D01*
X204006311Y-82662295D01*
X204140504Y-82667216D01*
X204239143Y-82670833D01*
X204239147Y-82670833D01*
X204244307Y-82671022D01*
X204249427Y-82670366D01*
X204249429Y-82670366D01*
X204475406Y-82641418D01*
X204475407Y-82641418D01*
X204480534Y-82640761D01*
X204563583Y-82615845D01*
X204703699Y-82573808D01*
X204703700Y-82573807D01*
X204708645Y-82572324D01*
X204922516Y-82467549D01*
X204926719Y-82464551D01*
X204926724Y-82464548D01*
X205112199Y-82332250D01*
X205112201Y-82332248D01*
X205116403Y-82329251D01*
X205285099Y-82161143D01*
X205343362Y-82080061D01*
X205399355Y-82036414D01*
X205470059Y-82029968D01*
X205533023Y-82062770D01*
X205544965Y-82076430D01*
X205545657Y-82077560D01*
X205701587Y-82257571D01*
X205884825Y-82409698D01*
X205889277Y-82412300D01*
X205889282Y-82412303D01*
X206085990Y-82527250D01*
X206090448Y-82529855D01*
X206312935Y-82614814D01*
X206318001Y-82615845D01*
X206318002Y-82615845D01*
X206372339Y-82626900D01*
X206546311Y-82662295D01*
X206680504Y-82667216D01*
X206779143Y-82670833D01*
X206779147Y-82670833D01*
X206784307Y-82671022D01*
X206789427Y-82670366D01*
X206789429Y-82670366D01*
X207015406Y-82641418D01*
X207015407Y-82641418D01*
X207020534Y-82640761D01*
X207103583Y-82615845D01*
X207243699Y-82573808D01*
X207243700Y-82573807D01*
X207248645Y-82572324D01*
X207462516Y-82467549D01*
X207466719Y-82464551D01*
X207466724Y-82464548D01*
X207652199Y-82332250D01*
X207652201Y-82332248D01*
X207656403Y-82329251D01*
X207825099Y-82161143D01*
X207883362Y-82080061D01*
X207939355Y-82036414D01*
X208010059Y-82029968D01*
X208073023Y-82062770D01*
X208084965Y-82076430D01*
X208085657Y-82077560D01*
X208241587Y-82257571D01*
X208424825Y-82409698D01*
X208429277Y-82412300D01*
X208429282Y-82412303D01*
X208625990Y-82527250D01*
X208630448Y-82529855D01*
X208852935Y-82614814D01*
X208858001Y-82615845D01*
X208858002Y-82615845D01*
X208912339Y-82626900D01*
X209086311Y-82662295D01*
X209220504Y-82667216D01*
X209319143Y-82670833D01*
X209319147Y-82670833D01*
X209324307Y-82671022D01*
X209329427Y-82670366D01*
X209329429Y-82670366D01*
X209555406Y-82641418D01*
X209555407Y-82641418D01*
X209560534Y-82640761D01*
X209643583Y-82615845D01*
X209783699Y-82573808D01*
X209783700Y-82573807D01*
X209788645Y-82572324D01*
X210002516Y-82467549D01*
X210006719Y-82464551D01*
X210006724Y-82464548D01*
X210192199Y-82332250D01*
X210192201Y-82332248D01*
X210196403Y-82329251D01*
X210365099Y-82161143D01*
X210423362Y-82080061D01*
X210479355Y-82036414D01*
X210550059Y-82029968D01*
X210613023Y-82062770D01*
X210624965Y-82076430D01*
X210625657Y-82077560D01*
X210781587Y-82257571D01*
X210964825Y-82409698D01*
X210969277Y-82412300D01*
X210969282Y-82412303D01*
X211165990Y-82527250D01*
X211170448Y-82529855D01*
X211392935Y-82614814D01*
X211398001Y-82615845D01*
X211398002Y-82615845D01*
X211452339Y-82626900D01*
X211626311Y-82662295D01*
X211760504Y-82667216D01*
X211859143Y-82670833D01*
X211859147Y-82670833D01*
X211864307Y-82671022D01*
X211869427Y-82670366D01*
X211869429Y-82670366D01*
X212095406Y-82641418D01*
X212095407Y-82641418D01*
X212100534Y-82640761D01*
X212183583Y-82615845D01*
X212323699Y-82573808D01*
X212323700Y-82573807D01*
X212328645Y-82572324D01*
X212542516Y-82467549D01*
X212546719Y-82464551D01*
X212546724Y-82464548D01*
X212732199Y-82332250D01*
X212732201Y-82332248D01*
X212736403Y-82329251D01*
X212905099Y-82161143D01*
X212963362Y-82080061D01*
X213019355Y-82036414D01*
X213090059Y-82029968D01*
X213153023Y-82062770D01*
X213164965Y-82076430D01*
X213165657Y-82077560D01*
X213321587Y-82257571D01*
X213504825Y-82409698D01*
X213509277Y-82412300D01*
X213509282Y-82412303D01*
X213705990Y-82527250D01*
X213710448Y-82529855D01*
X213932935Y-82614814D01*
X213938001Y-82615845D01*
X213938002Y-82615845D01*
X213992339Y-82626900D01*
X214166311Y-82662295D01*
X214300504Y-82667216D01*
X214399143Y-82670833D01*
X214399147Y-82670833D01*
X214404307Y-82671022D01*
X214409427Y-82670366D01*
X214409429Y-82670366D01*
X214635406Y-82641418D01*
X214635407Y-82641418D01*
X214640534Y-82640761D01*
X214723583Y-82615845D01*
X214863699Y-82573808D01*
X214863700Y-82573807D01*
X214868645Y-82572324D01*
X215082516Y-82467549D01*
X215086719Y-82464551D01*
X215086724Y-82464548D01*
X215272199Y-82332250D01*
X215272201Y-82332248D01*
X215276403Y-82329251D01*
X215445099Y-82161143D01*
X215503362Y-82080061D01*
X215559355Y-82036414D01*
X215630059Y-82029968D01*
X215693023Y-82062770D01*
X215704965Y-82076430D01*
X215705657Y-82077560D01*
X215861587Y-82257571D01*
X216044825Y-82409698D01*
X216049277Y-82412300D01*
X216049282Y-82412303D01*
X216245990Y-82527250D01*
X216250448Y-82529855D01*
X216472935Y-82614814D01*
X216478001Y-82615845D01*
X216478002Y-82615845D01*
X216532339Y-82626900D01*
X216706311Y-82662295D01*
X216840504Y-82667216D01*
X216939143Y-82670833D01*
X216939147Y-82670833D01*
X216944307Y-82671022D01*
X216949427Y-82670366D01*
X216949429Y-82670366D01*
X217175406Y-82641418D01*
X217175407Y-82641418D01*
X217180534Y-82640761D01*
X217263583Y-82615845D01*
X217403699Y-82573808D01*
X217403700Y-82573807D01*
X217408645Y-82572324D01*
X217622516Y-82467549D01*
X217626719Y-82464551D01*
X217626724Y-82464548D01*
X217812199Y-82332250D01*
X217812201Y-82332248D01*
X217816403Y-82329251D01*
X217985099Y-82161143D01*
X218043362Y-82080061D01*
X218099355Y-82036414D01*
X218170059Y-82029968D01*
X218233023Y-82062770D01*
X218244965Y-82076430D01*
X218245657Y-82077560D01*
X218401587Y-82257571D01*
X218584825Y-82409698D01*
X218589277Y-82412300D01*
X218589282Y-82412303D01*
X218785990Y-82527250D01*
X218790448Y-82529855D01*
X219012935Y-82614814D01*
X219018001Y-82615845D01*
X219018002Y-82615845D01*
X219072339Y-82626900D01*
X219246311Y-82662295D01*
X219380504Y-82667216D01*
X219479143Y-82670833D01*
X219479147Y-82670833D01*
X219484307Y-82671022D01*
X219489427Y-82670366D01*
X219489429Y-82670366D01*
X219715406Y-82641418D01*
X219715407Y-82641418D01*
X219720534Y-82640761D01*
X219803583Y-82615845D01*
X219943699Y-82573808D01*
X219943700Y-82573807D01*
X219948645Y-82572324D01*
X220162516Y-82467549D01*
X220166719Y-82464551D01*
X220166724Y-82464548D01*
X220352199Y-82332250D01*
X220352201Y-82332248D01*
X220356403Y-82329251D01*
X220525099Y-82161143D01*
X220583362Y-82080061D01*
X220639355Y-82036414D01*
X220710059Y-82029968D01*
X220773023Y-82062770D01*
X220784965Y-82076430D01*
X220785657Y-82077560D01*
X220941587Y-82257571D01*
X221124825Y-82409698D01*
X221129277Y-82412300D01*
X221129282Y-82412303D01*
X221325990Y-82527250D01*
X221330448Y-82529855D01*
X221552935Y-82614814D01*
X221558001Y-82615845D01*
X221558002Y-82615845D01*
X221612339Y-82626900D01*
X221786311Y-82662295D01*
X221920504Y-82667216D01*
X222019143Y-82670833D01*
X222019147Y-82670833D01*
X222024307Y-82671022D01*
X222029427Y-82670366D01*
X222029429Y-82670366D01*
X222255406Y-82641418D01*
X222255407Y-82641418D01*
X222260534Y-82640761D01*
X222343583Y-82615845D01*
X222483699Y-82573808D01*
X222483700Y-82573807D01*
X222488645Y-82572324D01*
X222702516Y-82467549D01*
X222706719Y-82464551D01*
X222706724Y-82464548D01*
X222892199Y-82332250D01*
X222892201Y-82332248D01*
X222896403Y-82329251D01*
X223065099Y-82161143D01*
X223204073Y-81967740D01*
X223250157Y-81874498D01*
X223307300Y-81758878D01*
X223307301Y-81758876D01*
X223309594Y-81754236D01*
X223378826Y-81526365D01*
X223382427Y-81499012D01*
X223409475Y-81293567D01*
X223409475Y-81293563D01*
X223409912Y-81290246D01*
X223410655Y-81259855D01*
X223411565Y-81222619D01*
X223411565Y-81222615D01*
X223411647Y-81219254D01*
X223392133Y-80981898D01*
X223334114Y-80750917D01*
X223239150Y-80532513D01*
X223233741Y-80524151D01*
X223159748Y-80409776D01*
X223109789Y-80332552D01*
X223089641Y-80310409D01*
X223022231Y-80236327D01*
X222949507Y-80156404D01*
X222945456Y-80153205D01*
X222945452Y-80153201D01*
X222766661Y-80012001D01*
X222766656Y-80011998D01*
X222762607Y-80008800D01*
X222758091Y-80006307D01*
X222758088Y-80006305D01*
X222558633Y-79896200D01*
X222558629Y-79896198D01*
X222554109Y-79893703D01*
X222549240Y-79891979D01*
X222549236Y-79891977D01*
X222334488Y-79815930D01*
X222334484Y-79815929D01*
X222329613Y-79814204D01*
X222324523Y-79813297D01*
X222324518Y-79813296D01*
X222197197Y-79790618D01*
X222095147Y-79772440D01*
X222006020Y-79771351D01*
X221862178Y-79769593D01*
X221862176Y-79769593D01*
X221857008Y-79769530D01*
X221621592Y-79805554D01*
X221395221Y-79879543D01*
X221390629Y-79881933D01*
X221390630Y-79881933D01*
X221194750Y-79983902D01*
X221183973Y-79989512D01*
X221179840Y-79992615D01*
X221179837Y-79992617D01*
X221039603Y-80097908D01*
X220993523Y-80132506D01*
X220828985Y-80304685D01*
X220807012Y-80336896D01*
X220793569Y-80356603D01*
X220738657Y-80401605D01*
X220668132Y-80409776D01*
X220604385Y-80378521D01*
X220583689Y-80354038D01*
X220572600Y-80336896D01*
X220572595Y-80336890D01*
X220569789Y-80332552D01*
X220549641Y-80310409D01*
X220482231Y-80236327D01*
X220409507Y-80156404D01*
X220405456Y-80153205D01*
X220405452Y-80153201D01*
X220226661Y-80012001D01*
X220226656Y-80011998D01*
X220222607Y-80008800D01*
X220218091Y-80006307D01*
X220218088Y-80006305D01*
X220018633Y-79896200D01*
X220018629Y-79896198D01*
X220014109Y-79893703D01*
X220009240Y-79891979D01*
X220009236Y-79891977D01*
X219794488Y-79815930D01*
X219794484Y-79815929D01*
X219789613Y-79814204D01*
X219784523Y-79813297D01*
X219784518Y-79813296D01*
X219657197Y-79790618D01*
X219555147Y-79772440D01*
X219466020Y-79771351D01*
X219322178Y-79769593D01*
X219322176Y-79769593D01*
X219317008Y-79769530D01*
X219081592Y-79805554D01*
X218855221Y-79879543D01*
X218850629Y-79881933D01*
X218850630Y-79881933D01*
X218654750Y-79983902D01*
X218643973Y-79989512D01*
X218639840Y-79992615D01*
X218639837Y-79992617D01*
X218499603Y-80097908D01*
X218453523Y-80132506D01*
X218288985Y-80304685D01*
X218267012Y-80336896D01*
X218253569Y-80356603D01*
X218198657Y-80401605D01*
X218128132Y-80409776D01*
X218064385Y-80378521D01*
X218043689Y-80354038D01*
X218032600Y-80336896D01*
X218032595Y-80336890D01*
X218029789Y-80332552D01*
X218009641Y-80310409D01*
X217942231Y-80236327D01*
X217869507Y-80156404D01*
X217865456Y-80153205D01*
X217865452Y-80153201D01*
X217686661Y-80012001D01*
X217686656Y-80011998D01*
X217682607Y-80008800D01*
X217678091Y-80006307D01*
X217678088Y-80006305D01*
X217478633Y-79896200D01*
X217478629Y-79896198D01*
X217474109Y-79893703D01*
X217469240Y-79891979D01*
X217469236Y-79891977D01*
X217254488Y-79815930D01*
X217254484Y-79815929D01*
X217249613Y-79814204D01*
X217244523Y-79813297D01*
X217244518Y-79813296D01*
X217117197Y-79790618D01*
X217015147Y-79772440D01*
X216926020Y-79771351D01*
X216782178Y-79769593D01*
X216782176Y-79769593D01*
X216777008Y-79769530D01*
X216541592Y-79805554D01*
X216315221Y-79879543D01*
X216310629Y-79881933D01*
X216310630Y-79881933D01*
X216114750Y-79983902D01*
X216103973Y-79989512D01*
X216099840Y-79992615D01*
X216099837Y-79992617D01*
X215959603Y-80097908D01*
X215913523Y-80132506D01*
X215748985Y-80304685D01*
X215727012Y-80336896D01*
X215713569Y-80356603D01*
X215658657Y-80401605D01*
X215588132Y-80409776D01*
X215524385Y-80378521D01*
X215503689Y-80354038D01*
X215492600Y-80336896D01*
X215492595Y-80336890D01*
X215489789Y-80332552D01*
X215469641Y-80310409D01*
X215402231Y-80236327D01*
X215329507Y-80156404D01*
X215325456Y-80153205D01*
X215325452Y-80153201D01*
X215146661Y-80012001D01*
X215146656Y-80011998D01*
X215142607Y-80008800D01*
X215138091Y-80006307D01*
X215138088Y-80006305D01*
X214938633Y-79896200D01*
X214938629Y-79896198D01*
X214934109Y-79893703D01*
X214929240Y-79891979D01*
X214929236Y-79891977D01*
X214714488Y-79815930D01*
X214714484Y-79815929D01*
X214709613Y-79814204D01*
X214704523Y-79813297D01*
X214704518Y-79813296D01*
X214577197Y-79790618D01*
X214475147Y-79772440D01*
X214386020Y-79771351D01*
X214242178Y-79769593D01*
X214242176Y-79769593D01*
X214237008Y-79769530D01*
X214001592Y-79805554D01*
X213775221Y-79879543D01*
X213770629Y-79881933D01*
X213770630Y-79881933D01*
X213574750Y-79983902D01*
X213563973Y-79989512D01*
X213559840Y-79992615D01*
X213559837Y-79992617D01*
X213419603Y-80097908D01*
X213373523Y-80132506D01*
X213208985Y-80304685D01*
X213187012Y-80336896D01*
X213173569Y-80356603D01*
X213118657Y-80401605D01*
X213048132Y-80409776D01*
X212984385Y-80378521D01*
X212963689Y-80354038D01*
X212952600Y-80336896D01*
X212952595Y-80336890D01*
X212949789Y-80332552D01*
X212929641Y-80310409D01*
X212862231Y-80236327D01*
X212789507Y-80156404D01*
X212785456Y-80153205D01*
X212785452Y-80153201D01*
X212606661Y-80012001D01*
X212606656Y-80011998D01*
X212602607Y-80008800D01*
X212598091Y-80006307D01*
X212598088Y-80006305D01*
X212398633Y-79896200D01*
X212398629Y-79896198D01*
X212394109Y-79893703D01*
X212389240Y-79891979D01*
X212389236Y-79891977D01*
X212174488Y-79815930D01*
X212174484Y-79815929D01*
X212169613Y-79814204D01*
X212164523Y-79813297D01*
X212164518Y-79813296D01*
X212037197Y-79790618D01*
X211935147Y-79772440D01*
X211846020Y-79771351D01*
X211702178Y-79769593D01*
X211702176Y-79769593D01*
X211697008Y-79769530D01*
X211461592Y-79805554D01*
X211235221Y-79879543D01*
X211230629Y-79881933D01*
X211230630Y-79881933D01*
X211034750Y-79983902D01*
X211023973Y-79989512D01*
X211019840Y-79992615D01*
X211019837Y-79992617D01*
X210879603Y-80097908D01*
X210833523Y-80132506D01*
X210668985Y-80304685D01*
X210647012Y-80336896D01*
X210633569Y-80356603D01*
X210578657Y-80401605D01*
X210508132Y-80409776D01*
X210444385Y-80378521D01*
X210423689Y-80354038D01*
X210412600Y-80336896D01*
X210412595Y-80336890D01*
X210409789Y-80332552D01*
X210389641Y-80310409D01*
X210322231Y-80236327D01*
X210249507Y-80156404D01*
X210245456Y-80153205D01*
X210245452Y-80153201D01*
X210066661Y-80012001D01*
X210066656Y-80011998D01*
X210062607Y-80008800D01*
X210058091Y-80006307D01*
X210058088Y-80006305D01*
X209858633Y-79896200D01*
X209858629Y-79896198D01*
X209854109Y-79893703D01*
X209849240Y-79891979D01*
X209849236Y-79891977D01*
X209634488Y-79815930D01*
X209634484Y-79815929D01*
X209629613Y-79814204D01*
X209624523Y-79813297D01*
X209624518Y-79813296D01*
X209497197Y-79790618D01*
X209395147Y-79772440D01*
X209306020Y-79771351D01*
X209162178Y-79769593D01*
X209162176Y-79769593D01*
X209157008Y-79769530D01*
X208921592Y-79805554D01*
X208695221Y-79879543D01*
X208690629Y-79881933D01*
X208690630Y-79881933D01*
X208494750Y-79983902D01*
X208483973Y-79989512D01*
X208479840Y-79992615D01*
X208479837Y-79992617D01*
X208339603Y-80097908D01*
X208293523Y-80132506D01*
X208128985Y-80304685D01*
X208107012Y-80336896D01*
X208093569Y-80356603D01*
X208038657Y-80401605D01*
X207968132Y-80409776D01*
X207904385Y-80378521D01*
X207883689Y-80354038D01*
X207872600Y-80336896D01*
X207872595Y-80336890D01*
X207869789Y-80332552D01*
X207849641Y-80310409D01*
X207782231Y-80236327D01*
X207709507Y-80156404D01*
X207705456Y-80153205D01*
X207705452Y-80153201D01*
X207526661Y-80012001D01*
X207526656Y-80011998D01*
X207522607Y-80008800D01*
X207518091Y-80006307D01*
X207518088Y-80006305D01*
X207318633Y-79896200D01*
X207318629Y-79896198D01*
X207314109Y-79893703D01*
X207309240Y-79891979D01*
X207309236Y-79891977D01*
X207094488Y-79815930D01*
X207094484Y-79815929D01*
X207089613Y-79814204D01*
X207084523Y-79813297D01*
X207084518Y-79813296D01*
X206957197Y-79790618D01*
X206855147Y-79772440D01*
X206766020Y-79771351D01*
X206622178Y-79769593D01*
X206622176Y-79769593D01*
X206617008Y-79769530D01*
X206381592Y-79805554D01*
X206155221Y-79879543D01*
X206150629Y-79881933D01*
X206150630Y-79881933D01*
X205954750Y-79983902D01*
X205943973Y-79989512D01*
X205939840Y-79992615D01*
X205939837Y-79992617D01*
X205799603Y-80097908D01*
X205753523Y-80132506D01*
X205588985Y-80304685D01*
X205567012Y-80336896D01*
X205553569Y-80356603D01*
X205498657Y-80401605D01*
X205428132Y-80409776D01*
X205364385Y-80378521D01*
X205343689Y-80354038D01*
X205332600Y-80336896D01*
X205332595Y-80336890D01*
X205329789Y-80332552D01*
X205309641Y-80310409D01*
X205242231Y-80236327D01*
X205169507Y-80156404D01*
X205165456Y-80153205D01*
X205165452Y-80153201D01*
X204986661Y-80012001D01*
X204986656Y-80011998D01*
X204982607Y-80008800D01*
X204978091Y-80006307D01*
X204978088Y-80006305D01*
X204778633Y-79896200D01*
X204778629Y-79896198D01*
X204774109Y-79893703D01*
X204769240Y-79891979D01*
X204769236Y-79891977D01*
X204554488Y-79815930D01*
X204554484Y-79815929D01*
X204549613Y-79814204D01*
X204544523Y-79813297D01*
X204544518Y-79813296D01*
X204417197Y-79790618D01*
X204315147Y-79772440D01*
X204226020Y-79771351D01*
X204082178Y-79769593D01*
X204082176Y-79769593D01*
X204077008Y-79769530D01*
X203841592Y-79805554D01*
X203615221Y-79879543D01*
X203610629Y-79881933D01*
X203610630Y-79881933D01*
X203414750Y-79983902D01*
X203403973Y-79989512D01*
X203399840Y-79992615D01*
X203399837Y-79992617D01*
X203259603Y-80097908D01*
X203213523Y-80132506D01*
X203048985Y-80304685D01*
X203027012Y-80336896D01*
X203013569Y-80356603D01*
X202958657Y-80401605D01*
X202888132Y-80409776D01*
X202824385Y-80378521D01*
X202803689Y-80354038D01*
X202792600Y-80336896D01*
X202792595Y-80336890D01*
X202789789Y-80332552D01*
X202769641Y-80310409D01*
X202702231Y-80236327D01*
X202629507Y-80156404D01*
X202625456Y-80153205D01*
X202625452Y-80153201D01*
X202446661Y-80012001D01*
X202446656Y-80011998D01*
X202442607Y-80008800D01*
X202438091Y-80006307D01*
X202438088Y-80006305D01*
X202238633Y-79896200D01*
X202238629Y-79896198D01*
X202234109Y-79893703D01*
X202229240Y-79891979D01*
X202229236Y-79891977D01*
X202014488Y-79815930D01*
X202014484Y-79815929D01*
X202009613Y-79814204D01*
X202004523Y-79813297D01*
X202004518Y-79813296D01*
X201877197Y-79790618D01*
X201775147Y-79772440D01*
X201686020Y-79771351D01*
X201542178Y-79769593D01*
X201542176Y-79769593D01*
X201537008Y-79769530D01*
X201301592Y-79805554D01*
X201075221Y-79879543D01*
X201070629Y-79881933D01*
X201070630Y-79881933D01*
X200874750Y-79983902D01*
X200863973Y-79989512D01*
X200859840Y-79992615D01*
X200859837Y-79992617D01*
X200719603Y-80097908D01*
X200673523Y-80132506D01*
X200508985Y-80304685D01*
X200487012Y-80336896D01*
X200473569Y-80356603D01*
X200418657Y-80401605D01*
X200348132Y-80409776D01*
X200284385Y-80378521D01*
X200263689Y-80354038D01*
X200252600Y-80336896D01*
X200252595Y-80336890D01*
X200249789Y-80332552D01*
X200229641Y-80310409D01*
X200162231Y-80236327D01*
X200089507Y-80156404D01*
X200085456Y-80153205D01*
X200085452Y-80153201D01*
X199906661Y-80012001D01*
X199906656Y-80011998D01*
X199902607Y-80008800D01*
X199898091Y-80006307D01*
X199898088Y-80006305D01*
X199698633Y-79896200D01*
X199698629Y-79896198D01*
X199694109Y-79893703D01*
X199689240Y-79891979D01*
X199689236Y-79891977D01*
X199474488Y-79815930D01*
X199474484Y-79815929D01*
X199469613Y-79814204D01*
X199464523Y-79813297D01*
X199464518Y-79813296D01*
X199337197Y-79790618D01*
X199235147Y-79772440D01*
X199146020Y-79771351D01*
X199002178Y-79769593D01*
X199002176Y-79769593D01*
X198997008Y-79769530D01*
X198761592Y-79805554D01*
X198535221Y-79879543D01*
X198530629Y-79881933D01*
X198530630Y-79881933D01*
X198334750Y-79983902D01*
X198323973Y-79989512D01*
X198319840Y-79992615D01*
X198319837Y-79992617D01*
X198179603Y-80097908D01*
X198133523Y-80132506D01*
X197968985Y-80304685D01*
X197947012Y-80336896D01*
X197933569Y-80356603D01*
X197878657Y-80401605D01*
X197808132Y-80409776D01*
X197744385Y-80378521D01*
X197723689Y-80354038D01*
X197712600Y-80336896D01*
X197712595Y-80336890D01*
X197709789Y-80332552D01*
X197689641Y-80310409D01*
X197622231Y-80236327D01*
X197549507Y-80156404D01*
X197545456Y-80153205D01*
X197545452Y-80153201D01*
X197366661Y-80012001D01*
X197366656Y-80011998D01*
X197362607Y-80008800D01*
X197358091Y-80006307D01*
X197358088Y-80006305D01*
X197158633Y-79896200D01*
X197158629Y-79896198D01*
X197154109Y-79893703D01*
X197149240Y-79891979D01*
X197149236Y-79891977D01*
X196934488Y-79815930D01*
X196934484Y-79815929D01*
X196929613Y-79814204D01*
X196924523Y-79813297D01*
X196924518Y-79813296D01*
X196797197Y-79790618D01*
X196695147Y-79772440D01*
X196606020Y-79771351D01*
X196462178Y-79769593D01*
X196462176Y-79769593D01*
X196457008Y-79769530D01*
X196221592Y-79805554D01*
X195995221Y-79879543D01*
X195990629Y-79881933D01*
X195990630Y-79881933D01*
X195794750Y-79983902D01*
X195783973Y-79989512D01*
X195779840Y-79992615D01*
X195779837Y-79992617D01*
X195639603Y-80097908D01*
X195593523Y-80132506D01*
X195428985Y-80304685D01*
X195407012Y-80336896D01*
X195393569Y-80356603D01*
X195338657Y-80401605D01*
X195268132Y-80409776D01*
X195204385Y-80378521D01*
X195183689Y-80354038D01*
X195172600Y-80336896D01*
X195172595Y-80336890D01*
X195169789Y-80332552D01*
X195149641Y-80310409D01*
X195082231Y-80236327D01*
X195009507Y-80156404D01*
X195005456Y-80153205D01*
X195005452Y-80153201D01*
X194826661Y-80012001D01*
X194826656Y-80011998D01*
X194822607Y-80008800D01*
X194818091Y-80006307D01*
X194818088Y-80006305D01*
X194618633Y-79896200D01*
X194618629Y-79896198D01*
X194614109Y-79893703D01*
X194609240Y-79891979D01*
X194609236Y-79891977D01*
X194394488Y-79815930D01*
X194394484Y-79815929D01*
X194389613Y-79814204D01*
X194384523Y-79813297D01*
X194384518Y-79813296D01*
X194257197Y-79790618D01*
X194155147Y-79772440D01*
X194066020Y-79771351D01*
X193922178Y-79769593D01*
X193922176Y-79769593D01*
X193917008Y-79769530D01*
X193681592Y-79805554D01*
X193455221Y-79879543D01*
X193450629Y-79881933D01*
X193450630Y-79881933D01*
X193254750Y-79983902D01*
X193243973Y-79989512D01*
X193239840Y-79992615D01*
X193239837Y-79992617D01*
X193132775Y-80073002D01*
X193066290Y-80097908D01*
X192996895Y-80082916D01*
X192946621Y-80032785D01*
X192931160Y-79969161D01*
X192931565Y-79952616D01*
X192931565Y-79952613D01*
X192931647Y-79949254D01*
X192912133Y-79711898D01*
X192854114Y-79480917D01*
X192759150Y-79262513D01*
X192742077Y-79236121D01*
X192632599Y-79066896D01*
X192629789Y-79062552D01*
X192469507Y-78886404D01*
X192465456Y-78883205D01*
X192465452Y-78883201D01*
X192331731Y-78777596D01*
X192290668Y-78719679D01*
X192287436Y-78648756D01*
X192323061Y-78587345D01*
X192336654Y-78576136D01*
X192412197Y-78522252D01*
X192412204Y-78522246D01*
X192416403Y-78519251D01*
X192585099Y-78351143D01*
X192724073Y-78157740D01*
X192756481Y-78092169D01*
X192827300Y-77948878D01*
X192827301Y-77948876D01*
X192829594Y-77944236D01*
X192898826Y-77716365D01*
X192899501Y-77711239D01*
X192929475Y-77483567D01*
X192929475Y-77483563D01*
X192929912Y-77480246D01*
X192931647Y-77409254D01*
X192912133Y-77171898D01*
X192854114Y-76940917D01*
X192759150Y-76722513D01*
X192742077Y-76696121D01*
X192632599Y-76526896D01*
X192629789Y-76522552D01*
X192469507Y-76346404D01*
X192465456Y-76343205D01*
X192465452Y-76343201D01*
X192331731Y-76237596D01*
X192290668Y-76179679D01*
X192287436Y-76108756D01*
X192323061Y-76047345D01*
X192336654Y-76036136D01*
X192412197Y-75982252D01*
X192412204Y-75982246D01*
X192416403Y-75979251D01*
X192585099Y-75811143D01*
X192724073Y-75617740D01*
X192756481Y-75552169D01*
X192827300Y-75408878D01*
X192827301Y-75408876D01*
X192829594Y-75404236D01*
X192898826Y-75176365D01*
X192899501Y-75171239D01*
X192929475Y-74943567D01*
X192929475Y-74943563D01*
X192929912Y-74940246D01*
X192931647Y-74869254D01*
X192912133Y-74631898D01*
X192854114Y-74400917D01*
X192774030Y-74216735D01*
X192761210Y-74187250D01*
X192761208Y-74187247D01*
X192759150Y-74182513D01*
X192748154Y-74165515D01*
X192645272Y-74006485D01*
X192629789Y-73982552D01*
X192469507Y-73806404D01*
X192465456Y-73803205D01*
X192465452Y-73803201D01*
X192354759Y-73715782D01*
X192331730Y-73697595D01*
X192290668Y-73639679D01*
X192287436Y-73568756D01*
X192323061Y-73507345D01*
X192336654Y-73496136D01*
X192412197Y-73442252D01*
X192412204Y-73442246D01*
X192416403Y-73439251D01*
X192585099Y-73271143D01*
X192724073Y-73077740D01*
X192756481Y-73012169D01*
X192827300Y-72868878D01*
X192827301Y-72868876D01*
X192829594Y-72864236D01*
X192898826Y-72636365D01*
X192899501Y-72631239D01*
X192929475Y-72403567D01*
X192929475Y-72403563D01*
X192929912Y-72400246D01*
X192931647Y-72329254D01*
X192912133Y-72091898D01*
X192854114Y-71860917D01*
X192770934Y-71669614D01*
X192761210Y-71647250D01*
X192761208Y-71647247D01*
X192759150Y-71642513D01*
X192750137Y-71628580D01*
X192632599Y-71446896D01*
X192629789Y-71442552D01*
X192469507Y-71266404D01*
X192465456Y-71263205D01*
X192465452Y-71263201D01*
X192323315Y-71150949D01*
X192282252Y-71093032D01*
X192279020Y-71022109D01*
X192300789Y-70977367D01*
X192293428Y-70963510D01*
X191491194Y-70161275D01*
X191477251Y-70153662D01*
X191475417Y-70153793D01*
X191468803Y-70158044D01*
X190659466Y-70967382D01*
X190652709Y-70979757D01*
X190653143Y-70980337D01*
X190677955Y-71046857D01*
X190662864Y-71116231D01*
X190627929Y-71156607D01*
X190517658Y-71239401D01*
X190513523Y-71242506D01*
X190490686Y-71266404D01*
X190357867Y-71405391D01*
X190348985Y-71414685D01*
X190214777Y-71611426D01*
X190194792Y-71654481D01*
X190141109Y-71770132D01*
X190114505Y-71827445D01*
X190050860Y-72056939D01*
X190050311Y-72062073D01*
X190050311Y-72062075D01*
X190046332Y-72099307D01*
X190025553Y-72293748D01*
X190025850Y-72298900D01*
X190025850Y-72298904D01*
X190034461Y-72448236D01*
X190039262Y-72531509D01*
X190040399Y-72536555D01*
X190040400Y-72536561D01*
X190064159Y-72641985D01*
X190091620Y-72763839D01*
X190093562Y-72768621D01*
X190093563Y-72768625D01*
X190179276Y-72979711D01*
X190181220Y-72984498D01*
X190305657Y-73187560D01*
X190461587Y-73367571D01*
X190551541Y-73442252D01*
X190625943Y-73504022D01*
X190665578Y-73562925D01*
X190667076Y-73633905D01*
X190629961Y-73694428D01*
X190621111Y-73701726D01*
X190517658Y-73779401D01*
X190513523Y-73782506D01*
X190504496Y-73791952D01*
X190357867Y-73945391D01*
X190348985Y-73954685D01*
X190346071Y-73958957D01*
X190346070Y-73958958D01*
X190275066Y-74063046D01*
X190214777Y-74151426D01*
X190179170Y-74228136D01*
X190146657Y-74298180D01*
X190114505Y-74367445D01*
X190050860Y-74596939D01*
X190050311Y-74602073D01*
X190050311Y-74602075D01*
X190044832Y-74653343D01*
X190025553Y-74833748D01*
X190025850Y-74838900D01*
X190025850Y-74838904D01*
X190034461Y-74988236D01*
X190039262Y-75071509D01*
X190040399Y-75076555D01*
X190040400Y-75076561D01*
X190064159Y-75181985D01*
X190091620Y-75303839D01*
X190093562Y-75308621D01*
X190093563Y-75308625D01*
X190179276Y-75519711D01*
X190181220Y-75524498D01*
X190305657Y-75727560D01*
X190461587Y-75907571D01*
X190551541Y-75982252D01*
X190625943Y-76044022D01*
X190665578Y-76102925D01*
X190667076Y-76173905D01*
X190629961Y-76234428D01*
X190621111Y-76241726D01*
X190517658Y-76319401D01*
X190513523Y-76322506D01*
X190504496Y-76331952D01*
X190357867Y-76485391D01*
X190348985Y-76494685D01*
X190214777Y-76691426D01*
X190212598Y-76696121D01*
X190146657Y-76838180D01*
X190114505Y-76907445D01*
X190050860Y-77136939D01*
X190050311Y-77142073D01*
X190050311Y-77142075D01*
X190044832Y-77193343D01*
X190025553Y-77373748D01*
X190025850Y-77378900D01*
X190025850Y-77378904D01*
X190031814Y-77482340D01*
X190039262Y-77611509D01*
X190040399Y-77616555D01*
X190040400Y-77616561D01*
X190073494Y-77763410D01*
X190091620Y-77843839D01*
X190093562Y-77848621D01*
X190093563Y-77848625D01*
X190150479Y-77988793D01*
X190181220Y-78064498D01*
X190305657Y-78267560D01*
X190461587Y-78447571D01*
X190551541Y-78522252D01*
X190625943Y-78584022D01*
X190665578Y-78642925D01*
X190667076Y-78713905D01*
X190629961Y-78774428D01*
X190621111Y-78781726D01*
X190517658Y-78859401D01*
X190513523Y-78862506D01*
X190504496Y-78871952D01*
X190357867Y-79025391D01*
X190348985Y-79034685D01*
X190214777Y-79231426D01*
X190212598Y-79236121D01*
X190146657Y-79378180D01*
X190114505Y-79447445D01*
X190050860Y-79676939D01*
X190050311Y-79682073D01*
X190050311Y-79682075D01*
X190044832Y-79733343D01*
X190025553Y-79913748D01*
X187958841Y-79913748D01*
X187949465Y-79799701D01*
X187895044Y-79583042D01*
X187805967Y-79378180D01*
X187711028Y-79231426D01*
X187687435Y-79194957D01*
X187687433Y-79194954D01*
X187684627Y-79190617D01*
X187534283Y-79025391D01*
X187530232Y-79022192D01*
X187530228Y-79022188D01*
X187363027Y-78890140D01*
X187363023Y-78890138D01*
X187358972Y-78886938D01*
X187317666Y-78864136D01*
X187267697Y-78813704D01*
X187252925Y-78744261D01*
X187278041Y-78677856D01*
X187305393Y-78651249D01*
X187349216Y-78619990D01*
X187484473Y-78523513D01*
X187642709Y-78365829D01*
X187702207Y-78283029D01*
X187770048Y-78188617D01*
X187773066Y-78184417D01*
X187784176Y-78161939D01*
X187869749Y-77988793D01*
X187869750Y-77988791D01*
X187872043Y-77984151D01*
X187936983Y-77770409D01*
X187966142Y-77548930D01*
X187967769Y-77482340D01*
X187949465Y-77259701D01*
X187895044Y-77043042D01*
X187805967Y-76838180D01*
X187711028Y-76691426D01*
X187687435Y-76654957D01*
X187687433Y-76654954D01*
X187684627Y-76650617D01*
X187534283Y-76485391D01*
X187530232Y-76482192D01*
X187530228Y-76482188D01*
X187363027Y-76350140D01*
X187363023Y-76350138D01*
X187358972Y-76346938D01*
X187317666Y-76324136D01*
X187267697Y-76273704D01*
X187252925Y-76204261D01*
X187278041Y-76137856D01*
X187305393Y-76111249D01*
X187349216Y-76079990D01*
X187484473Y-75983513D01*
X187537634Y-75930538D01*
X187639048Y-75829477D01*
X187642709Y-75825829D01*
X187702207Y-75743029D01*
X187770048Y-75648617D01*
X187773066Y-75644417D01*
X187784176Y-75621939D01*
X187869749Y-75448793D01*
X187869750Y-75448791D01*
X187872043Y-75444151D01*
X187936983Y-75230409D01*
X187966142Y-75008930D01*
X187967472Y-74954516D01*
X187967687Y-74945705D01*
X187967687Y-74945701D01*
X187967769Y-74942340D01*
X187949465Y-74719701D01*
X187895044Y-74503042D01*
X187805967Y-74298180D01*
X187766519Y-74237202D01*
X187687435Y-74114957D01*
X187687433Y-74114954D01*
X187684627Y-74110617D01*
X187534283Y-73945391D01*
X187530232Y-73942192D01*
X187530228Y-73942188D01*
X187363027Y-73810140D01*
X187363023Y-73810138D01*
X187358972Y-73806938D01*
X187317666Y-73784136D01*
X187267697Y-73733704D01*
X187252925Y-73664261D01*
X187278041Y-73597856D01*
X187305393Y-73571249D01*
X187349216Y-73539990D01*
X187484473Y-73443513D01*
X187537634Y-73390538D01*
X187639048Y-73289477D01*
X187642709Y-73285829D01*
X187702207Y-73203029D01*
X187770048Y-73108617D01*
X187773066Y-73104417D01*
X187784176Y-73081939D01*
X187869749Y-72908793D01*
X187869750Y-72908791D01*
X187872043Y-72904151D01*
X187936983Y-72690409D01*
X187966142Y-72468930D01*
X187967472Y-72414516D01*
X187967687Y-72405705D01*
X187967687Y-72405701D01*
X187967769Y-72402340D01*
X187949465Y-72179701D01*
X187895044Y-71963042D01*
X187805967Y-71758180D01*
X187745530Y-71664758D01*
X187687435Y-71574957D01*
X187687433Y-71574954D01*
X187684627Y-71570617D01*
X187534283Y-71405391D01*
X187530232Y-71402192D01*
X187530228Y-71402188D01*
X187363027Y-71270140D01*
X187363023Y-71270138D01*
X187358972Y-71266938D01*
X187352203Y-71263201D01*
X187321883Y-71246464D01*
X187317182Y-71243869D01*
X187267211Y-71193437D01*
X187252439Y-71123994D01*
X187277555Y-71057588D01*
X187304907Y-71030981D01*
X187479941Y-70906132D01*
X187487813Y-70899479D01*
X187638665Y-70749152D01*
X187645343Y-70741305D01*
X187769616Y-70568360D01*
X187774926Y-70559523D01*
X187869283Y-70368607D01*
X187873082Y-70359012D01*
X187934990Y-70155250D01*
X187937168Y-70145177D01*
X187938599Y-70134302D01*
X187936388Y-70120118D01*
X187923230Y-70116340D01*
X185287838Y-70116340D01*
X185274307Y-70120313D01*
X185272870Y-70130306D01*
X185303178Y-70264786D01*
X185306258Y-70274615D01*
X185386383Y-70471943D01*
X185391026Y-70481134D01*
X185502307Y-70662728D01*
X185508390Y-70671039D01*
X185647826Y-70832007D01*
X185655193Y-70839223D01*
X185819047Y-70975256D01*
X185827494Y-70981171D01*
X185896582Y-71021543D01*
X185945306Y-71073182D01*
X185958377Y-71142965D01*
X185931646Y-71208736D01*
X185891197Y-71242092D01*
X185878220Y-71248847D01*
X185874087Y-71251950D01*
X185874084Y-71251952D01*
X185727896Y-71361713D01*
X185699578Y-71382975D01*
X185696006Y-71386713D01*
X185558947Y-71530137D01*
X185545242Y-71544478D01*
X185542328Y-71548750D01*
X185542327Y-71548751D01*
X185486487Y-71630609D01*
X185419356Y-71729020D01*
X185400273Y-71770132D01*
X185338796Y-71902573D01*
X185325301Y-71931645D01*
X185265602Y-72146910D01*
X185241864Y-72369035D01*
X185242161Y-72374188D01*
X185242161Y-72374191D01*
X185247624Y-72468930D01*
X185254723Y-72592055D01*
X185255860Y-72597101D01*
X185255861Y-72597107D01*
X185265823Y-72641309D01*
X185303835Y-72809979D01*
X185342074Y-72904151D01*
X185376488Y-72988902D01*
X185387879Y-73016956D01*
X185435960Y-73095418D01*
X185494817Y-73191463D01*
X185504600Y-73207428D01*
X185650863Y-73376278D01*
X185822739Y-73518972D01*
X185878194Y-73551377D01*
X185896058Y-73561816D01*
X185944782Y-73613454D01*
X185957853Y-73683237D01*
X185931122Y-73749009D01*
X185890668Y-73782367D01*
X185878220Y-73788847D01*
X185874087Y-73791950D01*
X185874084Y-73791952D01*
X185705309Y-73918672D01*
X185699578Y-73922975D01*
X185696006Y-73926713D01*
X185557785Y-74071353D01*
X185545242Y-74084478D01*
X185419356Y-74269020D01*
X185403689Y-74302772D01*
X185334384Y-74452078D01*
X185325301Y-74471645D01*
X185265602Y-74686910D01*
X185241864Y-74909035D01*
X185242161Y-74914188D01*
X185242161Y-74914191D01*
X185247624Y-75008930D01*
X185254723Y-75132055D01*
X185255860Y-75137101D01*
X185255861Y-75137107D01*
X185265823Y-75181309D01*
X185303835Y-75349979D01*
X185342074Y-75444151D01*
X185376488Y-75528902D01*
X185387879Y-75556956D01*
X185435960Y-75635418D01*
X185494817Y-75731463D01*
X185504600Y-75747428D01*
X185650863Y-75916278D01*
X185822739Y-76058972D01*
X185878194Y-76091377D01*
X185896058Y-76101816D01*
X185944782Y-76153454D01*
X185957853Y-76223237D01*
X185931122Y-76289009D01*
X185890668Y-76322367D01*
X185878220Y-76328847D01*
X185874087Y-76331950D01*
X185874084Y-76331952D01*
X185703713Y-76459870D01*
X185699578Y-76462975D01*
X185545242Y-76624478D01*
X185419356Y-76809020D01*
X185325301Y-77011645D01*
X185265602Y-77226910D01*
X185241864Y-77449035D01*
X185242161Y-77454188D01*
X185242161Y-77454191D01*
X185247624Y-77548930D01*
X185254723Y-77672055D01*
X185255860Y-77677101D01*
X185255861Y-77677107D01*
X185265823Y-77721309D01*
X185303835Y-77889979D01*
X185342074Y-77984151D01*
X185376488Y-78068902D01*
X185387879Y-78096956D01*
X185438632Y-78179778D01*
X185494817Y-78271463D01*
X185504600Y-78287428D01*
X185650863Y-78456278D01*
X185822739Y-78598972D01*
X185893208Y-78640151D01*
X185896058Y-78641816D01*
X185944782Y-78693454D01*
X185957853Y-78763237D01*
X185931122Y-78829009D01*
X185890668Y-78862367D01*
X185878220Y-78868847D01*
X185874087Y-78871950D01*
X185874084Y-78871952D01*
X185849860Y-78890140D01*
X185699578Y-79002975D01*
X185545242Y-79164478D01*
X185419356Y-79349020D01*
X185325301Y-79551645D01*
X185265602Y-79766910D01*
X185241864Y-79989035D01*
X178168037Y-79989035D01*
X178168037Y-78270478D01*
X178161282Y-78208296D01*
X178110152Y-78071907D01*
X178022798Y-77955351D01*
X177906242Y-77867997D01*
X177769853Y-77816867D01*
X177707671Y-77810112D01*
X175811403Y-77810112D01*
X175749221Y-77816867D01*
X175612832Y-77867997D01*
X175496276Y-77955351D01*
X175408922Y-78071907D01*
X175357792Y-78208296D01*
X175351037Y-78270478D01*
X175351037Y-80166746D01*
X160528500Y-80166746D01*
X160528500Y-73268808D01*
X173947289Y-73268808D01*
X173956124Y-73372940D01*
X173957914Y-73383412D01*
X174013130Y-73596150D01*
X174016665Y-73606190D01*
X174106937Y-73806585D01*
X174112106Y-73815871D01*
X174234850Y-73998190D01*
X174241519Y-74006485D01*
X174393228Y-74165515D01*
X174401186Y-74172556D01*
X174577525Y-74303756D01*
X174586562Y-74309360D01*
X174782484Y-74408972D01*
X174792335Y-74412972D01*
X175002240Y-74478149D01*
X175012624Y-74480432D01*
X175028043Y-74482476D01*
X175042207Y-74480280D01*
X175046000Y-74467093D01*
X175046000Y-74464807D01*
X175554000Y-74464807D01*
X175557973Y-74478338D01*
X175568580Y-74479863D01*
X175686421Y-74455138D01*
X175696617Y-74452078D01*
X175901029Y-74371352D01*
X175910561Y-74366621D01*
X176098462Y-74252599D01*
X176107052Y-74246335D01*
X176273052Y-74102288D01*
X176280470Y-74094659D01*
X176306391Y-74063046D01*
X176365051Y-74023051D01*
X176436021Y-74021119D01*
X176496770Y-74057863D01*
X176510969Y-74076632D01*
X176601522Y-74222963D01*
X176726697Y-74347920D01*
X176732927Y-74351760D01*
X176732928Y-74351761D01*
X176870090Y-74436309D01*
X176877262Y-74440730D01*
X176920701Y-74455138D01*
X177038611Y-74494247D01*
X177038613Y-74494247D01*
X177045139Y-74496412D01*
X177051975Y-74497112D01*
X177051978Y-74497113D01*
X177095031Y-74501524D01*
X177149600Y-74507115D01*
X178450400Y-74507115D01*
X178453646Y-74506778D01*
X178453650Y-74506778D01*
X178549308Y-74496853D01*
X178549312Y-74496852D01*
X178556166Y-74496141D01*
X178562702Y-74493960D01*
X178562704Y-74493960D01*
X178694806Y-74449887D01*
X178723946Y-74440165D01*
X178874348Y-74347093D01*
X178999305Y-74221918D01*
X179029732Y-74172556D01*
X179088275Y-74077583D01*
X179088276Y-74077581D01*
X179092115Y-74071353D01*
X179132628Y-73949210D01*
X179145632Y-73910004D01*
X179145632Y-73910002D01*
X179147797Y-73903476D01*
X179148680Y-73894863D01*
X179157360Y-73810140D01*
X179158500Y-73799015D01*
X179158500Y-72198215D01*
X179156579Y-72179701D01*
X179148238Y-72099307D01*
X179148237Y-72099303D01*
X179147526Y-72092449D01*
X179137393Y-72062075D01*
X179093868Y-71931617D01*
X179091550Y-71924669D01*
X178998478Y-71774267D01*
X178873303Y-71649310D01*
X178867072Y-71645469D01*
X178728968Y-71560340D01*
X178728966Y-71560339D01*
X178722738Y-71556500D01*
X178603498Y-71516950D01*
X178561389Y-71502983D01*
X178561387Y-71502983D01*
X178554861Y-71500818D01*
X178548025Y-71500118D01*
X178548022Y-71500117D01*
X178504969Y-71495706D01*
X178450400Y-71490115D01*
X177149600Y-71490115D01*
X177146354Y-71490452D01*
X177146350Y-71490452D01*
X177050692Y-71500377D01*
X177050688Y-71500378D01*
X177043834Y-71501089D01*
X177037298Y-71503270D01*
X177037296Y-71503270D01*
X176906741Y-71546827D01*
X176876054Y-71557065D01*
X176725652Y-71650137D01*
X176720479Y-71655319D01*
X176687985Y-71687870D01*
X176600695Y-71775312D01*
X176596855Y-71781542D01*
X176596854Y-71781543D01*
X176510648Y-71921395D01*
X176457876Y-71968888D01*
X176387804Y-71980312D01*
X176322680Y-71952038D01*
X176312218Y-71942251D01*
X176206766Y-71831709D01*
X176198814Y-71824674D01*
X176022475Y-71693474D01*
X176013438Y-71687870D01*
X175817516Y-71588258D01*
X175807665Y-71584258D01*
X175597760Y-71519081D01*
X175587376Y-71516798D01*
X175571957Y-71514754D01*
X175557793Y-71516950D01*
X175554000Y-71530137D01*
X175554000Y-74464807D01*
X175046000Y-74464807D01*
X175046000Y-73270730D01*
X175041525Y-73255491D01*
X175040135Y-73254286D01*
X175032452Y-73252615D01*
X173964030Y-73252615D01*
X173949352Y-73256925D01*
X173947289Y-73268808D01*
X160528500Y-73268808D01*
X160528500Y-72728991D01*
X173942732Y-72728991D01*
X173946475Y-72741739D01*
X173947865Y-72742944D01*
X173955548Y-72744615D01*
X175027885Y-72744615D01*
X175043124Y-72740140D01*
X175044329Y-72738750D01*
X175046000Y-72731067D01*
X175046000Y-71532423D01*
X175042027Y-71518892D01*
X175031420Y-71517367D01*
X174913579Y-71542092D01*
X174903383Y-71545152D01*
X174698971Y-71625878D01*
X174689439Y-71630609D01*
X174501538Y-71744631D01*
X174492948Y-71750895D01*
X174326948Y-71894942D01*
X174319528Y-71902573D01*
X174180174Y-72072526D01*
X174174150Y-72081293D01*
X174065424Y-72272297D01*
X174060959Y-72281961D01*
X173985969Y-72488556D01*
X173983198Y-72498823D01*
X173943877Y-72716270D01*
X173942944Y-72724499D01*
X173942732Y-72728991D01*
X160528500Y-72728991D01*
X160528500Y-70315543D01*
X162509085Y-70315543D01*
X162509422Y-70318789D01*
X162509422Y-70318793D01*
X162514591Y-70368607D01*
X162520059Y-70421309D01*
X162522240Y-70427845D01*
X162522240Y-70427847D01*
X162557271Y-70532846D01*
X162576035Y-70589089D01*
X162669107Y-70739491D01*
X162794282Y-70864448D01*
X162800512Y-70868288D01*
X162800513Y-70868289D01*
X162937675Y-70952837D01*
X162944847Y-70957258D01*
X163016943Y-70981171D01*
X163106196Y-71010775D01*
X163106198Y-71010775D01*
X163112724Y-71012940D01*
X163119560Y-71013640D01*
X163119563Y-71013641D01*
X163162314Y-71018021D01*
X163217185Y-71023643D01*
X164817985Y-71023643D01*
X164821231Y-71023306D01*
X164821235Y-71023306D01*
X164916893Y-71013381D01*
X164916897Y-71013380D01*
X164923751Y-71012669D01*
X164930287Y-71010488D01*
X164930289Y-71010488D01*
X165071098Y-70963510D01*
X165091531Y-70956693D01*
X165241933Y-70863621D01*
X165366890Y-70738446D01*
X165370731Y-70732215D01*
X165455860Y-70594111D01*
X165455861Y-70594109D01*
X165459700Y-70587881D01*
X165515382Y-70420004D01*
X165526085Y-70315543D01*
X165526085Y-69758916D01*
X190026352Y-69758916D01*
X190039461Y-69986271D01*
X190040897Y-69996491D01*
X190090963Y-70218647D01*
X190094042Y-70228475D01*
X190179721Y-70439477D01*
X190184374Y-70448688D01*
X190279536Y-70603977D01*
X190289994Y-70613439D01*
X190298770Y-70609656D01*
X191106362Y-69802065D01*
X191112739Y-69790386D01*
X191842791Y-69790386D01*
X191842922Y-69792220D01*
X191847173Y-69798834D01*
X192653209Y-70604869D01*
X192665215Y-70611425D01*
X192676954Y-70602456D01*
X192720624Y-70541683D01*
X192725934Y-70532846D01*
X192826833Y-70328692D01*
X192830632Y-70319097D01*
X192896832Y-70101211D01*
X192899011Y-70091130D01*
X192928974Y-69863542D01*
X192929493Y-69856869D01*
X192931063Y-69792619D01*
X192930869Y-69785900D01*
X192912062Y-69557141D01*
X192910377Y-69546961D01*
X192854898Y-69326091D01*
X192851578Y-69316340D01*
X192760767Y-69107487D01*
X192755901Y-69098412D01*
X192676391Y-68975510D01*
X192665705Y-68966306D01*
X192656138Y-68970710D01*
X191850404Y-69776443D01*
X191842791Y-69790386D01*
X191112739Y-69790386D01*
X191113975Y-69788122D01*
X191113844Y-69786288D01*
X191109593Y-69779674D01*
X190303603Y-68973685D01*
X190292071Y-68967388D01*
X190279789Y-68977011D01*
X190218130Y-69067400D01*
X190213037Y-69076364D01*
X190117151Y-69282933D01*
X190113594Y-69292601D01*
X190052735Y-69512051D01*
X190050804Y-69522170D01*
X190026604Y-69748627D01*
X190026352Y-69758916D01*
X165526085Y-69758916D01*
X165526085Y-69014743D01*
X165524665Y-69001057D01*
X165515823Y-68915835D01*
X165515822Y-68915831D01*
X165515111Y-68908977D01*
X165502677Y-68871706D01*
X165461453Y-68748145D01*
X165459135Y-68741197D01*
X165366063Y-68590795D01*
X165240888Y-68465838D01*
X165094805Y-68375790D01*
X165047312Y-68323019D01*
X165035888Y-68252947D01*
X165051491Y-68217009D01*
X185246614Y-68217009D01*
X185246984Y-68223830D01*
X185252508Y-68274692D01*
X185256134Y-68289944D01*
X185301289Y-68410394D01*
X185309827Y-68425989D01*
X185386328Y-68528064D01*
X185398889Y-68540625D01*
X185500964Y-68617126D01*
X185516559Y-68625664D01*
X185625950Y-68666673D01*
X185682714Y-68709315D01*
X185707414Y-68775876D01*
X185692207Y-68845225D01*
X185672814Y-68871706D01*
X185549203Y-69001057D01*
X185542717Y-69009067D01*
X185422711Y-69184989D01*
X185417613Y-69193963D01*
X185327951Y-69387123D01*
X185324388Y-69396810D01*
X185269002Y-69596523D01*
X185270525Y-69604947D01*
X185282905Y-69608340D01*
X186332498Y-69608340D01*
X186347737Y-69603865D01*
X186348942Y-69602475D01*
X186350613Y-69594792D01*
X186350613Y-69590225D01*
X186858613Y-69590225D01*
X186863088Y-69605464D01*
X186864478Y-69606669D01*
X186872161Y-69608340D01*
X187922957Y-69608340D01*
X187936488Y-69604367D01*
X187937793Y-69595287D01*
X187895827Y-69428215D01*
X187892507Y-69418464D01*
X187807585Y-69223154D01*
X187802718Y-69214079D01*
X187687039Y-69035266D01*
X187680749Y-69027097D01*
X187536544Y-68868619D01*
X187505492Y-68804773D01*
X187513886Y-68734274D01*
X187559063Y-68679506D01*
X187585507Y-68665837D01*
X187692667Y-68625664D01*
X187708262Y-68617126D01*
X187810337Y-68540625D01*
X187822898Y-68528064D01*
X187889080Y-68439757D01*
X190652709Y-68439757D01*
X190658110Y-68446972D01*
X190682922Y-68513492D01*
X190667831Y-68582866D01*
X190658220Y-68597846D01*
X190655464Y-68601538D01*
X190662208Y-68613868D01*
X191465572Y-69417233D01*
X191479515Y-69424846D01*
X191481349Y-69424715D01*
X191487963Y-69420464D01*
X192295714Y-68612712D01*
X192302731Y-68599861D01*
X192296073Y-68590723D01*
X192272123Y-68523888D01*
X192288110Y-68454714D01*
X192298803Y-68438714D01*
X192300414Y-68436662D01*
X192293428Y-68423510D01*
X191491194Y-67621275D01*
X191477251Y-67613662D01*
X191475417Y-67613793D01*
X191468803Y-67618044D01*
X190659466Y-68427382D01*
X190652709Y-68439757D01*
X187889080Y-68439757D01*
X187899399Y-68425989D01*
X187907937Y-68410394D01*
X187953091Y-68289946D01*
X187956718Y-68274691D01*
X187962244Y-68223826D01*
X187962613Y-68217012D01*
X187962613Y-67594455D01*
X187958138Y-67579216D01*
X187956748Y-67578011D01*
X187949065Y-67576340D01*
X186876728Y-67576340D01*
X186861489Y-67580815D01*
X186860284Y-67582205D01*
X186858613Y-67589888D01*
X186858613Y-69590225D01*
X186350613Y-69590225D01*
X186350613Y-67594455D01*
X186346138Y-67579216D01*
X186344748Y-67578011D01*
X186337065Y-67576340D01*
X185264729Y-67576340D01*
X185249490Y-67580815D01*
X185248285Y-67582205D01*
X185246614Y-67589888D01*
X185246614Y-68217009D01*
X165051491Y-68217009D01*
X165064162Y-68187823D01*
X165073949Y-68177361D01*
X165184491Y-68071909D01*
X165191526Y-68063957D01*
X165322726Y-67887618D01*
X165328330Y-67878581D01*
X165427942Y-67682659D01*
X165431942Y-67672808D01*
X165497119Y-67462903D01*
X165499402Y-67452519D01*
X165501446Y-67437100D01*
X165499250Y-67422936D01*
X165486063Y-67419143D01*
X162551393Y-67419143D01*
X162537862Y-67423116D01*
X162536337Y-67433723D01*
X162561062Y-67551564D01*
X162564122Y-67561760D01*
X162644848Y-67766172D01*
X162649579Y-67775704D01*
X162763601Y-67963605D01*
X162769865Y-67972195D01*
X162913912Y-68138195D01*
X162921541Y-68145613D01*
X162953154Y-68171534D01*
X162993149Y-68230194D01*
X162995081Y-68301164D01*
X162958337Y-68361913D01*
X162939568Y-68376112D01*
X162793237Y-68466665D01*
X162668280Y-68591840D01*
X162664440Y-68598070D01*
X162664439Y-68598071D01*
X162614242Y-68679506D01*
X162575470Y-68742405D01*
X162573166Y-68749352D01*
X162524227Y-68896900D01*
X162519788Y-68910282D01*
X162509085Y-69014743D01*
X162509085Y-70315543D01*
X160528500Y-70315543D01*
X160528500Y-67218916D01*
X190026352Y-67218916D01*
X190039461Y-67446271D01*
X190040897Y-67456491D01*
X190090963Y-67678647D01*
X190094042Y-67688475D01*
X190179721Y-67899477D01*
X190184374Y-67908688D01*
X190279536Y-68063977D01*
X190289994Y-68073439D01*
X190298770Y-68069656D01*
X191106362Y-67262065D01*
X191113975Y-67248122D01*
X191113844Y-67246288D01*
X191109593Y-67239674D01*
X190303603Y-66433685D01*
X190292071Y-66427388D01*
X190279789Y-66437011D01*
X190218130Y-66527400D01*
X190213037Y-66536364D01*
X190117151Y-66742933D01*
X190113594Y-66752601D01*
X190052735Y-66972051D01*
X190050804Y-66982170D01*
X190026604Y-67208627D01*
X190026352Y-67218916D01*
X160528500Y-67218916D01*
X160528500Y-67050225D01*
X185246613Y-67050225D01*
X185251088Y-67065464D01*
X185252478Y-67066669D01*
X185260161Y-67068340D01*
X186332498Y-67068340D01*
X186347737Y-67063865D01*
X186348942Y-67062475D01*
X186350613Y-67054792D01*
X186350613Y-67050225D01*
X186858613Y-67050225D01*
X186863088Y-67065464D01*
X186864478Y-67066669D01*
X186872161Y-67068340D01*
X187944497Y-67068340D01*
X187959736Y-67063865D01*
X187960941Y-67062475D01*
X187962612Y-67054792D01*
X187962612Y-66427671D01*
X187962242Y-66420850D01*
X187956718Y-66369988D01*
X187953092Y-66354736D01*
X187907937Y-66234286D01*
X187899399Y-66218691D01*
X187822898Y-66116616D01*
X187810337Y-66104055D01*
X187753608Y-66061539D01*
X190655464Y-66061539D01*
X190662208Y-66073868D01*
X191478383Y-66890044D01*
X192653206Y-68064866D01*
X192665215Y-68071423D01*
X192676955Y-68062455D01*
X192720624Y-68001683D01*
X192725934Y-67992846D01*
X192826833Y-67788692D01*
X192830632Y-67779097D01*
X192896832Y-67561211D01*
X192899011Y-67551130D01*
X192928974Y-67323542D01*
X192929493Y-67316869D01*
X192931063Y-67252619D01*
X192930869Y-67245898D01*
X192930102Y-67236565D01*
X192944455Y-67167034D01*
X192994122Y-67116302D01*
X193063332Y-67100475D01*
X193130112Y-67124578D01*
X193136162Y-67129297D01*
X193184825Y-67169698D01*
X193189277Y-67172300D01*
X193189282Y-67172303D01*
X193379200Y-67283282D01*
X193390448Y-67289855D01*
X193612935Y-67374814D01*
X193618001Y-67375845D01*
X193618002Y-67375845D01*
X193672339Y-67386900D01*
X193846311Y-67422295D01*
X193980504Y-67427216D01*
X194079143Y-67430833D01*
X194079147Y-67430833D01*
X194084307Y-67431022D01*
X194089427Y-67430366D01*
X194089429Y-67430366D01*
X194315406Y-67401418D01*
X194315407Y-67401418D01*
X194320534Y-67400761D01*
X194403583Y-67375845D01*
X194543699Y-67333808D01*
X194543700Y-67333807D01*
X194548645Y-67332324D01*
X194762516Y-67227549D01*
X194766719Y-67224551D01*
X194766724Y-67224548D01*
X194952199Y-67092250D01*
X194952201Y-67092248D01*
X194956403Y-67089251D01*
X195125099Y-66921143D01*
X195133486Y-66909472D01*
X195142020Y-66897595D01*
X195183362Y-66840061D01*
X195239355Y-66796414D01*
X195310059Y-66789968D01*
X195373023Y-66822770D01*
X195384965Y-66836430D01*
X195385657Y-66837560D01*
X195541587Y-67017571D01*
X195724825Y-67169698D01*
X195729277Y-67172300D01*
X195729282Y-67172303D01*
X195919200Y-67283282D01*
X195930448Y-67289855D01*
X196152935Y-67374814D01*
X196158001Y-67375845D01*
X196158002Y-67375845D01*
X196212339Y-67386900D01*
X196386311Y-67422295D01*
X196520504Y-67427216D01*
X196619143Y-67430833D01*
X196619147Y-67430833D01*
X196624307Y-67431022D01*
X196629427Y-67430366D01*
X196629429Y-67430366D01*
X196855406Y-67401418D01*
X196855407Y-67401418D01*
X196860534Y-67400761D01*
X196943583Y-67375845D01*
X197083699Y-67333808D01*
X197083700Y-67333807D01*
X197088645Y-67332324D01*
X197302516Y-67227549D01*
X197306719Y-67224551D01*
X197306724Y-67224548D01*
X197492199Y-67092250D01*
X197492201Y-67092248D01*
X197496403Y-67089251D01*
X197665099Y-66921143D01*
X197673486Y-66909472D01*
X197682020Y-66897595D01*
X197723362Y-66840061D01*
X197779355Y-66796414D01*
X197850059Y-66789968D01*
X197913023Y-66822770D01*
X197924965Y-66836430D01*
X197925657Y-66837560D01*
X198081587Y-67017571D01*
X198264825Y-67169698D01*
X198269277Y-67172300D01*
X198269282Y-67172303D01*
X198459200Y-67283282D01*
X198470448Y-67289855D01*
X198692935Y-67374814D01*
X198698001Y-67375845D01*
X198698002Y-67375845D01*
X198752339Y-67386900D01*
X198926311Y-67422295D01*
X199060504Y-67427216D01*
X199159143Y-67430833D01*
X199159147Y-67430833D01*
X199164307Y-67431022D01*
X199169427Y-67430366D01*
X199169429Y-67430366D01*
X199395406Y-67401418D01*
X199395407Y-67401418D01*
X199400534Y-67400761D01*
X199483583Y-67375845D01*
X199623699Y-67333808D01*
X199623700Y-67333807D01*
X199628645Y-67332324D01*
X199842516Y-67227549D01*
X199846719Y-67224551D01*
X199846724Y-67224548D01*
X200032199Y-67092250D01*
X200032201Y-67092248D01*
X200036403Y-67089251D01*
X200205099Y-66921143D01*
X200213486Y-66909472D01*
X200222020Y-66897595D01*
X200263362Y-66840061D01*
X200319355Y-66796414D01*
X200390059Y-66789968D01*
X200453023Y-66822770D01*
X200464965Y-66836430D01*
X200465657Y-66837560D01*
X200621587Y-67017571D01*
X200804825Y-67169698D01*
X200809277Y-67172300D01*
X200809282Y-67172303D01*
X200999200Y-67283282D01*
X201010448Y-67289855D01*
X201232935Y-67374814D01*
X201238001Y-67375845D01*
X201238002Y-67375845D01*
X201292339Y-67386900D01*
X201466311Y-67422295D01*
X201600504Y-67427216D01*
X201699143Y-67430833D01*
X201699147Y-67430833D01*
X201704307Y-67431022D01*
X201709427Y-67430366D01*
X201709429Y-67430366D01*
X201935406Y-67401418D01*
X201935407Y-67401418D01*
X201940534Y-67400761D01*
X201945485Y-67399276D01*
X201945488Y-67399275D01*
X202043697Y-67369811D01*
X202114692Y-67369395D01*
X202174642Y-67407427D01*
X202204514Y-67471834D01*
X202194823Y-67542166D01*
X202148646Y-67596093D01*
X202138088Y-67602258D01*
X202006973Y-67670512D01*
X202002840Y-67673615D01*
X202002837Y-67673617D01*
X201862351Y-67779097D01*
X201816523Y-67813506D01*
X201651985Y-67985685D01*
X201649074Y-67989953D01*
X201649070Y-67989958D01*
X201618156Y-68035276D01*
X201517777Y-68182426D01*
X201474949Y-68274691D01*
X201428021Y-68375791D01*
X201417505Y-68398445D01*
X201353860Y-68627939D01*
X201353311Y-68633073D01*
X201353311Y-68633075D01*
X201349417Y-68669515D01*
X201328553Y-68864748D01*
X201328850Y-68869900D01*
X201328850Y-68869904D01*
X201337387Y-69017960D01*
X201342262Y-69102509D01*
X201343399Y-69107555D01*
X201343400Y-69107561D01*
X201369451Y-69223154D01*
X201394620Y-69334839D01*
X201396562Y-69339621D01*
X201396563Y-69339625D01*
X201437922Y-69441480D01*
X201484220Y-69555498D01*
X201608657Y-69758560D01*
X201764587Y-69938571D01*
X201947825Y-70090698D01*
X201952277Y-70093300D01*
X201952282Y-70093303D01*
X202063073Y-70158044D01*
X202153448Y-70210855D01*
X202375935Y-70295814D01*
X202381001Y-70296845D01*
X202381002Y-70296845D01*
X202435339Y-70307900D01*
X202609311Y-70343295D01*
X202743504Y-70348216D01*
X202842143Y-70351833D01*
X202842147Y-70351833D01*
X202847307Y-70352022D01*
X202852427Y-70351366D01*
X202852429Y-70351366D01*
X203078406Y-70322418D01*
X203078407Y-70322418D01*
X203083534Y-70321761D01*
X203088485Y-70320276D01*
X203088488Y-70320275D01*
X203183334Y-70291820D01*
X203254329Y-70291404D01*
X203308636Y-70323411D01*
X203909428Y-70924204D01*
X204497477Y-71512253D01*
X204505017Y-71520539D01*
X204509129Y-71527018D01*
X204514906Y-71532443D01*
X204558780Y-71573643D01*
X204561622Y-71576398D01*
X204581359Y-71596135D01*
X204584556Y-71598615D01*
X204593576Y-71606318D01*
X204625808Y-71636586D01*
X204632754Y-71640405D01*
X204632757Y-71640407D01*
X204643563Y-71646348D01*
X204660082Y-71657199D01*
X204676088Y-71669614D01*
X204683357Y-71672759D01*
X204683361Y-71672762D01*
X204716666Y-71687174D01*
X204727316Y-71692391D01*
X204766069Y-71713695D01*
X204773744Y-71715666D01*
X204773745Y-71715666D01*
X204785691Y-71718733D01*
X204804396Y-71725137D01*
X204822984Y-71733181D01*
X204830807Y-71734420D01*
X204830817Y-71734423D01*
X204866653Y-71740099D01*
X204878273Y-71742505D01*
X204911058Y-71750922D01*
X204921099Y-71753500D01*
X204941353Y-71753500D01*
X204961063Y-71755051D01*
X204981072Y-71758220D01*
X204988964Y-71757474D01*
X205007709Y-71755702D01*
X205025091Y-71754059D01*
X205036948Y-71753500D01*
X220901233Y-71753500D01*
X220912416Y-71754027D01*
X220919909Y-71755702D01*
X220927835Y-71755453D01*
X220927836Y-71755453D01*
X220987986Y-71753562D01*
X220991945Y-71753500D01*
X221019856Y-71753500D01*
X221023791Y-71753003D01*
X221023856Y-71752995D01*
X221035693Y-71752062D01*
X221067951Y-71751048D01*
X221071970Y-71750922D01*
X221079889Y-71750673D01*
X221099343Y-71745021D01*
X221118700Y-71741013D01*
X221130930Y-71739468D01*
X221130931Y-71739468D01*
X221138797Y-71738474D01*
X221146168Y-71735555D01*
X221146170Y-71735555D01*
X221179912Y-71722196D01*
X221191142Y-71718351D01*
X221225983Y-71708229D01*
X221225984Y-71708229D01*
X221233593Y-71706018D01*
X221240412Y-71701985D01*
X221240417Y-71701983D01*
X221251028Y-71695707D01*
X221268776Y-71687012D01*
X221287617Y-71679552D01*
X221323387Y-71653564D01*
X221333307Y-71647048D01*
X221364535Y-71628580D01*
X221364538Y-71628578D01*
X221371362Y-71624542D01*
X221385683Y-71610221D01*
X221400717Y-71597380D01*
X221410694Y-71590131D01*
X221417107Y-71585472D01*
X221445298Y-71551395D01*
X221453288Y-71542616D01*
X224960628Y-68035276D01*
X225022940Y-68001250D01*
X225049723Y-67998371D01*
X228092278Y-67998371D01*
X228160399Y-68018373D01*
X228199711Y-68058536D01*
X228296825Y-68217012D01*
X228300675Y-68223295D01*
X228304055Y-68227197D01*
X228453243Y-68399424D01*
X228453247Y-68399428D01*
X228456628Y-68403331D01*
X228460603Y-68406632D01*
X228460606Y-68406634D01*
X228620801Y-68539631D01*
X228660436Y-68598534D01*
X228661934Y-68669515D01*
X228624819Y-68730037D01*
X228615969Y-68737335D01*
X228512711Y-68814863D01*
X228512705Y-68814869D01*
X228508570Y-68817973D01*
X228504996Y-68821713D01*
X228421605Y-68908977D01*
X228344009Y-68990176D01*
X228341095Y-68994448D01*
X228341094Y-68994449D01*
X228270907Y-69097340D01*
X228209783Y-69186944D01*
X228207607Y-69191633D01*
X228207603Y-69191639D01*
X228111674Y-69398301D01*
X228109497Y-69402992D01*
X228108117Y-69407970D01*
X228108115Y-69407974D01*
X228098823Y-69441480D01*
X228045844Y-69632519D01*
X228020533Y-69869360D01*
X228020830Y-69874512D01*
X228020830Y-69874516D01*
X228032354Y-70074372D01*
X228034244Y-70107154D01*
X228035381Y-70112200D01*
X228035382Y-70112206D01*
X228059370Y-70218647D01*
X228086609Y-70339516D01*
X228088551Y-70344298D01*
X228088552Y-70344302D01*
X228168701Y-70541683D01*
X228176222Y-70560205D01*
X228208844Y-70613439D01*
X228287200Y-70741305D01*
X228300675Y-70763295D01*
X228304055Y-70767197D01*
X228453243Y-70939424D01*
X228453247Y-70939428D01*
X228456628Y-70943331D01*
X228460603Y-70946632D01*
X228460606Y-70946634D01*
X228620801Y-71079631D01*
X228660436Y-71138534D01*
X228661934Y-71209515D01*
X228624819Y-71270037D01*
X228615969Y-71277335D01*
X228512711Y-71354863D01*
X228512705Y-71354869D01*
X228508570Y-71357973D01*
X228504996Y-71361713D01*
X228354612Y-71519081D01*
X228344009Y-71530176D01*
X228341095Y-71534448D01*
X228341094Y-71534449D01*
X228267378Y-71642513D01*
X228209783Y-71726944D01*
X228207607Y-71731633D01*
X228207603Y-71731639D01*
X228111674Y-71938301D01*
X228109497Y-71942992D01*
X228108117Y-71947970D01*
X228108115Y-71947974D01*
X228102545Y-71968060D01*
X228045844Y-72172519D01*
X228020533Y-72409360D01*
X228020830Y-72414512D01*
X228020830Y-72414516D01*
X228023968Y-72468930D01*
X228034244Y-72647154D01*
X228035381Y-72652200D01*
X228035382Y-72652206D01*
X228059404Y-72758797D01*
X228086609Y-72879516D01*
X228088551Y-72884298D01*
X228088552Y-72884302D01*
X228096612Y-72904151D01*
X228176222Y-73100205D01*
X228178921Y-73104609D01*
X228272260Y-73256925D01*
X228300675Y-73303295D01*
X228304055Y-73307197D01*
X228453243Y-73479424D01*
X228453247Y-73479428D01*
X228456628Y-73483331D01*
X228460603Y-73486632D01*
X228460606Y-73486634D01*
X228620801Y-73619631D01*
X228660436Y-73678534D01*
X228661934Y-73749515D01*
X228624819Y-73810037D01*
X228615969Y-73817335D01*
X228512711Y-73894863D01*
X228512705Y-73894869D01*
X228508570Y-73897973D01*
X228504996Y-73901713D01*
X228350823Y-74063046D01*
X228344009Y-74070176D01*
X228341095Y-74074448D01*
X228341094Y-74074449D01*
X228327308Y-74094659D01*
X228209783Y-74266944D01*
X228207607Y-74271633D01*
X228207603Y-74271639D01*
X228111745Y-74478149D01*
X228109497Y-74482992D01*
X228108117Y-74487970D01*
X228108115Y-74487974D01*
X228102898Y-74506787D01*
X228045844Y-74712519D01*
X228020533Y-74949360D01*
X228020830Y-74954512D01*
X228020830Y-74954516D01*
X228023968Y-75008930D01*
X228034244Y-75187154D01*
X228035381Y-75192200D01*
X228035382Y-75192206D01*
X228059404Y-75298797D01*
X228086609Y-75419516D01*
X228088551Y-75424298D01*
X228088552Y-75424302D01*
X228096612Y-75444151D01*
X228176222Y-75640205D01*
X228300675Y-75843295D01*
X228304055Y-75847197D01*
X228453243Y-76019424D01*
X228453247Y-76019428D01*
X228456628Y-76023331D01*
X228460603Y-76026632D01*
X228460606Y-76026634D01*
X228500432Y-76059698D01*
X228639890Y-76175479D01*
X228845542Y-76295652D01*
X228850367Y-76297494D01*
X228850368Y-76297495D01*
X228926215Y-76326458D01*
X229068059Y-76380623D01*
X229073127Y-76381654D01*
X229073130Y-76381655D01*
X229188302Y-76405087D01*
X229301467Y-76428111D01*
X229306642Y-76428301D01*
X229306644Y-76428301D01*
X229534332Y-76436650D01*
X229534336Y-76436650D01*
X229539496Y-76436839D01*
X229544616Y-76436183D01*
X229544618Y-76436183D01*
X229620238Y-76426496D01*
X229775755Y-76406573D01*
X229780704Y-76405088D01*
X229780710Y-76405087D01*
X229998948Y-76339612D01*
X229998947Y-76339612D01*
X230003898Y-76338127D01*
X230217799Y-76233338D01*
X230222004Y-76230338D01*
X230222010Y-76230335D01*
X230407509Y-76098020D01*
X230407511Y-76098018D01*
X230411713Y-76095021D01*
X230580432Y-75926890D01*
X230588058Y-75916278D01*
X230716407Y-75737660D01*
X230719425Y-75733460D01*
X230774543Y-75621939D01*
X230822666Y-75524569D01*
X230822667Y-75524567D01*
X230824960Y-75519927D01*
X230894202Y-75292024D01*
X230907343Y-75192206D01*
X230924855Y-75059193D01*
X230924855Y-75059189D01*
X230925292Y-75055872D01*
X230927027Y-74984871D01*
X230917798Y-74872619D01*
X230907934Y-74752634D01*
X230907933Y-74752628D01*
X230907510Y-74747483D01*
X230877217Y-74626879D01*
X230850743Y-74521480D01*
X230850742Y-74521476D01*
X230849484Y-74516469D01*
X230845274Y-74506787D01*
X230756566Y-74302772D01*
X230756564Y-74302769D01*
X230754506Y-74298035D01*
X230735736Y-74269020D01*
X230627935Y-74102387D01*
X230627933Y-74102385D01*
X230625127Y-74098047D01*
X230464823Y-73921875D01*
X230460772Y-73918676D01*
X230460768Y-73918672D01*
X230327244Y-73813221D01*
X230286181Y-73755304D01*
X230282949Y-73684381D01*
X230318575Y-73622969D01*
X230332167Y-73611761D01*
X230407507Y-73558021D01*
X230411713Y-73555021D01*
X230580432Y-73386890D01*
X230588058Y-73376278D01*
X230716407Y-73197660D01*
X230719425Y-73193460D01*
X230774543Y-73081939D01*
X230822666Y-72984569D01*
X230822667Y-72984567D01*
X230824960Y-72979927D01*
X230894202Y-72752024D01*
X230894877Y-72746898D01*
X230924855Y-72519193D01*
X230924855Y-72519189D01*
X230925292Y-72515872D01*
X230927027Y-72444871D01*
X230917798Y-72332619D01*
X230907934Y-72212634D01*
X230907933Y-72212628D01*
X230907510Y-72207483D01*
X230873612Y-72072526D01*
X230850743Y-71981480D01*
X230850742Y-71981476D01*
X230849484Y-71976469D01*
X230843646Y-71963042D01*
X230756566Y-71762772D01*
X230756564Y-71762769D01*
X230754506Y-71758035D01*
X230751613Y-71753562D01*
X230627935Y-71562387D01*
X230627933Y-71562385D01*
X230625127Y-71558047D01*
X230464823Y-71381875D01*
X230460772Y-71378676D01*
X230460768Y-71378672D01*
X230327244Y-71273221D01*
X230286181Y-71215304D01*
X230282949Y-71144381D01*
X230318575Y-71082969D01*
X230332167Y-71071761D01*
X230407507Y-71018021D01*
X230411713Y-71015021D01*
X230580432Y-70846890D01*
X230591127Y-70832007D01*
X230716407Y-70657660D01*
X230719425Y-70653460D01*
X230741075Y-70609656D01*
X230822666Y-70444569D01*
X230822667Y-70444567D01*
X230824960Y-70439927D01*
X230881654Y-70253324D01*
X230892700Y-70216968D01*
X230892700Y-70216967D01*
X230894202Y-70212024D01*
X230901309Y-70158044D01*
X230924855Y-69979193D01*
X230924855Y-69979189D01*
X230925292Y-69975872D01*
X230926123Y-69941873D01*
X230926945Y-69908236D01*
X230926945Y-69908232D01*
X230927027Y-69904871D01*
X230917615Y-69790386D01*
X230907934Y-69672634D01*
X230907933Y-69672628D01*
X230907510Y-69667483D01*
X230849484Y-69436469D01*
X230801490Y-69326091D01*
X230756566Y-69222772D01*
X230756564Y-69222769D01*
X230754506Y-69218035D01*
X230747604Y-69207365D01*
X230627935Y-69022387D01*
X230627933Y-69022385D01*
X230625127Y-69018047D01*
X230464823Y-68841875D01*
X230460772Y-68838676D01*
X230460768Y-68838672D01*
X230327244Y-68733221D01*
X230286181Y-68675304D01*
X230282949Y-68604381D01*
X230318575Y-68542969D01*
X230332167Y-68531761D01*
X230407507Y-68478021D01*
X230411713Y-68475021D01*
X230580432Y-68306890D01*
X230592608Y-68289946D01*
X230716407Y-68117660D01*
X230719425Y-68113460D01*
X230741075Y-68069656D01*
X230822666Y-67904569D01*
X230822667Y-67904567D01*
X230824960Y-67899927D01*
X230894202Y-67672024D01*
X230904414Y-67594455D01*
X230924855Y-67439193D01*
X230924855Y-67439189D01*
X230925292Y-67435872D01*
X230926829Y-67372969D01*
X230926945Y-67368236D01*
X230926945Y-67368232D01*
X230927027Y-67364871D01*
X230917798Y-67252619D01*
X230907934Y-67132634D01*
X230907933Y-67132628D01*
X230907510Y-67127483D01*
X230860982Y-66942244D01*
X230850743Y-66901480D01*
X230850742Y-66901476D01*
X230849484Y-66896469D01*
X230847425Y-66891733D01*
X230756566Y-66682772D01*
X230756564Y-66682769D01*
X230754506Y-66678035D01*
X230737432Y-66651642D01*
X230627935Y-66482387D01*
X230627933Y-66482385D01*
X230625127Y-66478047D01*
X230464823Y-66301875D01*
X230460772Y-66298676D01*
X230460768Y-66298672D01*
X230318777Y-66186534D01*
X230277714Y-66128616D01*
X230274482Y-66057693D01*
X230296140Y-66013181D01*
X230288750Y-65999268D01*
X229486375Y-65196893D01*
X229472431Y-65189279D01*
X229470598Y-65189410D01*
X229463983Y-65193661D01*
X228654503Y-66003141D01*
X228647743Y-66015521D01*
X228648040Y-66015918D01*
X228672851Y-66082439D01*
X228657759Y-66151813D01*
X228622825Y-66192187D01*
X228512711Y-66274863D01*
X228512705Y-66274869D01*
X228508570Y-66277973D01*
X228504996Y-66281713D01*
X228372034Y-66420850D01*
X228344009Y-66450176D01*
X228341095Y-66454448D01*
X228341094Y-66454449D01*
X228272788Y-66554582D01*
X228209783Y-66646944D01*
X228207603Y-66651640D01*
X228207602Y-66651642D01*
X228204455Y-66658422D01*
X228157631Y-66711789D01*
X228090168Y-66731371D01*
X224813892Y-66731371D01*
X224802708Y-66730844D01*
X224795220Y-66729170D01*
X224787297Y-66729419D01*
X224727162Y-66731309D01*
X224723204Y-66731371D01*
X224695273Y-66731371D01*
X224691358Y-66731866D01*
X224691354Y-66731866D01*
X224691296Y-66731874D01*
X224691267Y-66731877D01*
X224679425Y-66732810D01*
X224635239Y-66734198D01*
X224617873Y-66739243D01*
X224615787Y-66739849D01*
X224596435Y-66743857D01*
X224589364Y-66744751D01*
X224576332Y-66746397D01*
X224568963Y-66749314D01*
X224568961Y-66749315D01*
X224535226Y-66762671D01*
X224523998Y-66766516D01*
X224481536Y-66778853D01*
X224474714Y-66782887D01*
X224474708Y-66782890D01*
X224464097Y-66789165D01*
X224446347Y-66797861D01*
X224434885Y-66802399D01*
X224434880Y-66802402D01*
X224427512Y-66805319D01*
X224421097Y-66809980D01*
X224391754Y-66831298D01*
X224381836Y-66837814D01*
X224363148Y-66848866D01*
X224343766Y-66860329D01*
X224329442Y-66874653D01*
X224314410Y-66887492D01*
X224298022Y-66899399D01*
X224288307Y-66911143D01*
X224269841Y-66933464D01*
X224261851Y-66942244D01*
X220754500Y-70449595D01*
X220692188Y-70483621D01*
X220665405Y-70486500D01*
X205919274Y-70486500D01*
X205851153Y-70466498D01*
X205804660Y-70412842D01*
X205794556Y-70342568D01*
X205824050Y-70277988D01*
X205863841Y-70247349D01*
X205902368Y-70228475D01*
X206065516Y-70148549D01*
X206069719Y-70145551D01*
X206069724Y-70145548D01*
X206255199Y-70013250D01*
X206255201Y-70013248D01*
X206259403Y-70010251D01*
X206428099Y-69842143D01*
X206567073Y-69648740D01*
X206577548Y-69627547D01*
X206670300Y-69439878D01*
X206670301Y-69439876D01*
X206672594Y-69435236D01*
X206741826Y-69207365D01*
X206742501Y-69202239D01*
X206772475Y-68974567D01*
X206772475Y-68974563D01*
X206772912Y-68971246D01*
X206774434Y-68908977D01*
X206774565Y-68903619D01*
X206774565Y-68903615D01*
X206774647Y-68900254D01*
X206755133Y-68662898D01*
X206697114Y-68431917D01*
X206606634Y-68223826D01*
X206604210Y-68218250D01*
X206604208Y-68218247D01*
X206602150Y-68213513D01*
X206585531Y-68187823D01*
X206522748Y-68090776D01*
X206472789Y-68013552D01*
X206458976Y-67998371D01*
X206349975Y-67878581D01*
X206312507Y-67837404D01*
X206308456Y-67834205D01*
X206308452Y-67834201D01*
X206129661Y-67693001D01*
X206129656Y-67692998D01*
X206125607Y-67689800D01*
X206121091Y-67687307D01*
X206121088Y-67687305D01*
X205921633Y-67577200D01*
X205921629Y-67577198D01*
X205917109Y-67574703D01*
X205912240Y-67572979D01*
X205912236Y-67572977D01*
X205697488Y-67496930D01*
X205697484Y-67496929D01*
X205692613Y-67495204D01*
X205687523Y-67494297D01*
X205687518Y-67494296D01*
X205560197Y-67471618D01*
X205458147Y-67453440D01*
X205369020Y-67452351D01*
X205225178Y-67450593D01*
X205225176Y-67450593D01*
X205220008Y-67450530D01*
X204984592Y-67486554D01*
X204964561Y-67493101D01*
X204922240Y-67506933D01*
X204851276Y-67509084D01*
X204790415Y-67472527D01*
X204758979Y-67408870D01*
X204766949Y-67338322D01*
X204811795Y-67283282D01*
X204827664Y-67274017D01*
X204917869Y-67229826D01*
X204917874Y-67229823D01*
X204922516Y-67227549D01*
X204926719Y-67224551D01*
X204926724Y-67224548D01*
X205112199Y-67092250D01*
X205112201Y-67092248D01*
X205116403Y-67089251D01*
X205285099Y-66921143D01*
X205293486Y-66909472D01*
X205302020Y-66897595D01*
X205343362Y-66840061D01*
X205399355Y-66796414D01*
X205470059Y-66789968D01*
X205533023Y-66822770D01*
X205544965Y-66836430D01*
X205545657Y-66837560D01*
X205701587Y-67017571D01*
X205884825Y-67169698D01*
X205889277Y-67172300D01*
X205889282Y-67172303D01*
X206079200Y-67283282D01*
X206090448Y-67289855D01*
X206312935Y-67374814D01*
X206318001Y-67375845D01*
X206318002Y-67375845D01*
X206372339Y-67386900D01*
X206546311Y-67422295D01*
X206680504Y-67427216D01*
X206779143Y-67430833D01*
X206779147Y-67430833D01*
X206784307Y-67431022D01*
X206789427Y-67430366D01*
X206789429Y-67430366D01*
X207015406Y-67401418D01*
X207015407Y-67401418D01*
X207020534Y-67400761D01*
X207103583Y-67375845D01*
X207243699Y-67333808D01*
X207243700Y-67333807D01*
X207248645Y-67332324D01*
X207462516Y-67227549D01*
X207466719Y-67224551D01*
X207466724Y-67224548D01*
X207652199Y-67092250D01*
X207652201Y-67092248D01*
X207656403Y-67089251D01*
X207825099Y-66921143D01*
X207833486Y-66909472D01*
X207842020Y-66897595D01*
X207883362Y-66840061D01*
X207939355Y-66796414D01*
X208010059Y-66789968D01*
X208073023Y-66822770D01*
X208084965Y-66836430D01*
X208085657Y-66837560D01*
X208241587Y-67017571D01*
X208424825Y-67169698D01*
X208429277Y-67172300D01*
X208429282Y-67172303D01*
X208619200Y-67283282D01*
X208630448Y-67289855D01*
X208852935Y-67374814D01*
X208858001Y-67375845D01*
X208858002Y-67375845D01*
X208912339Y-67386900D01*
X209086311Y-67422295D01*
X209220504Y-67427216D01*
X209319143Y-67430833D01*
X209319147Y-67430833D01*
X209324307Y-67431022D01*
X209329427Y-67430366D01*
X209329429Y-67430366D01*
X209555406Y-67401418D01*
X209555407Y-67401418D01*
X209560534Y-67400761D01*
X209643583Y-67375845D01*
X209783699Y-67333808D01*
X209783700Y-67333807D01*
X209788645Y-67332324D01*
X210002516Y-67227549D01*
X210006719Y-67224551D01*
X210006724Y-67224548D01*
X210192199Y-67092250D01*
X210192201Y-67092248D01*
X210196403Y-67089251D01*
X210365099Y-66921143D01*
X210373486Y-66909472D01*
X210382020Y-66897595D01*
X210423362Y-66840061D01*
X210479355Y-66796414D01*
X210550059Y-66789968D01*
X210613023Y-66822770D01*
X210624965Y-66836430D01*
X210625657Y-66837560D01*
X210781587Y-67017571D01*
X210964825Y-67169698D01*
X210969277Y-67172300D01*
X210969282Y-67172303D01*
X211159200Y-67283282D01*
X211170448Y-67289855D01*
X211392935Y-67374814D01*
X211398001Y-67375845D01*
X211398002Y-67375845D01*
X211452339Y-67386900D01*
X211626311Y-67422295D01*
X211760504Y-67427216D01*
X211859143Y-67430833D01*
X211859147Y-67430833D01*
X211864307Y-67431022D01*
X211869427Y-67430366D01*
X211869429Y-67430366D01*
X212095406Y-67401418D01*
X212095407Y-67401418D01*
X212100534Y-67400761D01*
X212183583Y-67375845D01*
X212323699Y-67333808D01*
X212323700Y-67333807D01*
X212328645Y-67332324D01*
X212542516Y-67227549D01*
X212546719Y-67224551D01*
X212546724Y-67224548D01*
X212732199Y-67092250D01*
X212732201Y-67092248D01*
X212736403Y-67089251D01*
X212905099Y-66921143D01*
X212913486Y-66909472D01*
X212922020Y-66897595D01*
X212963362Y-66840061D01*
X213019355Y-66796414D01*
X213090059Y-66789968D01*
X213153023Y-66822770D01*
X213164965Y-66836430D01*
X213165657Y-66837560D01*
X213321587Y-67017571D01*
X213504825Y-67169698D01*
X213509277Y-67172300D01*
X213509282Y-67172303D01*
X213699200Y-67283282D01*
X213710448Y-67289855D01*
X213932935Y-67374814D01*
X213938001Y-67375845D01*
X213938002Y-67375845D01*
X213992339Y-67386900D01*
X214166311Y-67422295D01*
X214300504Y-67427216D01*
X214399143Y-67430833D01*
X214399147Y-67430833D01*
X214404307Y-67431022D01*
X214409427Y-67430366D01*
X214409429Y-67430366D01*
X214635406Y-67401418D01*
X214635407Y-67401418D01*
X214640534Y-67400761D01*
X214723583Y-67375845D01*
X214863699Y-67333808D01*
X214863700Y-67333807D01*
X214868645Y-67332324D01*
X215082516Y-67227549D01*
X215086719Y-67224551D01*
X215086724Y-67224548D01*
X215272199Y-67092250D01*
X215272201Y-67092248D01*
X215276403Y-67089251D01*
X215445099Y-66921143D01*
X215453486Y-66909472D01*
X215462020Y-66897595D01*
X215503362Y-66840061D01*
X215559355Y-66796414D01*
X215630059Y-66789968D01*
X215693023Y-66822770D01*
X215704965Y-66836430D01*
X215705657Y-66837560D01*
X215861587Y-67017571D01*
X216044825Y-67169698D01*
X216049277Y-67172300D01*
X216049282Y-67172303D01*
X216239200Y-67283282D01*
X216250448Y-67289855D01*
X216472935Y-67374814D01*
X216478001Y-67375845D01*
X216478002Y-67375845D01*
X216532339Y-67386900D01*
X216706311Y-67422295D01*
X216840504Y-67427216D01*
X216939143Y-67430833D01*
X216939147Y-67430833D01*
X216944307Y-67431022D01*
X216949427Y-67430366D01*
X216949429Y-67430366D01*
X217175406Y-67401418D01*
X217175407Y-67401418D01*
X217180534Y-67400761D01*
X217263583Y-67375845D01*
X217403699Y-67333808D01*
X217403700Y-67333807D01*
X217408645Y-67332324D01*
X217622516Y-67227549D01*
X217626719Y-67224551D01*
X217626724Y-67224548D01*
X217812199Y-67092250D01*
X217812201Y-67092248D01*
X217816403Y-67089251D01*
X217985099Y-66921143D01*
X217993486Y-66909472D01*
X218002020Y-66897595D01*
X218043362Y-66840061D01*
X218099355Y-66796414D01*
X218170059Y-66789968D01*
X218233023Y-66822770D01*
X218244965Y-66836430D01*
X218245657Y-66837560D01*
X218401587Y-67017571D01*
X218584825Y-67169698D01*
X218589277Y-67172300D01*
X218589282Y-67172303D01*
X218779200Y-67283282D01*
X218790448Y-67289855D01*
X219012935Y-67374814D01*
X219018001Y-67375845D01*
X219018002Y-67375845D01*
X219072339Y-67386900D01*
X219246311Y-67422295D01*
X219380504Y-67427216D01*
X219479143Y-67430833D01*
X219479147Y-67430833D01*
X219484307Y-67431022D01*
X219489427Y-67430366D01*
X219489429Y-67430366D01*
X219715406Y-67401418D01*
X219715407Y-67401418D01*
X219720534Y-67400761D01*
X219803583Y-67375845D01*
X219943699Y-67333808D01*
X219943700Y-67333807D01*
X219948645Y-67332324D01*
X220162516Y-67227549D01*
X220166719Y-67224551D01*
X220166724Y-67224548D01*
X220352199Y-67092250D01*
X220352201Y-67092248D01*
X220356403Y-67089251D01*
X220525099Y-66921143D01*
X220533486Y-66909472D01*
X220542020Y-66897595D01*
X220583362Y-66840061D01*
X220639355Y-66796414D01*
X220710059Y-66789968D01*
X220773023Y-66822770D01*
X220784965Y-66836430D01*
X220785657Y-66837560D01*
X220941587Y-67017571D01*
X221124825Y-67169698D01*
X221129277Y-67172300D01*
X221129282Y-67172303D01*
X221319200Y-67283282D01*
X221330448Y-67289855D01*
X221552935Y-67374814D01*
X221558001Y-67375845D01*
X221558002Y-67375845D01*
X221612339Y-67386900D01*
X221786311Y-67422295D01*
X221920504Y-67427216D01*
X222019143Y-67430833D01*
X222019147Y-67430833D01*
X222024307Y-67431022D01*
X222029427Y-67430366D01*
X222029429Y-67430366D01*
X222255406Y-67401418D01*
X222255407Y-67401418D01*
X222260534Y-67400761D01*
X222343583Y-67375845D01*
X222483699Y-67333808D01*
X222483700Y-67333807D01*
X222488645Y-67332324D01*
X222702516Y-67227549D01*
X222706719Y-67224551D01*
X222706724Y-67224548D01*
X222892199Y-67092250D01*
X222892201Y-67092248D01*
X222896403Y-67089251D01*
X223065099Y-66921143D01*
X223073486Y-66909472D01*
X223122355Y-66841463D01*
X223204073Y-66727740D01*
X223238333Y-66658422D01*
X223307300Y-66518878D01*
X223307301Y-66518876D01*
X223309594Y-66514236D01*
X223358054Y-66354734D01*
X223377324Y-66291309D01*
X223377324Y-66291308D01*
X223378826Y-66286365D01*
X223382512Y-66258371D01*
X223409475Y-66053567D01*
X223409475Y-66053563D01*
X223409912Y-66050246D01*
X223409994Y-66046894D01*
X223411565Y-65982619D01*
X223411565Y-65982615D01*
X223411647Y-65979254D01*
X223392133Y-65741898D01*
X223334114Y-65510917D01*
X223239150Y-65292513D01*
X223222077Y-65266121D01*
X223159748Y-65169776D01*
X223109789Y-65092552D01*
X222949507Y-64916404D01*
X222945456Y-64913205D01*
X222945452Y-64913201D01*
X222795184Y-64794528D01*
X228021331Y-64794528D01*
X228034442Y-65021916D01*
X228035878Y-65032136D01*
X228085951Y-65254324D01*
X228089030Y-65264152D01*
X228174725Y-65475192D01*
X228179368Y-65484383D01*
X228274572Y-65639742D01*
X228285029Y-65649202D01*
X228293805Y-65645419D01*
X229101541Y-64837683D01*
X229107919Y-64826003D01*
X229837971Y-64826003D01*
X229838102Y-64827836D01*
X229842353Y-64834451D01*
X230648528Y-65640626D01*
X230660538Y-65647185D01*
X230672277Y-65638217D01*
X230715977Y-65577402D01*
X230721288Y-65568563D01*
X230822200Y-65364384D01*
X230825998Y-65354791D01*
X230892210Y-65136862D01*
X230894387Y-65126792D01*
X230924354Y-64899170D01*
X230924873Y-64892495D01*
X230926444Y-64828235D01*
X230926250Y-64821517D01*
X230907440Y-64592725D01*
X230905755Y-64582545D01*
X230850268Y-64361643D01*
X230846948Y-64351892D01*
X230756124Y-64143009D01*
X230751257Y-64133934D01*
X230671715Y-64010980D01*
X230661030Y-64001777D01*
X230651463Y-64006181D01*
X229845585Y-64812059D01*
X229837971Y-64826003D01*
X229107919Y-64826003D01*
X229109155Y-64823739D01*
X229109024Y-64821906D01*
X229104773Y-64815291D01*
X228298643Y-64009161D01*
X228287107Y-64002861D01*
X228274824Y-64012485D01*
X228213138Y-64102913D01*
X228208039Y-64111889D01*
X228112142Y-64318479D01*
X228108588Y-64328139D01*
X228047715Y-64547641D01*
X228045788Y-64557745D01*
X228021583Y-64784239D01*
X228021331Y-64794528D01*
X222795184Y-64794528D01*
X222766665Y-64772005D01*
X222762607Y-64768800D01*
X222656988Y-64710495D01*
X222607019Y-64660064D01*
X222591883Y-64600188D01*
X222591883Y-62249360D01*
X228020533Y-62249360D01*
X228020830Y-62254512D01*
X228020830Y-62254516D01*
X228026481Y-62352520D01*
X228034244Y-62487154D01*
X228035381Y-62492200D01*
X228035382Y-62492206D01*
X228068576Y-62639496D01*
X228086609Y-62719516D01*
X228176222Y-62940205D01*
X228300675Y-63143295D01*
X228304055Y-63147197D01*
X228453243Y-63319424D01*
X228453247Y-63319428D01*
X228456628Y-63323331D01*
X228460603Y-63326632D01*
X228460606Y-63326634D01*
X228628824Y-63466292D01*
X228668459Y-63525195D01*
X228669957Y-63596176D01*
X228650282Y-63636613D01*
X228657245Y-63649343D01*
X229460751Y-64452849D01*
X229474695Y-64460463D01*
X229476528Y-64460332D01*
X229483143Y-64456081D01*
X230291033Y-63648191D01*
X230298053Y-63635335D01*
X230296657Y-63633419D01*
X230272708Y-63566583D01*
X230288695Y-63497410D01*
X230325323Y-63456642D01*
X230411713Y-63395021D01*
X230580432Y-63226890D01*
X230719425Y-63033460D01*
X230824960Y-62819927D01*
X230894202Y-62592024D01*
X230907343Y-62492206D01*
X230924855Y-62359193D01*
X230924855Y-62359189D01*
X230925292Y-62355872D01*
X230927027Y-62284871D01*
X230920559Y-62206202D01*
X230907934Y-62052634D01*
X230907933Y-62052628D01*
X230907510Y-62047483D01*
X230863409Y-61871907D01*
X230850743Y-61821480D01*
X230850742Y-61821476D01*
X230849484Y-61816469D01*
X230840831Y-61796569D01*
X230756566Y-61602772D01*
X230756564Y-61602769D01*
X230754506Y-61598035D01*
X230740040Y-61575673D01*
X230627935Y-61402387D01*
X230627933Y-61402385D01*
X230625127Y-61398047D01*
X230464823Y-61221875D01*
X230460772Y-61218676D01*
X230460768Y-61218672D01*
X230281951Y-61077451D01*
X230277898Y-61074250D01*
X230273382Y-61071757D01*
X230273379Y-61071755D01*
X230073895Y-60961634D01*
X230073891Y-60961632D01*
X230069371Y-60959137D01*
X230064502Y-60957413D01*
X230064498Y-60957411D01*
X229849719Y-60881354D01*
X229849715Y-60881353D01*
X229844844Y-60879628D01*
X229839751Y-60878721D01*
X229839748Y-60878720D01*
X229615435Y-60838764D01*
X229615429Y-60838763D01*
X229610346Y-60837858D01*
X229519187Y-60836744D01*
X229377343Y-60835011D01*
X229377341Y-60835011D01*
X229372174Y-60834948D01*
X229136726Y-60870976D01*
X228979103Y-60922495D01*
X228915242Y-60943368D01*
X228915240Y-60943369D01*
X228910323Y-60944976D01*
X228905737Y-60947363D01*
X228905733Y-60947365D01*
X228878323Y-60961634D01*
X228699047Y-61054960D01*
X228508570Y-61197973D01*
X228504996Y-61201713D01*
X228364218Y-61349029D01*
X228344009Y-61370176D01*
X228341095Y-61374448D01*
X228341094Y-61374449D01*
X228324997Y-61398047D01*
X228209783Y-61566944D01*
X228207607Y-61571633D01*
X228207603Y-61571639D01*
X228111674Y-61778301D01*
X228109497Y-61782992D01*
X228108117Y-61787970D01*
X228108115Y-61787974D01*
X228085029Y-61871220D01*
X228045844Y-62012519D01*
X228020533Y-62249360D01*
X222591883Y-62249360D01*
X222591883Y-56937150D01*
X222592410Y-56925967D01*
X222594085Y-56918474D01*
X222591945Y-56850383D01*
X222591883Y-56846426D01*
X222591883Y-56818527D01*
X222591379Y-56814536D01*
X222590446Y-56802694D01*
X222589306Y-56766419D01*
X222589057Y-56758494D01*
X222586845Y-56750880D01*
X222586844Y-56750875D01*
X222583406Y-56739042D01*
X222579395Y-56719678D01*
X222577850Y-56707447D01*
X222576857Y-56699586D01*
X222573940Y-56692219D01*
X222573939Y-56692214D01*
X222560581Y-56658475D01*
X222556737Y-56647248D01*
X222546613Y-56612405D01*
X222544401Y-56604790D01*
X222534090Y-56587355D01*
X222525395Y-56569607D01*
X222517935Y-56550766D01*
X222491947Y-56514996D01*
X222485431Y-56505076D01*
X222466963Y-56473848D01*
X222466961Y-56473845D01*
X222462925Y-56467021D01*
X222448604Y-56452700D01*
X222435763Y-56437666D01*
X222428514Y-56427689D01*
X222423855Y-56421276D01*
X222389778Y-56393085D01*
X222380999Y-56385095D01*
X219335905Y-53340000D01*
X229826502Y-53340000D01*
X229846457Y-53568087D01*
X229847881Y-53573400D01*
X229847881Y-53573402D01*
X229903818Y-53782158D01*
X229905716Y-53789243D01*
X229908039Y-53794224D01*
X229908039Y-53794225D01*
X230000151Y-53991762D01*
X230000154Y-53991767D01*
X230002477Y-53996749D01*
X230133802Y-54184300D01*
X230295700Y-54346198D01*
X230300208Y-54349355D01*
X230300211Y-54349357D01*
X230378389Y-54404098D01*
X230483251Y-54477523D01*
X230488233Y-54479846D01*
X230488238Y-54479849D01*
X230685775Y-54571961D01*
X230690757Y-54574284D01*
X230696065Y-54575706D01*
X230696067Y-54575707D01*
X230906598Y-54632119D01*
X230906600Y-54632119D01*
X230911913Y-54633543D01*
X231140000Y-54653498D01*
X231368087Y-54633543D01*
X231373400Y-54632119D01*
X231373402Y-54632119D01*
X231583933Y-54575707D01*
X231583935Y-54575706D01*
X231589243Y-54574284D01*
X231594225Y-54571961D01*
X231791762Y-54479849D01*
X231791767Y-54479846D01*
X231796749Y-54477523D01*
X231901611Y-54404098D01*
X231979789Y-54349357D01*
X231979792Y-54349355D01*
X231984300Y-54346198D01*
X232146198Y-54184300D01*
X232277523Y-53996749D01*
X232279846Y-53991767D01*
X232279849Y-53991762D01*
X232371961Y-53794225D01*
X232371961Y-53794224D01*
X232374284Y-53789243D01*
X232376183Y-53782158D01*
X232432119Y-53573402D01*
X232432119Y-53573400D01*
X232433543Y-53568087D01*
X232453498Y-53340000D01*
X232433543Y-53111913D01*
X232432119Y-53106598D01*
X232375707Y-52896067D01*
X232375706Y-52896065D01*
X232374284Y-52890757D01*
X232371961Y-52885775D01*
X232279849Y-52688238D01*
X232279846Y-52688233D01*
X232277523Y-52683251D01*
X232161934Y-52518173D01*
X232149357Y-52500211D01*
X232149355Y-52500208D01*
X232146198Y-52495700D01*
X231984300Y-52333802D01*
X231979792Y-52330645D01*
X231979789Y-52330643D01*
X231801253Y-52205631D01*
X231796749Y-52202477D01*
X231791765Y-52200153D01*
X231789472Y-52198829D01*
X231740479Y-52147447D01*
X231727043Y-52077733D01*
X231753429Y-52011822D01*
X231789472Y-51980591D01*
X231801002Y-51973934D01*
X231853048Y-51937491D01*
X231861424Y-51927012D01*
X231854356Y-51913566D01*
X231152812Y-51212022D01*
X231138868Y-51204408D01*
X231137035Y-51204539D01*
X231130420Y-51208790D01*
X230424923Y-51914287D01*
X230418493Y-51926062D01*
X230427789Y-51938077D01*
X230478998Y-51973934D01*
X230490528Y-51980591D01*
X230539521Y-52031973D01*
X230552958Y-52101687D01*
X230526571Y-52167598D01*
X230490528Y-52198829D01*
X230488235Y-52200153D01*
X230483251Y-52202477D01*
X230478747Y-52205631D01*
X230300211Y-52330643D01*
X230300208Y-52330645D01*
X230295700Y-52333802D01*
X230133802Y-52495700D01*
X230130645Y-52500208D01*
X230130643Y-52500211D01*
X230118066Y-52518173D01*
X230002477Y-52683251D01*
X230000154Y-52688233D01*
X230000151Y-52688238D01*
X229908039Y-52885775D01*
X229905716Y-52890757D01*
X229904294Y-52896065D01*
X229904293Y-52896067D01*
X229847881Y-53106598D01*
X229846457Y-53111913D01*
X229826502Y-53340000D01*
X219335905Y-53340000D01*
X219110405Y-53114500D01*
X219076379Y-53052188D01*
X219073500Y-53025405D01*
X219073500Y-51659594D01*
X219093502Y-51591473D01*
X219110405Y-51570499D01*
X219405019Y-51275885D01*
X219467331Y-51241859D01*
X219538146Y-51246924D01*
X219594982Y-51289471D01*
X219619905Y-51357727D01*
X219623011Y-51411590D01*
X219630110Y-51534715D01*
X219631247Y-51539761D01*
X219631248Y-51539767D01*
X219645606Y-51603475D01*
X219679222Y-51752639D01*
X219763266Y-51959616D01*
X219879987Y-52150088D01*
X220026250Y-52318938D01*
X220198126Y-52461632D01*
X220391000Y-52574338D01*
X220599692Y-52654030D01*
X220604760Y-52655061D01*
X220604763Y-52655062D01*
X220712017Y-52676883D01*
X220818597Y-52698567D01*
X220823772Y-52698757D01*
X220823774Y-52698757D01*
X221036673Y-52706564D01*
X221036677Y-52706564D01*
X221041837Y-52706753D01*
X221046957Y-52706097D01*
X221046959Y-52706097D01*
X221258288Y-52679025D01*
X221258289Y-52679025D01*
X221263416Y-52678368D01*
X221268366Y-52676883D01*
X221472429Y-52615661D01*
X221472434Y-52615659D01*
X221477384Y-52614174D01*
X221677994Y-52515896D01*
X221859860Y-52386173D01*
X221912415Y-52333802D01*
X221968479Y-52277933D01*
X222030851Y-52244017D01*
X222101658Y-52249205D01*
X222158419Y-52291851D01*
X222175401Y-52322954D01*
X222216676Y-52433054D01*
X222225214Y-52448649D01*
X222301715Y-52550724D01*
X222314276Y-52563285D01*
X222416351Y-52639786D01*
X222431946Y-52648324D01*
X222552394Y-52693478D01*
X222567649Y-52697105D01*
X222618514Y-52702631D01*
X222625328Y-52703000D01*
X223247885Y-52703000D01*
X223263124Y-52698525D01*
X223264329Y-52697135D01*
X223266000Y-52689452D01*
X223266000Y-52684884D01*
X223774000Y-52684884D01*
X223778475Y-52700123D01*
X223779865Y-52701328D01*
X223787548Y-52702999D01*
X224414669Y-52702999D01*
X224421490Y-52702629D01*
X224472352Y-52697105D01*
X224487604Y-52693479D01*
X224608054Y-52648324D01*
X224623649Y-52639786D01*
X224725724Y-52563285D01*
X224738285Y-52550724D01*
X224814786Y-52448649D01*
X224823324Y-52433054D01*
X224868478Y-52312606D01*
X224872105Y-52297351D01*
X224877631Y-52246486D01*
X224878000Y-52239672D01*
X224878000Y-51617115D01*
X224873525Y-51601876D01*
X224872135Y-51600671D01*
X224864452Y-51599000D01*
X223792115Y-51599000D01*
X223776876Y-51603475D01*
X223775671Y-51604865D01*
X223774000Y-51612548D01*
X223774000Y-52684884D01*
X223266000Y-52684884D01*
X223266000Y-51217000D01*
X223286002Y-51148879D01*
X223339658Y-51102386D01*
X223392000Y-51091000D01*
X224859884Y-51091000D01*
X224875123Y-51086525D01*
X224876328Y-51085135D01*
X224877999Y-51077452D01*
X224877999Y-50845475D01*
X229827483Y-50845475D01*
X229846472Y-51062519D01*
X229848375Y-51073312D01*
X229904764Y-51283761D01*
X229908510Y-51294053D01*
X230000586Y-51491511D01*
X230006069Y-51501006D01*
X230042509Y-51553048D01*
X230052988Y-51561424D01*
X230066434Y-51554356D01*
X230767978Y-50852812D01*
X230774356Y-50841132D01*
X231504408Y-50841132D01*
X231504539Y-50842965D01*
X231508790Y-50849580D01*
X232214287Y-51555077D01*
X232226062Y-51561507D01*
X232238077Y-51552211D01*
X232273931Y-51501006D01*
X232279414Y-51491511D01*
X232371490Y-51294053D01*
X232375236Y-51283761D01*
X232431625Y-51073312D01*
X232433528Y-51062519D01*
X232452517Y-50845475D01*
X232452517Y-50834525D01*
X232433528Y-50617481D01*
X232431625Y-50606688D01*
X232375236Y-50396239D01*
X232371490Y-50385947D01*
X232279414Y-50188489D01*
X232273931Y-50178994D01*
X232237491Y-50126952D01*
X232227012Y-50118576D01*
X232213566Y-50125644D01*
X231512022Y-50827188D01*
X231504408Y-50841132D01*
X230774356Y-50841132D01*
X230775592Y-50838868D01*
X230775461Y-50837035D01*
X230771210Y-50830420D01*
X230065713Y-50124923D01*
X230053938Y-50118493D01*
X230041923Y-50127789D01*
X230006069Y-50178994D01*
X230000586Y-50188489D01*
X229908510Y-50385947D01*
X229904764Y-50396239D01*
X229848375Y-50606688D01*
X229846472Y-50617481D01*
X229827483Y-50834525D01*
X229827483Y-50845475D01*
X224877999Y-50845475D01*
X224877999Y-50450331D01*
X224877629Y-50443510D01*
X224872105Y-50392648D01*
X224868479Y-50377396D01*
X224823324Y-50256946D01*
X224814786Y-50241351D01*
X224738285Y-50139276D01*
X224725724Y-50126715D01*
X224623649Y-50050214D01*
X224608054Y-50041676D01*
X224497813Y-50000348D01*
X224441049Y-49957706D01*
X224416349Y-49891145D01*
X224431557Y-49821796D01*
X224453104Y-49793115D01*
X224493372Y-49752988D01*
X230418576Y-49752988D01*
X230425644Y-49766434D01*
X231127188Y-50467978D01*
X231141132Y-50475592D01*
X231142965Y-50475461D01*
X231149580Y-50471210D01*
X231855077Y-49765713D01*
X231861507Y-49753938D01*
X231852211Y-49741923D01*
X231801006Y-49706069D01*
X231791511Y-49700586D01*
X231594053Y-49608510D01*
X231583761Y-49604764D01*
X231373312Y-49548375D01*
X231362519Y-49546472D01*
X231145475Y-49527483D01*
X231134525Y-49527483D01*
X230917481Y-49546472D01*
X230906688Y-49548375D01*
X230696239Y-49604764D01*
X230685947Y-49608510D01*
X230488489Y-49700586D01*
X230478994Y-49706069D01*
X230426952Y-49742509D01*
X230418576Y-49752988D01*
X224493372Y-49752988D01*
X224554430Y-49692144D01*
X224554440Y-49692132D01*
X224558096Y-49688489D01*
X224615567Y-49608510D01*
X224685435Y-49511277D01*
X224688453Y-49507077D01*
X224709320Y-49464857D01*
X224785136Y-49311453D01*
X224785137Y-49311451D01*
X224787430Y-49306811D01*
X224852370Y-49093069D01*
X224881529Y-48871590D01*
X224883156Y-48805000D01*
X224864852Y-48582361D01*
X224810431Y-48365702D01*
X224721354Y-48160840D01*
X224600014Y-47973277D01*
X224449670Y-47808051D01*
X224445619Y-47804852D01*
X224445615Y-47804848D01*
X224278414Y-47672800D01*
X224278410Y-47672798D01*
X224274359Y-47669598D01*
X224233053Y-47646796D01*
X224183084Y-47596364D01*
X224168312Y-47526921D01*
X224193428Y-47460516D01*
X224220780Y-47433909D01*
X224264603Y-47402650D01*
X224399860Y-47306173D01*
X224558096Y-47148489D01*
X224617594Y-47065689D01*
X224685435Y-46971277D01*
X224688453Y-46967077D01*
X224709320Y-46924857D01*
X224785136Y-46771453D01*
X224785137Y-46771451D01*
X224787430Y-46766811D01*
X224852370Y-46553069D01*
X224881529Y-46331590D01*
X224883156Y-46265000D01*
X224864852Y-46042361D01*
X224810431Y-45825702D01*
X224721354Y-45620840D01*
X224600014Y-45433277D01*
X224449670Y-45268051D01*
X224445619Y-45264852D01*
X224445615Y-45264848D01*
X224278414Y-45132800D01*
X224278410Y-45132798D01*
X224274359Y-45129598D01*
X224233053Y-45106796D01*
X224183084Y-45056364D01*
X224168312Y-44986921D01*
X224193428Y-44920516D01*
X224220780Y-44893909D01*
X224264603Y-44862650D01*
X224399860Y-44766173D01*
X224558096Y-44608489D01*
X224617594Y-44525689D01*
X224685435Y-44431277D01*
X224688453Y-44427077D01*
X224709320Y-44384857D01*
X224785136Y-44231453D01*
X224785137Y-44231451D01*
X224787430Y-44226811D01*
X224852370Y-44013069D01*
X224881529Y-43791590D01*
X224883156Y-43725000D01*
X224864852Y-43502361D01*
X224810431Y-43285702D01*
X224721354Y-43080840D01*
X224600014Y-42893277D01*
X224449670Y-42728051D01*
X224445619Y-42724852D01*
X224445615Y-42724848D01*
X224278414Y-42592800D01*
X224278410Y-42592798D01*
X224274359Y-42589598D01*
X224078789Y-42481638D01*
X224073920Y-42479914D01*
X224073916Y-42479912D01*
X223873087Y-42408795D01*
X223873083Y-42408794D01*
X223868212Y-42407069D01*
X223863119Y-42406162D01*
X223863116Y-42406161D01*
X223653373Y-42368800D01*
X223653367Y-42368799D01*
X223648284Y-42367894D01*
X223574452Y-42366992D01*
X223430081Y-42365228D01*
X223430079Y-42365228D01*
X223424911Y-42365165D01*
X223204091Y-42398955D01*
X222991756Y-42468357D01*
X222793607Y-42571507D01*
X222789474Y-42574610D01*
X222789471Y-42574612D01*
X222765247Y-42592800D01*
X222614965Y-42705635D01*
X222460629Y-42867138D01*
X222353201Y-43024621D01*
X222298293Y-43069621D01*
X222227768Y-43077792D01*
X222164021Y-43046538D01*
X222143324Y-43022054D01*
X222062822Y-42897617D01*
X222062820Y-42897614D01*
X222060014Y-42893277D01*
X221909670Y-42728051D01*
X221905619Y-42724852D01*
X221905615Y-42724848D01*
X221738414Y-42592800D01*
X221738410Y-42592798D01*
X221734359Y-42589598D01*
X221538789Y-42481638D01*
X221533920Y-42479914D01*
X221533916Y-42479912D01*
X221333087Y-42408795D01*
X221333083Y-42408794D01*
X221328212Y-42407069D01*
X221323119Y-42406162D01*
X221323116Y-42406161D01*
X221113373Y-42368800D01*
X221113367Y-42368799D01*
X221108284Y-42367894D01*
X221034452Y-42366992D01*
X220890081Y-42365228D01*
X220890079Y-42365228D01*
X220884911Y-42365165D01*
X220664091Y-42398955D01*
X220451756Y-42468357D01*
X220253607Y-42571507D01*
X220249474Y-42574610D01*
X220249471Y-42574612D01*
X220225247Y-42592800D01*
X220074965Y-42705635D01*
X219920629Y-42867138D01*
X219794743Y-43051680D01*
X219700688Y-43254305D01*
X219640989Y-43469570D01*
X219617251Y-43691695D01*
X219617548Y-43696848D01*
X219617548Y-43696851D01*
X219623011Y-43791590D01*
X219630110Y-43914715D01*
X219631247Y-43919761D01*
X219631248Y-43919767D01*
X219651119Y-44007939D01*
X219679222Y-44132639D01*
X219763266Y-44339616D01*
X219814019Y-44422438D01*
X219877291Y-44525688D01*
X219879987Y-44530088D01*
X220026250Y-44698938D01*
X220198126Y-44841632D01*
X220268595Y-44882811D01*
X220271445Y-44884476D01*
X220320169Y-44936114D01*
X220333240Y-45005897D01*
X220306509Y-45071669D01*
X220266055Y-45105027D01*
X220253607Y-45111507D01*
X220249474Y-45114610D01*
X220249471Y-45114612D01*
X220225247Y-45132800D01*
X220074965Y-45245635D01*
X219920629Y-45407138D01*
X219794743Y-45591680D01*
X219700688Y-45794305D01*
X219640989Y-46009570D01*
X219617251Y-46231695D01*
X219617548Y-46236848D01*
X219617548Y-46236851D01*
X219623011Y-46331590D01*
X219630110Y-46454715D01*
X219631247Y-46459761D01*
X219631248Y-46459767D01*
X219651119Y-46547939D01*
X219679222Y-46672639D01*
X219763266Y-46879616D01*
X219814019Y-46962438D01*
X219877291Y-47065688D01*
X219879987Y-47070088D01*
X220026250Y-47238938D01*
X220198126Y-47381632D01*
X220268595Y-47422811D01*
X220271445Y-47424476D01*
X220320169Y-47476114D01*
X220333240Y-47545897D01*
X220306509Y-47611669D01*
X220266055Y-47645027D01*
X220253607Y-47651507D01*
X220249474Y-47654610D01*
X220249471Y-47654612D01*
X220225247Y-47672800D01*
X220074965Y-47785635D01*
X219920629Y-47947138D01*
X219794743Y-48131680D01*
X219700688Y-48334305D01*
X219640989Y-48549570D01*
X219617251Y-48771695D01*
X219617548Y-48776848D01*
X219617548Y-48776851D01*
X219623011Y-48871590D01*
X219630110Y-48994715D01*
X219631247Y-48999761D01*
X219631248Y-48999767D01*
X219663453Y-49142668D01*
X219658917Y-49213520D01*
X219629631Y-49259464D01*
X218047747Y-50841348D01*
X218039461Y-50848888D01*
X218032982Y-50853000D01*
X218027557Y-50858777D01*
X217986357Y-50902651D01*
X217983602Y-50905493D01*
X217963865Y-50925230D01*
X217961385Y-50928427D01*
X217953682Y-50937447D01*
X217923414Y-50969679D01*
X217919595Y-50976625D01*
X217919593Y-50976628D01*
X217913652Y-50987434D01*
X217902801Y-51003953D01*
X217890386Y-51019959D01*
X217887241Y-51027228D01*
X217887238Y-51027232D01*
X217872826Y-51060537D01*
X217867609Y-51071187D01*
X217846305Y-51109940D01*
X217844334Y-51117615D01*
X217844334Y-51117616D01*
X217841267Y-51129562D01*
X217834863Y-51148266D01*
X217826819Y-51166855D01*
X217825580Y-51174678D01*
X217825577Y-51174688D01*
X217819901Y-51210524D01*
X217817495Y-51222144D01*
X217811133Y-51246924D01*
X217806500Y-51264970D01*
X217806500Y-51285224D01*
X217804949Y-51304934D01*
X217801780Y-51324943D01*
X217802526Y-51332835D01*
X217805941Y-51368961D01*
X217806500Y-51380819D01*
X217806500Y-53261233D01*
X217805973Y-53272416D01*
X217804298Y-53279909D01*
X217804547Y-53287835D01*
X217804547Y-53287836D01*
X217806438Y-53347986D01*
X217806500Y-53351945D01*
X217806500Y-53379856D01*
X217806997Y-53383790D01*
X217806997Y-53383791D01*
X217807005Y-53383856D01*
X217807938Y-53395693D01*
X217809327Y-53439889D01*
X217814978Y-53459339D01*
X217818987Y-53478700D01*
X217821526Y-53498797D01*
X217824445Y-53506168D01*
X217824445Y-53506170D01*
X217837804Y-53539912D01*
X217841649Y-53551142D01*
X217853982Y-53593593D01*
X217858015Y-53600412D01*
X217858017Y-53600417D01*
X217864293Y-53611028D01*
X217872988Y-53628776D01*
X217880448Y-53647617D01*
X217885110Y-53654033D01*
X217885110Y-53654034D01*
X217906436Y-53683387D01*
X217912952Y-53693307D01*
X217935458Y-53731362D01*
X217949779Y-53745683D01*
X217962619Y-53760716D01*
X217974528Y-53777107D01*
X217989198Y-53789243D01*
X218008605Y-53805298D01*
X218017384Y-53813288D01*
X221287978Y-57083883D01*
X221322004Y-57146195D01*
X221324883Y-57172978D01*
X221324883Y-64599701D01*
X221304881Y-64667822D01*
X221257066Y-64711462D01*
X221183973Y-64749512D01*
X221179840Y-64752615D01*
X221179837Y-64752617D01*
X221066540Y-64837683D01*
X220993523Y-64892506D01*
X220989951Y-64896244D01*
X220860090Y-65032136D01*
X220828985Y-65064685D01*
X220807012Y-65096896D01*
X220793569Y-65116603D01*
X220738657Y-65161605D01*
X220668132Y-65169776D01*
X220604385Y-65138521D01*
X220583689Y-65114038D01*
X220572600Y-65096896D01*
X220572595Y-65096890D01*
X220569789Y-65092552D01*
X220409507Y-64916404D01*
X220405456Y-64913205D01*
X220405452Y-64913201D01*
X220226661Y-64772001D01*
X220226656Y-64771998D01*
X220222607Y-64768800D01*
X220218091Y-64766307D01*
X220218088Y-64766305D01*
X220018633Y-64656200D01*
X220018629Y-64656198D01*
X220014109Y-64653703D01*
X220009240Y-64651979D01*
X220009236Y-64651977D01*
X219794488Y-64575930D01*
X219794484Y-64575929D01*
X219789613Y-64574204D01*
X219784523Y-64573297D01*
X219784518Y-64573296D01*
X219640486Y-64547641D01*
X219555147Y-64532440D01*
X219466020Y-64531351D01*
X219322178Y-64529593D01*
X219322176Y-64529593D01*
X219317008Y-64529530D01*
X219081592Y-64565554D01*
X218855221Y-64639543D01*
X218643973Y-64749512D01*
X218639840Y-64752615D01*
X218639837Y-64752617D01*
X218526540Y-64837683D01*
X218453523Y-64892506D01*
X218449951Y-64896244D01*
X218320090Y-65032136D01*
X218288985Y-65064685D01*
X218267012Y-65096896D01*
X218253569Y-65116603D01*
X218198657Y-65161605D01*
X218128132Y-65169776D01*
X218064385Y-65138521D01*
X218043689Y-65114038D01*
X218032600Y-65096896D01*
X218032595Y-65096890D01*
X218029789Y-65092552D01*
X217869507Y-64916404D01*
X217865456Y-64913205D01*
X217865452Y-64913201D01*
X217686661Y-64772001D01*
X217686656Y-64771998D01*
X217682607Y-64768800D01*
X217678091Y-64766307D01*
X217678088Y-64766305D01*
X217478633Y-64656200D01*
X217478629Y-64656198D01*
X217474109Y-64653703D01*
X217469240Y-64651979D01*
X217469236Y-64651977D01*
X217254488Y-64575930D01*
X217254484Y-64575929D01*
X217249613Y-64574204D01*
X217244523Y-64573297D01*
X217244518Y-64573296D01*
X217100486Y-64547641D01*
X217015147Y-64532440D01*
X216926020Y-64531351D01*
X216782178Y-64529593D01*
X216782176Y-64529593D01*
X216777008Y-64529530D01*
X216541592Y-64565554D01*
X216315221Y-64639543D01*
X216103973Y-64749512D01*
X216099840Y-64752615D01*
X216099837Y-64752617D01*
X215986540Y-64837683D01*
X215913523Y-64892506D01*
X215909951Y-64896244D01*
X215780090Y-65032136D01*
X215748985Y-65064685D01*
X215727012Y-65096896D01*
X215713569Y-65116603D01*
X215658657Y-65161605D01*
X215588132Y-65169776D01*
X215524385Y-65138521D01*
X215503689Y-65114038D01*
X215492600Y-65096896D01*
X215492595Y-65096890D01*
X215489789Y-65092552D01*
X215329507Y-64916404D01*
X215325456Y-64913205D01*
X215325452Y-64913201D01*
X215146661Y-64772001D01*
X215146656Y-64771998D01*
X215142607Y-64768800D01*
X215138091Y-64766307D01*
X215138088Y-64766305D01*
X214938633Y-64656200D01*
X214938629Y-64656198D01*
X214934109Y-64653703D01*
X214929240Y-64651979D01*
X214929236Y-64651977D01*
X214714488Y-64575930D01*
X214714484Y-64575929D01*
X214709613Y-64574204D01*
X214704523Y-64573297D01*
X214704518Y-64573296D01*
X214560486Y-64547641D01*
X214475147Y-64532440D01*
X214386020Y-64531351D01*
X214242178Y-64529593D01*
X214242176Y-64529593D01*
X214237008Y-64529530D01*
X214001592Y-64565554D01*
X213775221Y-64639543D01*
X213563973Y-64749512D01*
X213559840Y-64752615D01*
X213559837Y-64752617D01*
X213446540Y-64837683D01*
X213373523Y-64892506D01*
X213369951Y-64896244D01*
X213240090Y-65032136D01*
X213208985Y-65064685D01*
X213187012Y-65096896D01*
X213173569Y-65116603D01*
X213118657Y-65161605D01*
X213048132Y-65169776D01*
X212984385Y-65138521D01*
X212963689Y-65114038D01*
X212952600Y-65096896D01*
X212952595Y-65096890D01*
X212949789Y-65092552D01*
X212789507Y-64916404D01*
X212785456Y-64913205D01*
X212785452Y-64913201D01*
X212606661Y-64772001D01*
X212606656Y-64771998D01*
X212602607Y-64768800D01*
X212598091Y-64766307D01*
X212598088Y-64766305D01*
X212398633Y-64656200D01*
X212398629Y-64656198D01*
X212394109Y-64653703D01*
X212389240Y-64651979D01*
X212389236Y-64651977D01*
X212174488Y-64575930D01*
X212174484Y-64575929D01*
X212169613Y-64574204D01*
X212164523Y-64573297D01*
X212164518Y-64573296D01*
X212020486Y-64547641D01*
X211935147Y-64532440D01*
X211846020Y-64531351D01*
X211702178Y-64529593D01*
X211702176Y-64529593D01*
X211697008Y-64529530D01*
X211461592Y-64565554D01*
X211235221Y-64639543D01*
X211023973Y-64749512D01*
X211019840Y-64752615D01*
X211019837Y-64752617D01*
X210906540Y-64837683D01*
X210833523Y-64892506D01*
X210829951Y-64896244D01*
X210700090Y-65032136D01*
X210668985Y-65064685D01*
X210647012Y-65096896D01*
X210633569Y-65116603D01*
X210578657Y-65161605D01*
X210508132Y-65169776D01*
X210444385Y-65138521D01*
X210423689Y-65114038D01*
X210412600Y-65096896D01*
X210412595Y-65096890D01*
X210409789Y-65092552D01*
X210249507Y-64916404D01*
X210245456Y-64913205D01*
X210245452Y-64913201D01*
X210066661Y-64772001D01*
X210066656Y-64771998D01*
X210062607Y-64768800D01*
X210058091Y-64766307D01*
X210058088Y-64766305D01*
X209858633Y-64656200D01*
X209858629Y-64656198D01*
X209854109Y-64653703D01*
X209849240Y-64651979D01*
X209849236Y-64651977D01*
X209634488Y-64575930D01*
X209634484Y-64575929D01*
X209629613Y-64574204D01*
X209624523Y-64573297D01*
X209624518Y-64573296D01*
X209480486Y-64547641D01*
X209395147Y-64532440D01*
X209306020Y-64531351D01*
X209162178Y-64529593D01*
X209162176Y-64529593D01*
X209157008Y-64529530D01*
X208921592Y-64565554D01*
X208695221Y-64639543D01*
X208483973Y-64749512D01*
X208479840Y-64752615D01*
X208479837Y-64752617D01*
X208366540Y-64837683D01*
X208293523Y-64892506D01*
X208289951Y-64896244D01*
X208160090Y-65032136D01*
X208128985Y-65064685D01*
X208107012Y-65096896D01*
X208093569Y-65116603D01*
X208038657Y-65161605D01*
X207968132Y-65169776D01*
X207904385Y-65138521D01*
X207883689Y-65114038D01*
X207872600Y-65096896D01*
X207872595Y-65096890D01*
X207869789Y-65092552D01*
X207709507Y-64916404D01*
X207705456Y-64913205D01*
X207705452Y-64913201D01*
X207526661Y-64772001D01*
X207526656Y-64771998D01*
X207522607Y-64768800D01*
X207518091Y-64766307D01*
X207518088Y-64766305D01*
X207318633Y-64656200D01*
X207318629Y-64656198D01*
X207314109Y-64653703D01*
X207309240Y-64651979D01*
X207309236Y-64651977D01*
X207094488Y-64575930D01*
X207094484Y-64575929D01*
X207089613Y-64574204D01*
X207084523Y-64573297D01*
X207084518Y-64573296D01*
X206940486Y-64547641D01*
X206855147Y-64532440D01*
X206766020Y-64531351D01*
X206622178Y-64529593D01*
X206622176Y-64529593D01*
X206617008Y-64529530D01*
X206381592Y-64565554D01*
X206155221Y-64639543D01*
X205943973Y-64749512D01*
X205939840Y-64752615D01*
X205939837Y-64752617D01*
X205826540Y-64837683D01*
X205753523Y-64892506D01*
X205749951Y-64896244D01*
X205620090Y-65032136D01*
X205588985Y-65064685D01*
X205567012Y-65096896D01*
X205553569Y-65116603D01*
X205498657Y-65161605D01*
X205428132Y-65169776D01*
X205364385Y-65138521D01*
X205343689Y-65114038D01*
X205332600Y-65096896D01*
X205332595Y-65096890D01*
X205329789Y-65092552D01*
X205169507Y-64916404D01*
X205165456Y-64913205D01*
X205165452Y-64913201D01*
X204986661Y-64772001D01*
X204986656Y-64771998D01*
X204982607Y-64768800D01*
X204978091Y-64766307D01*
X204978088Y-64766305D01*
X204778633Y-64656200D01*
X204778629Y-64656198D01*
X204774109Y-64653703D01*
X204769240Y-64651979D01*
X204769236Y-64651977D01*
X204554488Y-64575930D01*
X204554484Y-64575929D01*
X204549613Y-64574204D01*
X204544523Y-64573297D01*
X204544518Y-64573296D01*
X204400486Y-64547641D01*
X204315147Y-64532440D01*
X204226020Y-64531351D01*
X204082178Y-64529593D01*
X204082176Y-64529593D01*
X204077008Y-64529530D01*
X203841592Y-64565554D01*
X203615221Y-64639543D01*
X203403973Y-64749512D01*
X203399840Y-64752615D01*
X203399837Y-64752617D01*
X203286540Y-64837683D01*
X203213523Y-64892506D01*
X203209951Y-64896244D01*
X203080090Y-65032136D01*
X203048985Y-65064685D01*
X203027012Y-65096896D01*
X203013569Y-65116603D01*
X202958657Y-65161605D01*
X202888132Y-65169776D01*
X202824385Y-65138521D01*
X202803689Y-65114038D01*
X202792600Y-65096896D01*
X202792595Y-65096890D01*
X202789789Y-65092552D01*
X202629507Y-64916404D01*
X202625456Y-64913205D01*
X202625452Y-64913201D01*
X202446661Y-64772001D01*
X202446656Y-64771998D01*
X202442607Y-64768800D01*
X202438091Y-64766307D01*
X202438088Y-64766305D01*
X202238633Y-64656200D01*
X202238629Y-64656198D01*
X202234109Y-64653703D01*
X202229240Y-64651979D01*
X202229236Y-64651977D01*
X202014488Y-64575930D01*
X202014484Y-64575929D01*
X202009613Y-64574204D01*
X202004523Y-64573297D01*
X202004518Y-64573296D01*
X201860486Y-64547641D01*
X201775147Y-64532440D01*
X201686020Y-64531351D01*
X201542178Y-64529593D01*
X201542176Y-64529593D01*
X201537008Y-64529530D01*
X201301592Y-64565554D01*
X201075221Y-64639543D01*
X200863973Y-64749512D01*
X200859840Y-64752615D01*
X200859837Y-64752617D01*
X200746540Y-64837683D01*
X200673523Y-64892506D01*
X200669951Y-64896244D01*
X200540090Y-65032136D01*
X200508985Y-65064685D01*
X200487012Y-65096896D01*
X200473569Y-65116603D01*
X200418657Y-65161605D01*
X200348132Y-65169776D01*
X200284385Y-65138521D01*
X200263689Y-65114038D01*
X200252600Y-65096896D01*
X200252595Y-65096890D01*
X200249789Y-65092552D01*
X200089507Y-64916404D01*
X200085456Y-64913205D01*
X200085452Y-64913201D01*
X199906661Y-64772001D01*
X199906656Y-64771998D01*
X199902607Y-64768800D01*
X199898091Y-64766307D01*
X199898088Y-64766305D01*
X199698633Y-64656200D01*
X199698629Y-64656198D01*
X199694109Y-64653703D01*
X199689240Y-64651979D01*
X199689236Y-64651977D01*
X199474488Y-64575930D01*
X199474484Y-64575929D01*
X199469613Y-64574204D01*
X199464523Y-64573297D01*
X199464518Y-64573296D01*
X199320486Y-64547641D01*
X199235147Y-64532440D01*
X199146020Y-64531351D01*
X199002178Y-64529593D01*
X199002176Y-64529593D01*
X198997008Y-64529530D01*
X198761592Y-64565554D01*
X198535221Y-64639543D01*
X198323973Y-64749512D01*
X198319840Y-64752615D01*
X198319837Y-64752617D01*
X198206540Y-64837683D01*
X198133523Y-64892506D01*
X198129951Y-64896244D01*
X198000090Y-65032136D01*
X197968985Y-65064685D01*
X197947012Y-65096896D01*
X197933569Y-65116603D01*
X197878657Y-65161605D01*
X197808132Y-65169776D01*
X197744385Y-65138521D01*
X197723689Y-65114038D01*
X197712600Y-65096896D01*
X197712595Y-65096890D01*
X197709789Y-65092552D01*
X197549507Y-64916404D01*
X197545456Y-64913205D01*
X197545452Y-64913201D01*
X197366661Y-64772001D01*
X197366656Y-64771998D01*
X197362607Y-64768800D01*
X197358091Y-64766307D01*
X197358088Y-64766305D01*
X197158633Y-64656200D01*
X197158629Y-64656198D01*
X197154109Y-64653703D01*
X197149240Y-64651979D01*
X197149236Y-64651977D01*
X196934488Y-64575930D01*
X196934484Y-64575929D01*
X196929613Y-64574204D01*
X196924523Y-64573297D01*
X196924518Y-64573296D01*
X196780486Y-64547641D01*
X196695147Y-64532440D01*
X196606020Y-64531351D01*
X196462178Y-64529593D01*
X196462176Y-64529593D01*
X196457008Y-64529530D01*
X196221592Y-64565554D01*
X195995221Y-64639543D01*
X195783973Y-64749512D01*
X195779840Y-64752615D01*
X195779837Y-64752617D01*
X195666540Y-64837683D01*
X195593523Y-64892506D01*
X195589951Y-64896244D01*
X195460090Y-65032136D01*
X195428985Y-65064685D01*
X195407012Y-65096896D01*
X195393569Y-65116603D01*
X195338657Y-65161605D01*
X195268132Y-65169776D01*
X195204385Y-65138521D01*
X195183689Y-65114038D01*
X195172600Y-65096896D01*
X195172595Y-65096890D01*
X195169789Y-65092552D01*
X195009507Y-64916404D01*
X195005456Y-64913205D01*
X195005452Y-64913201D01*
X194826661Y-64772001D01*
X194826656Y-64771998D01*
X194822607Y-64768800D01*
X194818091Y-64766307D01*
X194818088Y-64766305D01*
X194618633Y-64656200D01*
X194618629Y-64656198D01*
X194614109Y-64653703D01*
X194609240Y-64651979D01*
X194609236Y-64651977D01*
X194394488Y-64575930D01*
X194394484Y-64575929D01*
X194389613Y-64574204D01*
X194384523Y-64573297D01*
X194384518Y-64573296D01*
X194240486Y-64547641D01*
X194155147Y-64532440D01*
X194066020Y-64531351D01*
X193922178Y-64529593D01*
X193922176Y-64529593D01*
X193917008Y-64529530D01*
X193681592Y-64565554D01*
X193455221Y-64639543D01*
X193243973Y-64749512D01*
X193239840Y-64752615D01*
X193239837Y-64752617D01*
X193126540Y-64837683D01*
X193053523Y-64892506D01*
X193049951Y-64896244D01*
X192920090Y-65032136D01*
X192888985Y-65064685D01*
X192886074Y-65068953D01*
X192886070Y-65068958D01*
X192853569Y-65116603D01*
X192754777Y-65261426D01*
X192654505Y-65477445D01*
X192590860Y-65706939D01*
X192590311Y-65712073D01*
X192590311Y-65712075D01*
X192584832Y-65763343D01*
X192565553Y-65943748D01*
X192565850Y-65948900D01*
X192565850Y-65948904D01*
X192568694Y-65998223D01*
X192552646Y-66067382D01*
X192501756Y-66116887D01*
X192432180Y-66131019D01*
X192364811Y-66104358D01*
X192286387Y-66042423D01*
X192277800Y-66036718D01*
X192078438Y-65926664D01*
X192069026Y-65922434D01*
X191854354Y-65846414D01*
X191844397Y-65843784D01*
X191620188Y-65803845D01*
X191609937Y-65802876D01*
X191382213Y-65800094D01*
X191371929Y-65800814D01*
X191146820Y-65835260D01*
X191136793Y-65837649D01*
X190920334Y-65908398D01*
X190910825Y-65912395D01*
X190708834Y-66017546D01*
X190700099Y-66023047D01*
X190663918Y-66050212D01*
X190655464Y-66061539D01*
X187753608Y-66061539D01*
X187708262Y-66027554D01*
X187692667Y-66019016D01*
X187572219Y-65973862D01*
X187556964Y-65970235D01*
X187506099Y-65964709D01*
X187499285Y-65964340D01*
X186876728Y-65964340D01*
X186861489Y-65968815D01*
X186860284Y-65970205D01*
X186858613Y-65977888D01*
X186858613Y-67050225D01*
X186350613Y-67050225D01*
X186350613Y-65982456D01*
X186346138Y-65967217D01*
X186344748Y-65966012D01*
X186337065Y-65964341D01*
X185709944Y-65964341D01*
X185703123Y-65964711D01*
X185652261Y-65970235D01*
X185637009Y-65973861D01*
X185516559Y-66019016D01*
X185500964Y-66027554D01*
X185398889Y-66104055D01*
X185386328Y-66116616D01*
X185309827Y-66218691D01*
X185301289Y-66234286D01*
X185256135Y-66354734D01*
X185252508Y-66369989D01*
X185246982Y-66420854D01*
X185246613Y-66427668D01*
X185246613Y-67050225D01*
X160528500Y-67050225D01*
X160528500Y-66893186D01*
X162533724Y-66893186D01*
X162535920Y-66907350D01*
X162549107Y-66911143D01*
X163745470Y-66911143D01*
X163760709Y-66906668D01*
X163761914Y-66905278D01*
X163763585Y-66897595D01*
X163763585Y-66893028D01*
X164271585Y-66893028D01*
X164276060Y-66908267D01*
X164277450Y-66909472D01*
X164285133Y-66911143D01*
X165483777Y-66911143D01*
X165497308Y-66907170D01*
X165498833Y-66896563D01*
X165474108Y-66778722D01*
X165471048Y-66768526D01*
X165390322Y-66564114D01*
X165385591Y-66554582D01*
X165271569Y-66366681D01*
X165265305Y-66358091D01*
X165121258Y-66192091D01*
X165113627Y-66184671D01*
X164943674Y-66045317D01*
X164934907Y-66039293D01*
X164743903Y-65930567D01*
X164734239Y-65926102D01*
X164527644Y-65851112D01*
X164517377Y-65848341D01*
X164299930Y-65809020D01*
X164291701Y-65808087D01*
X164287209Y-65807875D01*
X164274461Y-65811618D01*
X164273256Y-65813008D01*
X164271585Y-65820691D01*
X164271585Y-66893028D01*
X163763585Y-66893028D01*
X163763585Y-65829173D01*
X163759275Y-65814495D01*
X163747392Y-65812432D01*
X163643260Y-65821267D01*
X163632788Y-65823057D01*
X163420050Y-65878273D01*
X163410010Y-65881808D01*
X163209615Y-65972080D01*
X163200329Y-65977249D01*
X163018010Y-66099993D01*
X163009715Y-66106662D01*
X162850685Y-66258371D01*
X162843644Y-66266329D01*
X162712444Y-66442668D01*
X162706840Y-66451705D01*
X162607228Y-66647627D01*
X162603228Y-66657478D01*
X162538051Y-66867383D01*
X162535768Y-66877767D01*
X162533724Y-66893186D01*
X160528500Y-66893186D01*
X160528500Y-63626000D01*
X160548502Y-63557879D01*
X160602158Y-63511386D01*
X160654500Y-63500000D01*
X170180000Y-63500000D01*
X170180000Y-60952750D01*
X191776524Y-60952750D01*
X191794894Y-61154596D01*
X191796632Y-61160502D01*
X191796633Y-61160506D01*
X191814695Y-61221875D01*
X191852119Y-61349029D01*
X191854972Y-61354486D01*
X191854973Y-61354489D01*
X191883180Y-61408444D01*
X191946019Y-61528645D01*
X191949879Y-61533445D01*
X191949879Y-61533446D01*
X191971121Y-61559865D01*
X192073019Y-61686601D01*
X192228281Y-61816881D01*
X192233673Y-61819845D01*
X192233677Y-61819848D01*
X192329000Y-61872252D01*
X192405891Y-61914523D01*
X192599084Y-61975807D01*
X192605201Y-61976493D01*
X192605205Y-61976494D01*
X192679348Y-61984810D01*
X192756817Y-61993500D01*
X193316004Y-61993500D01*
X193466713Y-61978723D01*
X193660742Y-61920142D01*
X193730130Y-61883248D01*
X193789283Y-61868500D01*
X214673189Y-61868500D01*
X214692898Y-61870051D01*
X214706796Y-61872252D01*
X214713383Y-61871907D01*
X214713388Y-61871907D01*
X214775086Y-61868673D01*
X214781680Y-61868500D01*
X214802216Y-61868500D01*
X214805488Y-61868156D01*
X214805490Y-61868156D01*
X214822648Y-61866353D01*
X214829222Y-61865836D01*
X214890914Y-61862603D01*
X214890918Y-61862602D01*
X214897509Y-61862257D01*
X214903890Y-61860547D01*
X214903892Y-61860547D01*
X214911097Y-61858617D01*
X214930531Y-61855015D01*
X214937960Y-61854234D01*
X214937969Y-61854232D01*
X214944534Y-61853542D01*
X215009603Y-61832400D01*
X215015905Y-61830533D01*
X215066854Y-61816881D01*
X215075602Y-61814537D01*
X215075603Y-61814537D01*
X215081976Y-61812829D01*
X215094514Y-61806440D01*
X215112780Y-61798875D01*
X215119878Y-61796569D01*
X215119880Y-61796568D01*
X215126162Y-61794527D01*
X215154267Y-61778301D01*
X215185388Y-61760333D01*
X215191185Y-61757185D01*
X215252136Y-61726129D01*
X215263073Y-61717273D01*
X215279369Y-61706073D01*
X215285830Y-61702343D01*
X215285834Y-61702340D01*
X215291550Y-61699040D01*
X215296456Y-61694623D01*
X215296461Y-61694619D01*
X215342375Y-61653278D01*
X215347390Y-61648994D01*
X215360783Y-61638148D01*
X215363347Y-61636072D01*
X215377862Y-61621557D01*
X215382647Y-61617016D01*
X215428563Y-61575673D01*
X215433472Y-61571253D01*
X215441746Y-61559865D01*
X215454587Y-61544832D01*
X216677092Y-60322327D01*
X216739404Y-60288301D01*
X216755202Y-60285902D01*
X216833860Y-60279020D01*
X216963562Y-60267673D01*
X216963567Y-60267672D01*
X216969043Y-60267193D01*
X216974356Y-60265769D01*
X216974358Y-60265769D01*
X217184889Y-60209357D01*
X217184891Y-60209356D01*
X217190199Y-60207934D01*
X217196191Y-60205140D01*
X217392718Y-60113499D01*
X217392723Y-60113496D01*
X217397705Y-60111173D01*
X217471198Y-60059712D01*
X218519449Y-60059712D01*
X218528745Y-60071727D01*
X218579950Y-60107581D01*
X218589445Y-60113064D01*
X218786903Y-60205140D01*
X218797195Y-60208886D01*
X219007644Y-60265275D01*
X219018437Y-60267178D01*
X219235481Y-60286167D01*
X219246431Y-60286167D01*
X219463475Y-60267178D01*
X219474268Y-60265275D01*
X219684717Y-60208886D01*
X219695009Y-60205140D01*
X219892467Y-60113064D01*
X219901962Y-60107581D01*
X219954004Y-60071141D01*
X219962380Y-60060662D01*
X219955312Y-60047216D01*
X219253768Y-59345672D01*
X219239824Y-59338058D01*
X219237991Y-59338189D01*
X219231376Y-59342440D01*
X218525879Y-60047937D01*
X218519449Y-60059712D01*
X217471198Y-60059712D01*
X217511492Y-60031498D01*
X217580745Y-59983007D01*
X217580748Y-59983005D01*
X217585256Y-59979848D01*
X217747154Y-59817950D01*
X217802191Y-59739350D01*
X217875325Y-59634903D01*
X217878479Y-59630399D01*
X217880803Y-59625415D01*
X217882127Y-59623122D01*
X217933509Y-59574129D01*
X218003223Y-59560693D01*
X218069134Y-59587079D01*
X218100365Y-59623122D01*
X218107022Y-59634652D01*
X218143465Y-59686698D01*
X218153944Y-59695074D01*
X218167390Y-59688006D01*
X218868934Y-58986462D01*
X218875312Y-58974782D01*
X219605364Y-58974782D01*
X219605495Y-58976615D01*
X219609746Y-58983230D01*
X220315243Y-59688727D01*
X220327018Y-59695157D01*
X220339033Y-59685861D01*
X220374887Y-59634656D01*
X220380370Y-59625161D01*
X220472446Y-59427703D01*
X220476192Y-59417411D01*
X220532581Y-59206962D01*
X220534484Y-59196169D01*
X220553473Y-58979125D01*
X220553473Y-58968175D01*
X220534484Y-58751131D01*
X220532581Y-58740338D01*
X220476192Y-58529889D01*
X220472446Y-58519597D01*
X220380370Y-58322139D01*
X220374887Y-58312644D01*
X220338447Y-58260602D01*
X220327968Y-58252226D01*
X220314522Y-58259294D01*
X219612978Y-58960838D01*
X219605364Y-58974782D01*
X218875312Y-58974782D01*
X218876548Y-58972518D01*
X218876417Y-58970685D01*
X218872166Y-58964070D01*
X218166669Y-58258573D01*
X218154894Y-58252143D01*
X218142879Y-58261439D01*
X218107022Y-58312648D01*
X218100365Y-58324178D01*
X218048983Y-58373171D01*
X217979269Y-58386608D01*
X217913358Y-58360221D01*
X217882127Y-58324178D01*
X217880803Y-58321885D01*
X217878479Y-58316901D01*
X217770803Y-58163124D01*
X217750313Y-58133861D01*
X217750311Y-58133858D01*
X217747154Y-58129350D01*
X217585256Y-57967452D01*
X217580748Y-57964295D01*
X217580745Y-57964293D01*
X217469842Y-57886638D01*
X218519532Y-57886638D01*
X218526600Y-57900084D01*
X219228144Y-58601628D01*
X219242088Y-58609242D01*
X219243921Y-58609111D01*
X219250536Y-58604860D01*
X219956033Y-57899363D01*
X219962463Y-57887588D01*
X219953167Y-57875573D01*
X219901962Y-57839719D01*
X219892467Y-57834236D01*
X219695009Y-57742160D01*
X219684717Y-57738414D01*
X219474268Y-57682025D01*
X219463475Y-57680122D01*
X219246431Y-57661133D01*
X219235481Y-57661133D01*
X219018437Y-57680122D01*
X219007644Y-57682025D01*
X218797195Y-57738414D01*
X218786903Y-57742160D01*
X218589445Y-57834236D01*
X218579950Y-57839719D01*
X218527908Y-57876159D01*
X218519532Y-57886638D01*
X217469842Y-57886638D01*
X217454876Y-57876159D01*
X217397705Y-57836127D01*
X217392723Y-57833804D01*
X217392718Y-57833801D01*
X217195181Y-57741689D01*
X217195180Y-57741689D01*
X217190199Y-57739366D01*
X217184891Y-57737944D01*
X217184889Y-57737943D01*
X216974358Y-57681531D01*
X216974356Y-57681531D01*
X216969043Y-57680107D01*
X216740956Y-57660152D01*
X216512869Y-57680107D01*
X216507556Y-57681531D01*
X216507554Y-57681531D01*
X216297023Y-57737943D01*
X216297021Y-57737944D01*
X216291713Y-57739366D01*
X216286732Y-57741689D01*
X216286731Y-57741689D01*
X216089194Y-57833801D01*
X216089189Y-57833804D01*
X216084207Y-57836127D01*
X216027036Y-57876159D01*
X215901167Y-57964293D01*
X215901164Y-57964295D01*
X215896656Y-57967452D01*
X215734758Y-58129350D01*
X215731601Y-58133858D01*
X215731599Y-58133861D01*
X215713202Y-58160135D01*
X215603433Y-58316901D01*
X215601110Y-58321883D01*
X215601107Y-58321888D01*
X215577194Y-58373171D01*
X215506672Y-58524407D01*
X215505250Y-58529715D01*
X215505249Y-58529717D01*
X215448837Y-58740248D01*
X215447413Y-58745563D01*
X215446934Y-58751039D01*
X215446933Y-58751044D01*
X215428705Y-58959400D01*
X215402842Y-59025519D01*
X215392279Y-59037514D01*
X214415198Y-60014595D01*
X214352886Y-60048621D01*
X214326103Y-60051500D01*
X194404827Y-60051500D01*
X194336706Y-60031498D01*
X194290213Y-59977842D01*
X194280109Y-59907568D01*
X194280790Y-59903666D01*
X194282290Y-59898820D01*
X194303476Y-59697250D01*
X194285106Y-59495404D01*
X194279188Y-59475294D01*
X194229620Y-59306881D01*
X194227881Y-59300971D01*
X194228559Y-59300771D01*
X194222044Y-59234727D01*
X194235320Y-59197677D01*
X194243321Y-59183063D01*
X194288478Y-59062606D01*
X194292105Y-59047351D01*
X194297631Y-58996486D01*
X194298000Y-58989672D01*
X194298000Y-58692115D01*
X194293525Y-58676876D01*
X194292135Y-58675671D01*
X194284452Y-58674000D01*
X193486242Y-58674000D01*
X193472197Y-58673215D01*
X193457799Y-58671600D01*
X193323183Y-58656500D01*
X192763996Y-58656500D01*
X192613287Y-58671277D01*
X192610998Y-58671968D01*
X192590276Y-58674000D01*
X191800116Y-58674000D01*
X191784877Y-58678475D01*
X191783672Y-58679865D01*
X191782001Y-58687548D01*
X191782001Y-58989669D01*
X191782371Y-58996490D01*
X191787895Y-59047352D01*
X191791521Y-59062604D01*
X191836677Y-59183056D01*
X191845114Y-59198466D01*
X191860284Y-59267823D01*
X191854960Y-59296235D01*
X191797710Y-59481180D01*
X191797066Y-59487305D01*
X191797066Y-59487306D01*
X191786579Y-59587079D01*
X191776524Y-59682750D01*
X191779703Y-59717678D01*
X191788829Y-59817950D01*
X191794894Y-59884596D01*
X191796632Y-59890502D01*
X191796633Y-59890506D01*
X191799080Y-59898820D01*
X191852119Y-60079029D01*
X191945923Y-60258460D01*
X191945923Y-60258462D01*
X191946019Y-60258645D01*
X191945984Y-60258663D01*
X191965889Y-60324441D01*
X191950729Y-60385409D01*
X191857644Y-60557565D01*
X191797710Y-60751180D01*
X191797066Y-60757305D01*
X191797066Y-60757306D01*
X191788899Y-60835011D01*
X191776524Y-60952750D01*
X170180000Y-60952750D01*
X170180000Y-58147885D01*
X191782000Y-58147885D01*
X191786475Y-58163124D01*
X191787865Y-58164329D01*
X191795548Y-58166000D01*
X192767885Y-58166000D01*
X192783124Y-58161525D01*
X192784329Y-58160135D01*
X192786000Y-58152452D01*
X192786000Y-58147885D01*
X193294000Y-58147885D01*
X193298475Y-58163124D01*
X193299865Y-58164329D01*
X193307548Y-58166000D01*
X194279884Y-58166000D01*
X194295123Y-58161525D01*
X194296328Y-58160135D01*
X194297999Y-58152452D01*
X194297999Y-57850331D01*
X194297629Y-57843510D01*
X194292105Y-57792648D01*
X194288479Y-57777396D01*
X194243324Y-57656946D01*
X194234786Y-57641351D01*
X194158285Y-57539276D01*
X194145724Y-57526715D01*
X194043649Y-57450214D01*
X194028054Y-57441676D01*
X193907606Y-57396522D01*
X193892351Y-57392895D01*
X193841486Y-57387369D01*
X193834672Y-57387000D01*
X193312115Y-57387000D01*
X193296876Y-57391475D01*
X193295671Y-57392865D01*
X193294000Y-57400548D01*
X193294000Y-58147885D01*
X192786000Y-58147885D01*
X192786000Y-57405116D01*
X192781525Y-57389877D01*
X192780135Y-57388672D01*
X192772452Y-57387001D01*
X192245331Y-57387001D01*
X192238510Y-57387371D01*
X192187648Y-57392895D01*
X192172396Y-57396521D01*
X192051946Y-57441676D01*
X192036351Y-57450214D01*
X191934276Y-57526715D01*
X191921715Y-57539276D01*
X191845214Y-57641351D01*
X191836676Y-57656946D01*
X191791522Y-57777394D01*
X191787895Y-57792649D01*
X191782369Y-57843514D01*
X191782000Y-57850328D01*
X191782000Y-58147885D01*
X170180000Y-58147885D01*
X170180000Y-38226000D01*
X170200002Y-38157879D01*
X170253658Y-38111386D01*
X170306000Y-38100000D01*
X226002146Y-38100000D01*
X226070267Y-38120002D01*
G37*
G04 #@! TD.AperFunction*
M02*
