M48
; DRILL file {KiCad (6.0.8-1)-1} date 2023 January 08, Sunday 15:16:00
; FORMAT={-:-/ absolute / metric / decimal}
; #@! TF.CreationDate,2023-01-08T15:16:00+01:00
; #@! TF.GenerationSoftware,Kicad,Pcbnew,(6.0.8-1)-1
; #@! TF.FileFunction,Plated,1,2,PTH
FMAT,2
METRIC
; #@! TA.AperFunction,Plated,PTH,ComponentDrill
T1C0.750
; #@! TA.AperFunction,Plated,PTH,ComponentDrill
T2C0.800
; #@! TA.AperFunction,Plated,PTH,ComponentDrill
T3C1.000
; #@! TA.AperFunction,Plated,PTH,ComponentDrill
T4C1.016
%
G90
G05
T1
X193.04Y-58.42
X193.04Y-59.69
X193.04Y-60.96
T2
X216.741Y-58.974
X219.241Y-58.974
X231.14Y-50.84
X231.14Y-53.34
T3
X164.018Y-67.165
X164.018Y-69.665
X175.3Y-72.999
X176.76Y-79.219
X176.76Y-81.759
X176.76Y-84.299
X177.8Y-72.999
X186.605Y-67.322
X186.605Y-69.862
X186.605Y-72.402
X186.605Y-74.942
X186.605Y-77.482
X186.605Y-80.022
X220.98Y-43.725
X220.98Y-46.265
X220.98Y-48.805
X220.98Y-51.345
X223.52Y-43.725
X223.52Y-46.265
X223.52Y-48.805
X223.52Y-51.345
X229.474Y-62.285
X229.474Y-64.825
X229.474Y-67.365
X229.474Y-69.905
X229.474Y-72.445
X229.474Y-74.985
T4
X191.478Y-67.249
X191.478Y-69.789
X191.478Y-72.329
X191.478Y-74.869
X191.478Y-77.409
X191.478Y-79.949
X194.018Y-65.979
X194.018Y-81.219
X196.558Y-65.979
X196.558Y-81.219
X199.098Y-65.979
X199.098Y-81.219
X201.638Y-65.979
X201.638Y-81.219
X202.781Y-68.9
X204.178Y-65.979
X204.178Y-81.219
X205.321Y-68.9
X206.718Y-65.979
X206.718Y-81.219
X209.258Y-65.979
X209.258Y-81.219
X211.798Y-65.979
X211.798Y-81.219
X214.338Y-65.979
X214.338Y-81.219
X216.878Y-65.979
X216.878Y-81.219
X219.418Y-65.979
X219.418Y-81.219
X221.958Y-65.979
X221.958Y-81.219
T0
M30
