G04 #@! TF.GenerationSoftware,KiCad,Pcbnew,(6.0.8-1)-1*
G04 #@! TF.CreationDate,2023-01-08T15:15:57+01:00*
G04 #@! TF.ProjectId,Xarxa_RF,58617278-615f-4524-962e-6b696361645f,rev?*
G04 #@! TF.SameCoordinates,Original*
G04 #@! TF.FileFunction,Legend,Top*
G04 #@! TF.FilePolarity,Positive*
%FSLAX46Y46*%
G04 Gerber Fmt 4.6, Leading zero omitted, Abs format (unit mm)*
G04 Created by KiCad (PCBNEW (6.0.8-1)-1) date 2023-01-08 15:15:57*
%MOMM*%
%LPD*%
G01*
G04 APERTURE LIST*
G04 Aperture macros list*
%AMRoundRect*
0 Rectangle with rounded corners*
0 $1 Rounding radius*
0 $2 $3 $4 $5 $6 $7 $8 $9 X,Y pos of 4 corners*
0 Add a 4 corners polygon primitive as box body*
4,1,4,$2,$3,$4,$5,$6,$7,$8,$9,$2,$3,0*
0 Add four circle primitives for the rounded corners*
1,1,$1+$1,$2,$3*
1,1,$1+$1,$4,$5*
1,1,$1+$1,$6,$7*
1,1,$1+$1,$8,$9*
0 Add four rect primitives between the rounded corners*
20,1,$1+$1,$2,$3,$4,$5,0*
20,1,$1+$1,$4,$5,$6,$7,0*
20,1,$1+$1,$6,$7,$8,$9,0*
20,1,$1+$1,$8,$9,$2,$3,0*%
G04 Aperture macros list end*
%ADD10C,0.200000*%
%ADD11C,0.300000*%
%ADD12C,0.150000*%
%ADD13C,0.010000*%
%ADD14C,0.127000*%
%ADD15C,0.120000*%
%ADD16C,3.200000*%
%ADD17C,1.879600*%
%ADD18C,1.880000*%
%ADD19RoundRect,0.250000X0.750000X-0.600000X0.750000X0.600000X-0.750000X0.600000X-0.750000X-0.600000X0*%
%ADD20O,2.000000X1.700000*%
%ADD21R,1.500000X1.050000*%
%ADD22O,1.500000X1.050000*%
%ADD23RoundRect,0.250000X0.600000X0.750000X-0.600000X0.750000X-0.600000X-0.750000X0.600000X-0.750000X0*%
%ADD24O,1.700000X2.000000*%
%ADD25R,1.700000X1.700000*%
%ADD26O,1.700000X1.700000*%
%ADD27C,1.600000*%
%ADD28R,1.800000X1.800000*%
%ADD29C,1.800000*%
%ADD30C,1.700000*%
G04 APERTURE END LIST*
D10*
X189166480Y-49143012D02*
G75*
G03*
X189166480Y-49143012I-12500000J0D01*
G01*
D11*
X167112857Y-52014285D02*
X167327142Y-52157142D01*
X167684285Y-52157142D01*
X167827142Y-52014285D01*
X167898571Y-51871428D01*
X167970000Y-51585714D01*
X167970000Y-51300000D01*
X167898571Y-51014285D01*
X167827142Y-50871428D01*
X167684285Y-50728571D01*
X167398571Y-50585714D01*
X167255714Y-50442857D01*
X167184285Y-50300000D01*
X167112857Y-50014285D01*
X167112857Y-49728571D01*
X167184285Y-49442857D01*
X167255714Y-49300000D01*
X167398571Y-49157142D01*
X167755714Y-49157142D01*
X167970000Y-49300000D01*
X169255714Y-50157142D02*
X169255714Y-52157142D01*
X168612857Y-50157142D02*
X168612857Y-51728571D01*
X168684285Y-52014285D01*
X168827142Y-52157142D01*
X169041428Y-52157142D01*
X169184285Y-52014285D01*
X169255714Y-51871428D01*
X169970000Y-50157142D02*
X169970000Y-53157142D01*
X169970000Y-50300000D02*
X170112857Y-50157142D01*
X170398571Y-50157142D01*
X170541428Y-50300000D01*
X170612857Y-50442857D01*
X170684285Y-50728571D01*
X170684285Y-51585714D01*
X170612857Y-51871428D01*
X170541428Y-52014285D01*
X170398571Y-52157142D01*
X170112857Y-52157142D01*
X169970000Y-52014285D01*
X171898571Y-52014285D02*
X171755714Y-52157142D01*
X171470000Y-52157142D01*
X171327142Y-52014285D01*
X171255714Y-51728571D01*
X171255714Y-50585714D01*
X171327142Y-50300000D01*
X171470000Y-50157142D01*
X171755714Y-50157142D01*
X171898571Y-50300000D01*
X171970000Y-50585714D01*
X171970000Y-50871428D01*
X171255714Y-51157142D01*
X172612857Y-52157142D02*
X172612857Y-50157142D01*
X172612857Y-50728571D02*
X172684285Y-50442857D01*
X172755714Y-50300000D01*
X172898571Y-50157142D01*
X173041428Y-50157142D01*
X174398571Y-51871428D02*
X174327142Y-52014285D01*
X174112857Y-52157142D01*
X173970000Y-52157142D01*
X173755714Y-52014285D01*
X173612857Y-51728571D01*
X173541428Y-51442857D01*
X173470000Y-50871428D01*
X173470000Y-50442857D01*
X173541428Y-49871428D01*
X173612857Y-49585714D01*
X173755714Y-49300000D01*
X173970000Y-49157142D01*
X174112857Y-49157142D01*
X174327142Y-49300000D01*
X174398571Y-49442857D01*
X175684285Y-52157142D02*
X175684285Y-50585714D01*
X175612857Y-50300000D01*
X175470000Y-50157142D01*
X175184285Y-50157142D01*
X175041428Y-50300000D01*
X175684285Y-52014285D02*
X175541428Y-52157142D01*
X175184285Y-52157142D01*
X175041428Y-52014285D01*
X174970000Y-51728571D01*
X174970000Y-51442857D01*
X175041428Y-51157142D01*
X175184285Y-51014285D01*
X175541428Y-51014285D01*
X175684285Y-50871428D01*
X176398571Y-50157142D02*
X176398571Y-53157142D01*
X176398571Y-50300000D02*
X176541428Y-50157142D01*
X176827142Y-50157142D01*
X176970000Y-50300000D01*
X177041428Y-50442857D01*
X177112857Y-50728571D01*
X177112857Y-51585714D01*
X177041428Y-51871428D01*
X176970000Y-52014285D01*
X176827142Y-52157142D01*
X176541428Y-52157142D01*
X176398571Y-52014285D01*
X177684285Y-52014285D02*
X177827142Y-52157142D01*
X178112857Y-52157142D01*
X178255714Y-52014285D01*
X178327142Y-51728571D01*
X178327142Y-51585714D01*
X178255714Y-51300000D01*
X178112857Y-51157142D01*
X177898571Y-51157142D01*
X177755714Y-51014285D01*
X177684285Y-50728571D01*
X177684285Y-50585714D01*
X177755714Y-50300000D01*
X177898571Y-50157142D01*
X178112857Y-50157142D01*
X178255714Y-50300000D01*
X229286320Y-56264640D02*
X230657749Y-56264640D01*
X229972035Y-56950354D02*
X229972035Y-55578926D01*
D12*
X224750049Y-80504015D02*
X224750049Y-80027825D01*
X225035763Y-80599254D02*
X224035763Y-80265920D01*
X225035763Y-79932587D01*
X225035763Y-79027825D02*
X224559573Y-79361158D01*
X225035763Y-79599254D02*
X224035763Y-79599254D01*
X224035763Y-79218301D01*
X224083383Y-79123063D01*
X224131002Y-79075444D01*
X224226240Y-79027825D01*
X224369097Y-79027825D01*
X224464335Y-79075444D01*
X224511954Y-79123063D01*
X224559573Y-79218301D01*
X224559573Y-79599254D01*
X225035763Y-78599254D02*
X224035763Y-78599254D01*
X224035763Y-78361158D01*
X224083383Y-78218301D01*
X224178621Y-78123063D01*
X224273859Y-78075444D01*
X224464335Y-78027825D01*
X224607192Y-78027825D01*
X224797668Y-78075444D01*
X224892906Y-78123063D01*
X224988144Y-78218301D01*
X225035763Y-78361158D01*
X225035763Y-78599254D01*
X224035763Y-77599254D02*
X224845287Y-77599254D01*
X224940525Y-77551634D01*
X224988144Y-77504015D01*
X225035763Y-77408777D01*
X225035763Y-77218301D01*
X224988144Y-77123063D01*
X224940525Y-77075444D01*
X224845287Y-77027825D01*
X224035763Y-77027825D01*
X225035763Y-76551634D02*
X224035763Y-76551634D01*
X225035763Y-76075444D02*
X224035763Y-76075444D01*
X225035763Y-75504015D01*
X224035763Y-75504015D01*
X224035763Y-74837349D02*
X224035763Y-74646873D01*
X224083383Y-74551634D01*
X224178621Y-74456396D01*
X224369097Y-74408777D01*
X224702430Y-74408777D01*
X224892906Y-74456396D01*
X224988144Y-74551634D01*
X225035763Y-74646873D01*
X225035763Y-74837349D01*
X224988144Y-74932587D01*
X224892906Y-75027825D01*
X224702430Y-75075444D01*
X224369097Y-75075444D01*
X224178621Y-75027825D01*
X224083383Y-74932587D01*
X224035763Y-74837349D01*
X225131002Y-74218301D02*
X225131002Y-73456396D01*
X225035763Y-73218301D02*
X224035763Y-73218301D01*
X224035763Y-72837349D01*
X224083383Y-72742111D01*
X224131002Y-72694492D01*
X224226240Y-72646873D01*
X224369097Y-72646873D01*
X224464335Y-72694492D01*
X224511954Y-72742111D01*
X224559573Y-72837349D01*
X224559573Y-73218301D01*
X225035763Y-71646873D02*
X224559573Y-71980206D01*
X225035763Y-72218301D02*
X224035763Y-72218301D01*
X224035763Y-71837349D01*
X224083383Y-71742111D01*
X224131002Y-71694492D01*
X224226240Y-71646873D01*
X224369097Y-71646873D01*
X224464335Y-71694492D01*
X224511954Y-71742111D01*
X224559573Y-71837349D01*
X224559573Y-72218301D01*
X224035763Y-71027825D02*
X224035763Y-70837349D01*
X224083383Y-70742111D01*
X224178621Y-70646873D01*
X224369097Y-70599254D01*
X224702430Y-70599254D01*
X224892906Y-70646873D01*
X224988144Y-70742111D01*
X225035763Y-70837349D01*
X225035763Y-71027825D01*
X224988144Y-71123063D01*
X224892906Y-71218301D01*
X224702430Y-71265920D01*
X224369097Y-71265920D01*
X224178621Y-71218301D01*
X224083383Y-71123063D01*
X224035763Y-71027825D01*
X225131002Y-70408777D02*
X225131002Y-69646873D01*
X225035763Y-69408777D02*
X224035763Y-69408777D01*
X224750049Y-69075444D01*
X224035763Y-68742111D01*
X225035763Y-68742111D01*
X225035763Y-68265920D02*
X224035763Y-68265920D01*
X225035763Y-67789730D02*
X224035763Y-67789730D01*
X225035763Y-67218301D01*
X224035763Y-67218301D01*
X225035763Y-66742111D02*
X224035763Y-66742111D01*
X226434453Y-72080000D02*
X226482072Y-71937142D01*
X226529691Y-71889523D01*
X226624929Y-71841904D01*
X226767786Y-71841904D01*
X226863024Y-71889523D01*
X226910643Y-71937142D01*
X226958262Y-72032380D01*
X226958262Y-72413333D01*
X225958262Y-72413333D01*
X225958262Y-72080000D01*
X226005882Y-71984761D01*
X226053501Y-71937142D01*
X226148739Y-71889523D01*
X226243977Y-71889523D01*
X226339215Y-71937142D01*
X226386834Y-71984761D01*
X226434453Y-72080000D01*
X226434453Y-72413333D01*
X226958262Y-71413333D02*
X225958262Y-71413333D01*
X226672548Y-71080000D01*
X225958262Y-70746666D01*
X226958262Y-70746666D01*
X226434453Y-70270476D02*
X226434453Y-69937142D01*
X226958262Y-69794285D02*
X226958262Y-70270476D01*
X225958262Y-70270476D01*
X225958262Y-69794285D01*
X226053501Y-69413333D02*
X226005882Y-69365714D01*
X225958262Y-69270476D01*
X225958262Y-69032380D01*
X226005882Y-68937142D01*
X226053501Y-68889523D01*
X226148739Y-68841904D01*
X226243977Y-68841904D01*
X226386834Y-68889523D01*
X226958262Y-69460952D01*
X226958262Y-68841904D01*
X226386834Y-68270476D02*
X226339215Y-68365714D01*
X226291596Y-68413333D01*
X226196358Y-68460952D01*
X226148739Y-68460952D01*
X226053501Y-68413333D01*
X226005882Y-68365714D01*
X225958262Y-68270476D01*
X225958262Y-68080000D01*
X226005882Y-67984761D01*
X226053501Y-67937142D01*
X226148739Y-67889523D01*
X226196358Y-67889523D01*
X226291596Y-67937142D01*
X226339215Y-67984761D01*
X226386834Y-68080000D01*
X226386834Y-68270476D01*
X226434453Y-68365714D01*
X226482072Y-68413333D01*
X226577310Y-68460952D01*
X226767786Y-68460952D01*
X226863024Y-68413333D01*
X226910643Y-68365714D01*
X226958262Y-68270476D01*
X226958262Y-68080000D01*
X226910643Y-67984761D01*
X226863024Y-67937142D01*
X226767786Y-67889523D01*
X226577310Y-67889523D01*
X226482072Y-67937142D01*
X226434453Y-67984761D01*
X226386834Y-68080000D01*
X225958262Y-67270476D02*
X225958262Y-67175238D01*
X226005882Y-67080000D01*
X226053501Y-67032380D01*
X226148739Y-66984761D01*
X226339215Y-66937142D01*
X226577310Y-66937142D01*
X226767786Y-66984761D01*
X226863024Y-67032380D01*
X226910643Y-67080000D01*
X226958262Y-67175238D01*
X226958262Y-67270476D01*
X226910643Y-67365714D01*
X226863024Y-67413333D01*
X226767786Y-67460952D01*
X226577310Y-67508571D01*
X226339215Y-67508571D01*
X226148739Y-67460952D01*
X226053501Y-67413333D01*
X226005882Y-67365714D01*
X225958262Y-67270476D01*
X227053501Y-66746666D02*
X227053501Y-65984761D01*
X226958262Y-65746666D02*
X225958262Y-65746666D01*
X226863024Y-64699047D02*
X226910643Y-64746666D01*
X226958262Y-64889523D01*
X226958262Y-64984761D01*
X226910643Y-65127619D01*
X226815405Y-65222857D01*
X226720167Y-65270476D01*
X226529691Y-65318095D01*
X226386834Y-65318095D01*
X226196358Y-65270476D01*
X226101120Y-65222857D01*
X226005882Y-65127619D01*
X225958262Y-64984761D01*
X225958262Y-64889523D01*
X226005882Y-64746666D01*
X226053501Y-64699047D01*
X167923873Y-72722044D02*
X167971492Y-72579187D01*
X167971492Y-72341091D01*
X167923873Y-72245853D01*
X167876254Y-72198234D01*
X167781016Y-72150615D01*
X167685778Y-72150615D01*
X167590540Y-72198234D01*
X167542921Y-72245853D01*
X167495302Y-72341091D01*
X167447683Y-72531568D01*
X167400064Y-72626806D01*
X167352445Y-72674425D01*
X167257207Y-72722044D01*
X167161969Y-72722044D01*
X167066731Y-72674425D01*
X167019112Y-72626806D01*
X166971492Y-72531568D01*
X166971492Y-72293472D01*
X167019112Y-72150615D01*
X167971492Y-71579187D02*
X167923873Y-71674425D01*
X167876254Y-71722044D01*
X167781016Y-71769663D01*
X167495302Y-71769663D01*
X167400064Y-71722044D01*
X167352445Y-71674425D01*
X167304826Y-71579187D01*
X167304826Y-71436329D01*
X167352445Y-71341091D01*
X167400064Y-71293472D01*
X167495302Y-71245853D01*
X167781016Y-71245853D01*
X167876254Y-71293472D01*
X167923873Y-71341091D01*
X167971492Y-71436329D01*
X167971492Y-71579187D01*
X167971492Y-70674425D02*
X167923873Y-70769663D01*
X167828635Y-70817282D01*
X166971492Y-70817282D01*
X167971492Y-69864901D02*
X167447683Y-69864901D01*
X167352445Y-69912520D01*
X167304826Y-70007758D01*
X167304826Y-70198234D01*
X167352445Y-70293472D01*
X167923873Y-69864901D02*
X167971492Y-69960139D01*
X167971492Y-70198234D01*
X167923873Y-70293472D01*
X167828635Y-70341091D01*
X167733397Y-70341091D01*
X167638159Y-70293472D01*
X167590540Y-70198234D01*
X167590540Y-69960139D01*
X167542921Y-69864901D01*
X167971492Y-69388710D02*
X167304826Y-69388710D01*
X167495302Y-69388710D02*
X167400064Y-69341091D01*
X167352445Y-69293472D01*
X167304826Y-69198234D01*
X167304826Y-69102996D01*
X167971492Y-68007758D02*
X166971492Y-68007758D01*
X166971492Y-67626806D01*
X167019112Y-67531568D01*
X167066731Y-67483949D01*
X167161969Y-67436329D01*
X167304826Y-67436329D01*
X167400064Y-67483949D01*
X167447683Y-67531568D01*
X167495302Y-67626806D01*
X167495302Y-68007758D01*
X167971492Y-66579187D02*
X167447683Y-66579187D01*
X167352445Y-66626806D01*
X167304826Y-66722044D01*
X167304826Y-66912520D01*
X167352445Y-67007758D01*
X167923873Y-66579187D02*
X167971492Y-66674425D01*
X167971492Y-66912520D01*
X167923873Y-67007758D01*
X167828635Y-67055377D01*
X167733397Y-67055377D01*
X167638159Y-67007758D01*
X167590540Y-66912520D01*
X167590540Y-66674425D01*
X167542921Y-66579187D01*
X167304826Y-66102996D02*
X167971492Y-66102996D01*
X167400064Y-66102996D02*
X167352445Y-66055377D01*
X167304826Y-65960139D01*
X167304826Y-65817282D01*
X167352445Y-65722044D01*
X167447683Y-65674425D01*
X167971492Y-65674425D01*
X167923873Y-64817282D02*
X167971492Y-64912520D01*
X167971492Y-65102996D01*
X167923873Y-65198234D01*
X167828635Y-65245853D01*
X167447683Y-65245853D01*
X167352445Y-65198234D01*
X167304826Y-65102996D01*
X167304826Y-64912520D01*
X167352445Y-64817282D01*
X167447683Y-64769663D01*
X167542921Y-64769663D01*
X167638159Y-65245853D01*
X167971492Y-64198234D02*
X167923873Y-64293472D01*
X167828635Y-64341091D01*
X166971492Y-64341091D01*
X197052380Y-60880476D02*
X197052380Y-61356666D01*
X196052380Y-61356666D01*
X197052380Y-60547142D02*
X196052380Y-60547142D01*
X196052380Y-60309047D01*
X196100000Y-60166190D01*
X196195238Y-60070952D01*
X196290476Y-60023333D01*
X196480952Y-59975714D01*
X196623809Y-59975714D01*
X196814285Y-60023333D01*
X196909523Y-60070952D01*
X197004761Y-60166190D01*
X197052380Y-60309047D01*
X197052380Y-60547142D01*
X196052380Y-59356666D02*
X196052380Y-59166190D01*
X196100000Y-59070952D01*
X196195238Y-58975714D01*
X196385714Y-58928095D01*
X196719047Y-58928095D01*
X196909523Y-58975714D01*
X197004761Y-59070952D01*
X197052380Y-59166190D01*
X197052380Y-59356666D01*
X197004761Y-59451904D01*
X196909523Y-59547142D01*
X196719047Y-59594761D01*
X196385714Y-59594761D01*
X196195238Y-59547142D01*
X196100000Y-59451904D01*
X196052380Y-59356666D01*
X197052380Y-57975714D02*
X197052380Y-58547142D01*
X197052380Y-58261428D02*
X196052380Y-58261428D01*
X196195238Y-58356666D01*
X196290476Y-58451904D01*
X196338095Y-58547142D01*
X190035714Y-62332857D02*
X190035714Y-61951904D01*
X189702380Y-62190000D02*
X190559523Y-62190000D01*
X190654761Y-62142380D01*
X190702380Y-62047142D01*
X190702380Y-61951904D01*
X190702380Y-61475714D02*
X190654761Y-61570952D01*
X190607142Y-61618571D01*
X190511904Y-61666190D01*
X190226190Y-61666190D01*
X190130952Y-61618571D01*
X190083333Y-61570952D01*
X190035714Y-61475714D01*
X190035714Y-61332857D01*
X190083333Y-61237619D01*
X190130952Y-61190000D01*
X190226190Y-61142380D01*
X190511904Y-61142380D01*
X190607142Y-61190000D01*
X190654761Y-61237619D01*
X190702380Y-61332857D01*
X190702380Y-61475714D01*
X189702380Y-60047142D02*
X189702380Y-59428095D01*
X190083333Y-59761428D01*
X190083333Y-59618571D01*
X190130952Y-59523333D01*
X190178571Y-59475714D01*
X190273809Y-59428095D01*
X190511904Y-59428095D01*
X190607142Y-59475714D01*
X190654761Y-59523333D01*
X190702380Y-59618571D01*
X190702380Y-59904285D01*
X190654761Y-59999523D01*
X190607142Y-60047142D01*
X190607142Y-58999523D02*
X190654761Y-58951904D01*
X190702380Y-58999523D01*
X190654761Y-59047142D01*
X190607142Y-58999523D01*
X190702380Y-58999523D01*
X189702380Y-58618571D02*
X189702380Y-57999523D01*
X190083333Y-58332857D01*
X190083333Y-58190000D01*
X190130952Y-58094761D01*
X190178571Y-58047142D01*
X190273809Y-57999523D01*
X190511904Y-57999523D01*
X190607142Y-58047142D01*
X190654761Y-58094761D01*
X190702380Y-58190000D01*
X190702380Y-58475714D01*
X190654761Y-58570952D01*
X190607142Y-58618571D01*
X189702380Y-57713809D02*
X190702380Y-57380476D01*
X189702380Y-57047142D01*
X172876150Y-69844791D02*
X173019007Y-69892410D01*
X173257103Y-69892410D01*
X173352341Y-69844791D01*
X173399960Y-69797172D01*
X173447579Y-69701934D01*
X173447579Y-69606696D01*
X173399960Y-69511458D01*
X173352341Y-69463839D01*
X173257103Y-69416220D01*
X173066626Y-69368601D01*
X172971388Y-69320982D01*
X172923769Y-69273363D01*
X172876150Y-69178125D01*
X172876150Y-69082887D01*
X172923769Y-68987649D01*
X172971388Y-68940030D01*
X173066626Y-68892410D01*
X173304722Y-68892410D01*
X173447579Y-68940030D01*
X174304722Y-69225744D02*
X174304722Y-69892410D01*
X173876150Y-69225744D02*
X173876150Y-69749553D01*
X173923769Y-69844791D01*
X174019007Y-69892410D01*
X174161865Y-69892410D01*
X174257103Y-69844791D01*
X174304722Y-69797172D01*
X174780912Y-69225744D02*
X174780912Y-70225744D01*
X174780912Y-69273363D02*
X174876150Y-69225744D01*
X175066626Y-69225744D01*
X175161865Y-69273363D01*
X175209484Y-69320982D01*
X175257103Y-69416220D01*
X175257103Y-69701934D01*
X175209484Y-69797172D01*
X175161865Y-69844791D01*
X175066626Y-69892410D01*
X174876150Y-69892410D01*
X174780912Y-69844791D01*
X176066626Y-69844791D02*
X175971388Y-69892410D01*
X175780912Y-69892410D01*
X175685674Y-69844791D01*
X175638055Y-69749553D01*
X175638055Y-69368601D01*
X175685674Y-69273363D01*
X175780912Y-69225744D01*
X175971388Y-69225744D01*
X176066626Y-69273363D01*
X176114246Y-69368601D01*
X176114246Y-69463839D01*
X175638055Y-69559077D01*
X176542817Y-69892410D02*
X176542817Y-69225744D01*
X176542817Y-69416220D02*
X176590436Y-69320982D01*
X176638055Y-69273363D01*
X176733293Y-69225744D01*
X176828531Y-69225744D01*
X177733293Y-69797172D02*
X177685674Y-69844791D01*
X177542817Y-69892410D01*
X177447579Y-69892410D01*
X177304722Y-69844791D01*
X177209484Y-69749553D01*
X177161865Y-69654315D01*
X177114246Y-69463839D01*
X177114246Y-69320982D01*
X177161865Y-69130506D01*
X177209484Y-69035268D01*
X177304722Y-68940030D01*
X177447579Y-68892410D01*
X177542817Y-68892410D01*
X177685674Y-68940030D01*
X177733293Y-68987649D01*
X178590436Y-69892410D02*
X178590436Y-69368601D01*
X178542817Y-69273363D01*
X178447579Y-69225744D01*
X178257103Y-69225744D01*
X178161865Y-69273363D01*
X178590436Y-69844791D02*
X178495198Y-69892410D01*
X178257103Y-69892410D01*
X178161865Y-69844791D01*
X178114246Y-69749553D01*
X178114246Y-69654315D01*
X178161865Y-69559077D01*
X178257103Y-69511458D01*
X178495198Y-69511458D01*
X178590436Y-69463839D01*
X179066626Y-69225744D02*
X179066626Y-70225744D01*
X179066626Y-69273363D02*
X179161865Y-69225744D01*
X179352341Y-69225744D01*
X179447579Y-69273363D01*
X179495198Y-69320982D01*
X179542817Y-69416220D01*
X179542817Y-69701934D01*
X179495198Y-69797172D01*
X179447579Y-69844791D01*
X179352341Y-69892410D01*
X179161865Y-69892410D01*
X179066626Y-69844791D01*
X179923769Y-69844791D02*
X180019007Y-69892410D01*
X180209484Y-69892410D01*
X180304722Y-69844791D01*
X180352341Y-69749553D01*
X180352341Y-69701934D01*
X180304722Y-69606696D01*
X180209484Y-69559077D01*
X180066626Y-69559077D01*
X179971388Y-69511458D01*
X179923769Y-69416220D01*
X179923769Y-69368601D01*
X179971388Y-69273363D01*
X180066626Y-69225744D01*
X180209484Y-69225744D01*
X180304722Y-69273363D01*
X183807316Y-80424319D02*
X182807316Y-80424319D01*
X182807316Y-80043367D01*
X182854936Y-79948128D01*
X182902555Y-79900509D01*
X182997793Y-79852890D01*
X183140650Y-79852890D01*
X183235888Y-79900509D01*
X183283507Y-79948128D01*
X183331126Y-80043367D01*
X183331126Y-80424319D01*
X183807316Y-79424319D02*
X183140650Y-79424319D01*
X183331126Y-79424319D02*
X183235888Y-79376700D01*
X183188269Y-79329081D01*
X183140650Y-79233843D01*
X183140650Y-79138605D01*
X183807316Y-78662414D02*
X183759697Y-78757652D01*
X183712078Y-78805271D01*
X183616840Y-78852890D01*
X183331126Y-78852890D01*
X183235888Y-78805271D01*
X183188269Y-78757652D01*
X183140650Y-78662414D01*
X183140650Y-78519557D01*
X183188269Y-78424319D01*
X183235888Y-78376700D01*
X183331126Y-78329081D01*
X183616840Y-78329081D01*
X183712078Y-78376700D01*
X183759697Y-78424319D01*
X183807316Y-78519557D01*
X183807316Y-78662414D01*
X183140650Y-77471938D02*
X183950174Y-77471938D01*
X184045412Y-77519557D01*
X184093031Y-77567176D01*
X184140650Y-77662414D01*
X184140650Y-77805271D01*
X184093031Y-77900509D01*
X183759697Y-77471938D02*
X183807316Y-77567176D01*
X183807316Y-77757652D01*
X183759697Y-77852890D01*
X183712078Y-77900509D01*
X183616840Y-77948128D01*
X183331126Y-77948128D01*
X183235888Y-77900509D01*
X183188269Y-77852890D01*
X183140650Y-77757652D01*
X183140650Y-77567176D01*
X183188269Y-77471938D01*
X183807316Y-76995747D02*
X183140650Y-76995747D01*
X183331126Y-76995747D02*
X183235888Y-76948128D01*
X183188269Y-76900509D01*
X183140650Y-76805271D01*
X183140650Y-76710033D01*
X183807316Y-75948128D02*
X183283507Y-75948128D01*
X183188269Y-75995747D01*
X183140650Y-76090986D01*
X183140650Y-76281462D01*
X183188269Y-76376700D01*
X183759697Y-75948128D02*
X183807316Y-76043367D01*
X183807316Y-76281462D01*
X183759697Y-76376700D01*
X183664459Y-76424319D01*
X183569221Y-76424319D01*
X183473983Y-76376700D01*
X183426364Y-76281462D01*
X183426364Y-76043367D01*
X183378745Y-75948128D01*
X183807316Y-75471938D02*
X183140650Y-75471938D01*
X183235888Y-75471938D02*
X183188269Y-75424319D01*
X183140650Y-75329081D01*
X183140650Y-75186224D01*
X183188269Y-75090986D01*
X183283507Y-75043367D01*
X183807316Y-75043367D01*
X183283507Y-75043367D02*
X183188269Y-74995747D01*
X183140650Y-74900509D01*
X183140650Y-74757652D01*
X183188269Y-74662414D01*
X183283507Y-74614795D01*
X183807316Y-74614795D01*
X183807316Y-74138605D02*
X183140650Y-74138605D01*
X183235888Y-74138605D02*
X183188269Y-74090986D01*
X183140650Y-73995747D01*
X183140650Y-73852890D01*
X183188269Y-73757652D01*
X183283507Y-73710033D01*
X183807316Y-73710033D01*
X183283507Y-73710033D02*
X183188269Y-73662414D01*
X183140650Y-73567176D01*
X183140650Y-73424319D01*
X183188269Y-73329081D01*
X183283507Y-73281462D01*
X183807316Y-73281462D01*
X183807316Y-72805271D02*
X183140650Y-72805271D01*
X182807316Y-72805271D02*
X182854936Y-72852890D01*
X182902555Y-72805271D01*
X182854936Y-72757652D01*
X182807316Y-72805271D01*
X182902555Y-72805271D01*
X183140650Y-72329081D02*
X183807316Y-72329081D01*
X183235888Y-72329081D02*
X183188269Y-72281462D01*
X183140650Y-72186224D01*
X183140650Y-72043367D01*
X183188269Y-71948128D01*
X183283507Y-71900509D01*
X183807316Y-71900509D01*
X183140650Y-70995747D02*
X183950174Y-70995747D01*
X184045412Y-71043367D01*
X184093031Y-71090986D01*
X184140650Y-71186224D01*
X184140650Y-71329081D01*
X184093031Y-71424319D01*
X183759697Y-70995747D02*
X183807316Y-71090986D01*
X183807316Y-71281462D01*
X183759697Y-71376700D01*
X183712078Y-71424319D01*
X183616840Y-71471938D01*
X183331126Y-71471938D01*
X183235888Y-71424319D01*
X183188269Y-71376700D01*
X183140650Y-71281462D01*
X183140650Y-71090986D01*
X183188269Y-70995747D01*
X183759697Y-69329081D02*
X183807316Y-69424319D01*
X183807316Y-69614795D01*
X183759697Y-69710033D01*
X183712078Y-69757652D01*
X183616840Y-69805271D01*
X183331126Y-69805271D01*
X183235888Y-69757652D01*
X183188269Y-69710033D01*
X183140650Y-69614795D01*
X183140650Y-69424319D01*
X183188269Y-69329081D01*
X183807316Y-68757652D02*
X183759697Y-68852890D01*
X183712078Y-68900509D01*
X183616840Y-68948128D01*
X183331126Y-68948128D01*
X183235888Y-68900509D01*
X183188269Y-68852890D01*
X183140650Y-68757652D01*
X183140650Y-68614795D01*
X183188269Y-68519557D01*
X183235888Y-68471938D01*
X183331126Y-68424319D01*
X183616840Y-68424319D01*
X183712078Y-68471938D01*
X183759697Y-68519557D01*
X183807316Y-68614795D01*
X183807316Y-68757652D01*
X183140650Y-67995747D02*
X183807316Y-67995747D01*
X183235888Y-67995747D02*
X183188269Y-67948128D01*
X183140650Y-67852890D01*
X183140650Y-67710033D01*
X183188269Y-67614795D01*
X183283507Y-67567176D01*
X183807316Y-67567176D01*
X183140650Y-67090986D02*
X183807316Y-67090986D01*
X183235888Y-67090986D02*
X183188269Y-67043367D01*
X183140650Y-66948128D01*
X183140650Y-66805271D01*
X183188269Y-66710033D01*
X183283507Y-66662414D01*
X183807316Y-66662414D01*
X216919527Y-61976030D02*
X216348098Y-61976030D01*
X216633813Y-61976030D02*
X216633813Y-60976030D01*
X216538575Y-61118888D01*
X216443336Y-61214126D01*
X216348098Y-61261745D01*
X217538575Y-60976030D02*
X217633813Y-60976030D01*
X217729051Y-61023650D01*
X217776670Y-61071269D01*
X217824289Y-61166507D01*
X217871908Y-61356983D01*
X217871908Y-61595078D01*
X217824289Y-61785554D01*
X217776670Y-61880792D01*
X217729051Y-61928411D01*
X217633813Y-61976030D01*
X217538575Y-61976030D01*
X217443336Y-61928411D01*
X217395717Y-61880792D01*
X217348098Y-61785554D01*
X217300479Y-61595078D01*
X217300479Y-61356983D01*
X217348098Y-61166507D01*
X217395717Y-61071269D01*
X217443336Y-61023650D01*
X217538575Y-60976030D01*
X218729051Y-61309364D02*
X218729051Y-61976030D01*
X218300479Y-61309364D02*
X218300479Y-61833173D01*
X218348098Y-61928411D01*
X218443336Y-61976030D01*
X218586194Y-61976030D01*
X218681432Y-61928411D01*
X218729051Y-61880792D01*
X219538575Y-61452221D02*
X219205241Y-61452221D01*
X219205241Y-61976030D02*
X219205241Y-60976030D01*
X219681432Y-60976030D01*
X235325714Y-53732857D02*
X235992380Y-53732857D01*
X234944761Y-53970952D02*
X235659047Y-54209047D01*
X235659047Y-53590000D01*
X234992380Y-53304285D02*
X234992380Y-52637619D01*
X235992380Y-53066190D01*
X234992380Y-52066190D02*
X234992380Y-51970952D01*
X235040000Y-51875714D01*
X235087619Y-51828095D01*
X235182857Y-51780476D01*
X235373333Y-51732857D01*
X235611428Y-51732857D01*
X235801904Y-51780476D01*
X235897142Y-51828095D01*
X235944761Y-51875714D01*
X235992380Y-51970952D01*
X235992380Y-52066190D01*
X235944761Y-52161428D01*
X235897142Y-52209047D01*
X235801904Y-52256666D01*
X235611428Y-52304285D01*
X235373333Y-52304285D01*
X235182857Y-52256666D01*
X235087619Y-52209047D01*
X235040000Y-52161428D01*
X234992380Y-52066190D01*
X235325714Y-50875714D02*
X235992380Y-50875714D01*
X235325714Y-51304285D02*
X235849523Y-51304285D01*
X235944761Y-51256666D01*
X235992380Y-51161428D01*
X235992380Y-51018571D01*
X235944761Y-50923333D01*
X235897142Y-50875714D01*
X235468571Y-50066190D02*
X235468571Y-50399523D01*
X235992380Y-50399523D02*
X234992380Y-50399523D01*
X234992380Y-49923333D01*
X179228108Y-85853850D02*
X179275727Y-85710992D01*
X179323346Y-85663373D01*
X179418584Y-85615754D01*
X179561441Y-85615754D01*
X179656679Y-85663373D01*
X179704298Y-85710992D01*
X179751917Y-85806231D01*
X179751917Y-86187183D01*
X178751917Y-86187183D01*
X178751917Y-85853850D01*
X178799537Y-85758612D01*
X178847156Y-85710992D01*
X178942394Y-85663373D01*
X179037632Y-85663373D01*
X179132870Y-85710992D01*
X179180489Y-85758612D01*
X179228108Y-85853850D01*
X179228108Y-86187183D01*
X179751917Y-85044326D02*
X179704298Y-85139564D01*
X179656679Y-85187183D01*
X179561441Y-85234802D01*
X179275727Y-85234802D01*
X179180489Y-85187183D01*
X179132870Y-85139564D01*
X179085251Y-85044326D01*
X179085251Y-84901469D01*
X179132870Y-84806231D01*
X179180489Y-84758612D01*
X179275727Y-84710992D01*
X179561441Y-84710992D01*
X179656679Y-84758612D01*
X179704298Y-84806231D01*
X179751917Y-84901469D01*
X179751917Y-85044326D01*
X179751917Y-84139564D02*
X179704298Y-84234802D01*
X179656679Y-84282421D01*
X179561441Y-84330040D01*
X179275727Y-84330040D01*
X179180489Y-84282421D01*
X179132870Y-84234802D01*
X179085251Y-84139564D01*
X179085251Y-83996707D01*
X179132870Y-83901469D01*
X179180489Y-83853850D01*
X179275727Y-83806231D01*
X179561441Y-83806231D01*
X179656679Y-83853850D01*
X179704298Y-83901469D01*
X179751917Y-83996707D01*
X179751917Y-84139564D01*
X179704298Y-83425278D02*
X179751917Y-83330040D01*
X179751917Y-83139564D01*
X179704298Y-83044326D01*
X179609060Y-82996707D01*
X179561441Y-82996707D01*
X179466203Y-83044326D01*
X179418584Y-83139564D01*
X179418584Y-83282421D01*
X179370965Y-83377659D01*
X179275727Y-83425278D01*
X179228108Y-83425278D01*
X179132870Y-83377659D01*
X179085251Y-83282421D01*
X179085251Y-83139564D01*
X179132870Y-83044326D01*
X179085251Y-82710992D02*
X179085251Y-82330040D01*
X178751917Y-82568135D02*
X179609060Y-82568135D01*
X179704298Y-82520516D01*
X179751917Y-82425278D01*
X179751917Y-82330040D01*
X179847156Y-82234802D02*
X179847156Y-81472897D01*
X179704298Y-80806231D02*
X179751917Y-80901469D01*
X179751917Y-81091945D01*
X179704298Y-81187183D01*
X179656679Y-81234802D01*
X179561441Y-81282421D01*
X179275727Y-81282421D01*
X179180489Y-81234802D01*
X179132870Y-81187183D01*
X179085251Y-81091945D01*
X179085251Y-80901469D01*
X179132870Y-80806231D01*
X179751917Y-80234802D02*
X179704298Y-80330040D01*
X179656679Y-80377659D01*
X179561441Y-80425278D01*
X179275727Y-80425278D01*
X179180489Y-80377659D01*
X179132870Y-80330040D01*
X179085251Y-80234802D01*
X179085251Y-80091945D01*
X179132870Y-79996707D01*
X179180489Y-79949088D01*
X179275727Y-79901469D01*
X179561441Y-79901469D01*
X179656679Y-79949088D01*
X179704298Y-79996707D01*
X179751917Y-80091945D01*
X179751917Y-80234802D01*
X179085251Y-79472897D02*
X179751917Y-79472897D01*
X179180489Y-79472897D02*
X179132870Y-79425278D01*
X179085251Y-79330040D01*
X179085251Y-79187183D01*
X179132870Y-79091945D01*
X179228108Y-79044326D01*
X179751917Y-79044326D01*
X179085251Y-78663373D02*
X179751917Y-78425278D01*
X179085251Y-78187183D01*
X179751917Y-77282421D02*
X179751917Y-77853850D01*
X179751917Y-77568135D02*
X178751917Y-77568135D01*
X178894775Y-77663373D01*
X178990013Y-77758612D01*
X179037632Y-77853850D01*
X166946816Y-86514209D02*
X166946816Y-87085637D01*
X166946816Y-86799923D02*
X165946816Y-86799923D01*
X166089674Y-86895161D01*
X166184912Y-86990399D01*
X166232531Y-87085637D01*
X166851578Y-86085637D02*
X166899197Y-86038018D01*
X166946816Y-86085637D01*
X166899197Y-86133256D01*
X166851578Y-86085637D01*
X166946816Y-86085637D01*
X166946816Y-85561828D02*
X166946816Y-85371352D01*
X166899197Y-85276114D01*
X166851578Y-85228495D01*
X166708721Y-85133256D01*
X166518245Y-85085637D01*
X166137293Y-85085637D01*
X166042055Y-85133256D01*
X165994436Y-85180875D01*
X165946816Y-85276114D01*
X165946816Y-85466590D01*
X165994436Y-85561828D01*
X166042055Y-85609447D01*
X166137293Y-85657066D01*
X166375388Y-85657066D01*
X166470626Y-85609447D01*
X166518245Y-85561828D01*
X166565864Y-85466590D01*
X166565864Y-85276114D01*
X166518245Y-85180875D01*
X166470626Y-85133256D01*
X166375388Y-85085637D01*
X165946816Y-84799923D02*
X166946816Y-84466590D01*
X165946816Y-84133256D01*
X166565864Y-83799923D02*
X166565864Y-83038018D01*
X165946816Y-82085637D02*
X165946816Y-82561828D01*
X166423007Y-82609447D01*
X166375388Y-82561828D01*
X166327769Y-82466590D01*
X166327769Y-82228495D01*
X166375388Y-82133256D01*
X166423007Y-82085637D01*
X166518245Y-82038018D01*
X166756340Y-82038018D01*
X166851578Y-82085637D01*
X166899197Y-82133256D01*
X166946816Y-82228495D01*
X166946816Y-82466590D01*
X166899197Y-82561828D01*
X166851578Y-82609447D01*
X165946816Y-81752304D02*
X166946816Y-81418971D01*
X165946816Y-81085637D01*
X166280150Y-80133256D02*
X166280150Y-79752304D01*
X165946816Y-79990399D02*
X166803959Y-79990399D01*
X166899197Y-79942780D01*
X166946816Y-79847542D01*
X166946816Y-79752304D01*
X166946816Y-79276114D02*
X166899197Y-79371352D01*
X166851578Y-79418971D01*
X166756340Y-79466590D01*
X166470626Y-79466590D01*
X166375388Y-79418971D01*
X166327769Y-79371352D01*
X166280150Y-79276114D01*
X166280150Y-79133256D01*
X166327769Y-79038018D01*
X166375388Y-78990399D01*
X166470626Y-78942780D01*
X166756340Y-78942780D01*
X166851578Y-78990399D01*
X166899197Y-79038018D01*
X166946816Y-79133256D01*
X166946816Y-79276114D01*
X165946816Y-77276114D02*
X165946816Y-77752304D01*
X166423007Y-77799923D01*
X166375388Y-77752304D01*
X166327769Y-77657066D01*
X166327769Y-77418971D01*
X166375388Y-77323733D01*
X166423007Y-77276114D01*
X166518245Y-77228495D01*
X166756340Y-77228495D01*
X166851578Y-77276114D01*
X166899197Y-77323733D01*
X166946816Y-77418971D01*
X166946816Y-77657066D01*
X166899197Y-77752304D01*
X166851578Y-77799923D01*
X165946816Y-76942780D02*
X166946816Y-76609447D01*
X165946816Y-76276114D01*
X227105458Y-48192536D02*
X226105458Y-48192536D01*
X227105458Y-47621107D01*
X226105458Y-47621107D01*
X227105458Y-46573488D02*
X226629268Y-46906822D01*
X227105458Y-47144917D02*
X226105458Y-47144917D01*
X226105458Y-46763965D01*
X226153078Y-46668727D01*
X226200697Y-46621107D01*
X226295935Y-46573488D01*
X226438792Y-46573488D01*
X226534030Y-46621107D01*
X226581649Y-46668727D01*
X226629268Y-46763965D01*
X226629268Y-47144917D01*
X226581649Y-45811584D02*
X226581649Y-46144917D01*
X227105458Y-46144917D02*
X226105458Y-46144917D01*
X226105458Y-45668727D01*
X226200697Y-45335393D02*
X226153078Y-45287774D01*
X226105458Y-45192536D01*
X226105458Y-44954441D01*
X226153078Y-44859203D01*
X226200697Y-44811584D01*
X226295935Y-44763965D01*
X226391173Y-44763965D01*
X226534030Y-44811584D01*
X227105458Y-45383012D01*
X227105458Y-44763965D01*
X226438792Y-43906822D02*
X227105458Y-43906822D01*
X226057839Y-44144917D02*
X226772125Y-44383012D01*
X226772125Y-43763965D01*
X227105458Y-42906822D02*
X227105458Y-43383012D01*
X226105458Y-43383012D01*
X226105458Y-42383012D02*
X226105458Y-42287774D01*
X226153078Y-42192536D01*
X226200697Y-42144917D01*
X226295935Y-42097298D01*
X226486411Y-42049679D01*
X226724506Y-42049679D01*
X226914982Y-42097298D01*
X227010220Y-42144917D01*
X227057839Y-42192536D01*
X227105458Y-42287774D01*
X227105458Y-42383012D01*
X227057839Y-42478250D01*
X227010220Y-42525869D01*
X226914982Y-42573488D01*
X226724506Y-42621107D01*
X226486411Y-42621107D01*
X226295935Y-42573488D01*
X226200697Y-42525869D01*
X226153078Y-42478250D01*
X226105458Y-42383012D01*
X227105458Y-41097298D02*
X227105458Y-41668727D01*
X227105458Y-41383012D02*
X226105458Y-41383012D01*
X226248316Y-41478250D01*
X226343554Y-41573488D01*
X226391173Y-41668727D01*
G36*
X193122432Y-41487526D02*
G01*
X193124647Y-41525713D01*
X193126383Y-41583749D01*
X193127498Y-41657043D01*
X193127856Y-41733918D01*
X193127856Y-41994059D01*
X193081925Y-42039990D01*
X193050274Y-42068292D01*
X193022489Y-42079756D01*
X192984514Y-42079031D01*
X192969439Y-42077184D01*
X192922325Y-42071811D01*
X192883355Y-42068732D01*
X192873856Y-42068448D01*
X192841832Y-42070308D01*
X192796031Y-42074977D01*
X192778273Y-42077184D01*
X192734656Y-42080598D01*
X192705344Y-42073183D01*
X192676279Y-42050290D01*
X192665787Y-42039990D01*
X192619856Y-41994059D01*
X192619856Y-41507465D01*
X192656825Y-41490621D01*
X192688658Y-41478145D01*
X192707282Y-41473777D01*
X192712057Y-41487581D01*
X192716520Y-41526149D01*
X192720374Y-41585219D01*
X192723321Y-41660526D01*
X192724742Y-41724149D01*
X192728713Y-41974520D01*
X192763358Y-41979419D01*
X192794867Y-41975994D01*
X192810307Y-41964904D01*
X192814622Y-41944171D01*
X192818307Y-41900008D01*
X192821068Y-41838009D01*
X192822611Y-41763772D01*
X192822834Y-41725569D01*
X192823056Y-41505646D01*
X192868765Y-41489712D01*
X192901117Y-41478878D01*
X192918714Y-41473825D01*
X192919222Y-41473777D01*
X192920987Y-41487511D01*
X192922928Y-41525593D01*
X192924881Y-41583345D01*
X192926683Y-41656090D01*
X192927942Y-41724149D01*
X192931913Y-41974520D01*
X193018999Y-41974520D01*
X193022995Y-41746103D01*
X193026991Y-41517685D01*
X193069446Y-41495731D01*
X193100791Y-41480656D01*
X193119343Y-41473814D01*
X193119878Y-41473777D01*
X193122432Y-41487526D01*
G37*
D13*
X193122432Y-41487526D02*
X193124647Y-41525713D01*
X193126383Y-41583749D01*
X193127498Y-41657043D01*
X193127856Y-41733918D01*
X193127856Y-41994059D01*
X193081925Y-42039990D01*
X193050274Y-42068292D01*
X193022489Y-42079756D01*
X192984514Y-42079031D01*
X192969439Y-42077184D01*
X192922325Y-42071811D01*
X192883355Y-42068732D01*
X192873856Y-42068448D01*
X192841832Y-42070308D01*
X192796031Y-42074977D01*
X192778273Y-42077184D01*
X192734656Y-42080598D01*
X192705344Y-42073183D01*
X192676279Y-42050290D01*
X192665787Y-42039990D01*
X192619856Y-41994059D01*
X192619856Y-41507465D01*
X192656825Y-41490621D01*
X192688658Y-41478145D01*
X192707282Y-41473777D01*
X192712057Y-41487581D01*
X192716520Y-41526149D01*
X192720374Y-41585219D01*
X192723321Y-41660526D01*
X192724742Y-41724149D01*
X192728713Y-41974520D01*
X192763358Y-41979419D01*
X192794867Y-41975994D01*
X192810307Y-41964904D01*
X192814622Y-41944171D01*
X192818307Y-41900008D01*
X192821068Y-41838009D01*
X192822611Y-41763772D01*
X192822834Y-41725569D01*
X192823056Y-41505646D01*
X192868765Y-41489712D01*
X192901117Y-41478878D01*
X192918714Y-41473825D01*
X192919222Y-41473777D01*
X192920987Y-41487511D01*
X192922928Y-41525593D01*
X192924881Y-41583345D01*
X192926683Y-41656090D01*
X192927942Y-41724149D01*
X192931913Y-41974520D01*
X193018999Y-41974520D01*
X193022995Y-41746103D01*
X193026991Y-41517685D01*
X193069446Y-41495731D01*
X193100791Y-41480656D01*
X193119343Y-41473814D01*
X193119878Y-41473777D01*
X193122432Y-41487526D01*
G36*
X188079695Y-41637022D02*
G01*
X188084667Y-41600812D01*
X188093312Y-41574162D01*
X188106604Y-41550585D01*
X188109542Y-41546201D01*
X188158912Y-41487112D01*
X188212708Y-41452810D01*
X188278201Y-41439194D01*
X188300441Y-41438528D01*
X188383714Y-41450825D01*
X188451744Y-41486596D01*
X188501950Y-41544164D01*
X188519784Y-41581175D01*
X188533662Y-41636745D01*
X188540766Y-41706959D01*
X188541439Y-41783590D01*
X188536026Y-41858415D01*
X188524869Y-41923205D01*
X188508313Y-41969736D01*
X188503225Y-41977750D01*
X188442954Y-42037570D01*
X188371368Y-42073398D01*
X188293691Y-42083883D01*
X188215147Y-42067673D01*
X188193288Y-42057955D01*
X188150721Y-42028006D01*
X188113362Y-41988296D01*
X188109831Y-41983260D01*
X188095480Y-41958987D01*
X188085993Y-41933041D01*
X188080389Y-41898885D01*
X188077685Y-41849982D01*
X188076898Y-41779798D01*
X188076885Y-41764063D01*
X188076921Y-41759055D01*
X188222028Y-41759055D01*
X188222872Y-41825293D01*
X188226195Y-41869249D01*
X188233182Y-41897642D01*
X188245015Y-41917188D01*
X188251056Y-41923720D01*
X188285785Y-41948543D01*
X188319502Y-41947411D01*
X188353594Y-41925879D01*
X188373928Y-41902892D01*
X188385970Y-41869341D01*
X188392733Y-41816432D01*
X188393197Y-41810262D01*
X188394351Y-41714376D01*
X188382287Y-41643162D01*
X188357169Y-41597057D01*
X188319159Y-41576498D01*
X188305591Y-41575377D01*
X188269963Y-41581015D01*
X188245593Y-41600549D01*
X188230692Y-41637905D01*
X188223474Y-41697013D01*
X188222028Y-41759055D01*
X188076921Y-41759055D01*
X188077425Y-41689276D01*
X188079695Y-41637022D01*
G37*
X188079695Y-41637022D02*
X188084667Y-41600812D01*
X188093312Y-41574162D01*
X188106604Y-41550585D01*
X188109542Y-41546201D01*
X188158912Y-41487112D01*
X188212708Y-41452810D01*
X188278201Y-41439194D01*
X188300441Y-41438528D01*
X188383714Y-41450825D01*
X188451744Y-41486596D01*
X188501950Y-41544164D01*
X188519784Y-41581175D01*
X188533662Y-41636745D01*
X188540766Y-41706959D01*
X188541439Y-41783590D01*
X188536026Y-41858415D01*
X188524869Y-41923205D01*
X188508313Y-41969736D01*
X188503225Y-41977750D01*
X188442954Y-42037570D01*
X188371368Y-42073398D01*
X188293691Y-42083883D01*
X188215147Y-42067673D01*
X188193288Y-42057955D01*
X188150721Y-42028006D01*
X188113362Y-41988296D01*
X188109831Y-41983260D01*
X188095480Y-41958987D01*
X188085993Y-41933041D01*
X188080389Y-41898885D01*
X188077685Y-41849982D01*
X188076898Y-41779798D01*
X188076885Y-41764063D01*
X188076921Y-41759055D01*
X188222028Y-41759055D01*
X188222872Y-41825293D01*
X188226195Y-41869249D01*
X188233182Y-41897642D01*
X188245015Y-41917188D01*
X188251056Y-41923720D01*
X188285785Y-41948543D01*
X188319502Y-41947411D01*
X188353594Y-41925879D01*
X188373928Y-41902892D01*
X188385970Y-41869341D01*
X188392733Y-41816432D01*
X188393197Y-41810262D01*
X188394351Y-41714376D01*
X188382287Y-41643162D01*
X188357169Y-41597057D01*
X188319159Y-41576498D01*
X188305591Y-41575377D01*
X188269963Y-41581015D01*
X188245593Y-41600549D01*
X188230692Y-41637905D01*
X188223474Y-41697013D01*
X188222028Y-41759055D01*
X188076921Y-41759055D01*
X188077425Y-41689276D01*
X188079695Y-41637022D01*
G36*
X194210795Y-41624247D02*
G01*
X194224483Y-41575558D01*
X194246695Y-41539712D01*
X194279173Y-41511376D01*
X194293332Y-41502218D01*
X194357652Y-41478370D01*
X194428072Y-41476869D01*
X194496194Y-41495829D01*
X194553620Y-41533360D01*
X194581318Y-41566959D01*
X194603261Y-41627927D01*
X194605004Y-41676171D01*
X194601056Y-41740679D01*
X194452285Y-41805797D01*
X194379948Y-41839065D01*
X194332683Y-41865827D01*
X194308106Y-41889007D01*
X194303836Y-41911530D01*
X194317488Y-41936318D01*
X194332542Y-41952749D01*
X194376345Y-41979098D01*
X194423988Y-41980944D01*
X194467744Y-41960409D01*
X194499888Y-41919615D01*
X194505637Y-41905210D01*
X194533175Y-41860219D01*
X194564857Y-41841045D01*
X194608313Y-41824642D01*
X194608313Y-41886829D01*
X194604471Y-41929146D01*
X194589422Y-41964832D01*
X194557879Y-42005806D01*
X194553191Y-42011130D01*
X194518105Y-42047583D01*
X194487946Y-42067146D01*
X194450214Y-42076146D01*
X194418934Y-42079093D01*
X194362984Y-42079828D01*
X194323154Y-42070523D01*
X194298307Y-42056709D01*
X194259255Y-42026330D01*
X194232224Y-41993476D01*
X194215116Y-41952157D01*
X194205837Y-41896384D01*
X194202292Y-41820168D01*
X194202009Y-41781485D01*
X194202971Y-41735110D01*
X194290606Y-41735110D01*
X194291622Y-41759989D01*
X194294155Y-41764063D01*
X194310873Y-41758528D01*
X194346848Y-41743880D01*
X194394930Y-41723053D01*
X194404985Y-41718577D01*
X194465751Y-41687677D01*
X194499231Y-41660520D01*
X194506589Y-41635083D01*
X194488990Y-41609344D01*
X194474455Y-41597972D01*
X194422009Y-41575227D01*
X194372921Y-41578985D01*
X194331826Y-41606747D01*
X194303357Y-41656015D01*
X194294230Y-41695120D01*
X194290606Y-41735110D01*
X194202971Y-41735110D01*
X194203884Y-41691112D01*
X194210795Y-41624247D01*
G37*
X194210795Y-41624247D02*
X194224483Y-41575558D01*
X194246695Y-41539712D01*
X194279173Y-41511376D01*
X194293332Y-41502218D01*
X194357652Y-41478370D01*
X194428072Y-41476869D01*
X194496194Y-41495829D01*
X194553620Y-41533360D01*
X194581318Y-41566959D01*
X194603261Y-41627927D01*
X194605004Y-41676171D01*
X194601056Y-41740679D01*
X194452285Y-41805797D01*
X194379948Y-41839065D01*
X194332683Y-41865827D01*
X194308106Y-41889007D01*
X194303836Y-41911530D01*
X194317488Y-41936318D01*
X194332542Y-41952749D01*
X194376345Y-41979098D01*
X194423988Y-41980944D01*
X194467744Y-41960409D01*
X194499888Y-41919615D01*
X194505637Y-41905210D01*
X194533175Y-41860219D01*
X194564857Y-41841045D01*
X194608313Y-41824642D01*
X194608313Y-41886829D01*
X194604471Y-41929146D01*
X194589422Y-41964832D01*
X194557879Y-42005806D01*
X194553191Y-42011130D01*
X194518105Y-42047583D01*
X194487946Y-42067146D01*
X194450214Y-42076146D01*
X194418934Y-42079093D01*
X194362984Y-42079828D01*
X194323154Y-42070523D01*
X194298307Y-42056709D01*
X194259255Y-42026330D01*
X194232224Y-41993476D01*
X194215116Y-41952157D01*
X194205837Y-41896384D01*
X194202292Y-41820168D01*
X194202009Y-41781485D01*
X194202971Y-41735110D01*
X194290606Y-41735110D01*
X194291622Y-41759989D01*
X194294155Y-41764063D01*
X194310873Y-41758528D01*
X194346848Y-41743880D01*
X194394930Y-41723053D01*
X194404985Y-41718577D01*
X194465751Y-41687677D01*
X194499231Y-41660520D01*
X194506589Y-41635083D01*
X194488990Y-41609344D01*
X194474455Y-41597972D01*
X194422009Y-41575227D01*
X194372921Y-41578985D01*
X194331826Y-41606747D01*
X194303357Y-41656015D01*
X194294230Y-41695120D01*
X194290606Y-41735110D01*
X194202971Y-41735110D01*
X194203884Y-41691112D01*
X194210795Y-41624247D01*
G36*
X190058692Y-41456643D02*
G01*
X190105271Y-41483586D01*
X190137656Y-41510329D01*
X190161341Y-41538347D01*
X190177658Y-41572611D01*
X190187938Y-41618090D01*
X190193513Y-41679755D01*
X190195715Y-41762574D01*
X190195970Y-41822109D01*
X190195970Y-42041254D01*
X190134285Y-42068907D01*
X190072599Y-42096560D01*
X190065342Y-41856533D01*
X190062343Y-41766891D01*
X190059197Y-41701825D01*
X190055300Y-41656889D01*
X190050046Y-41627633D01*
X190042830Y-41609611D01*
X190033049Y-41598374D01*
X190029911Y-41595942D01*
X189982360Y-41576946D01*
X189934296Y-41584463D01*
X189905685Y-41604406D01*
X189894046Y-41618538D01*
X189885990Y-41637083D01*
X189880870Y-41665197D01*
X189878040Y-41708036D01*
X189876855Y-41770758D01*
X189876656Y-41836124D01*
X189876617Y-41918131D01*
X189875213Y-41976179D01*
X189870513Y-42015328D01*
X189860586Y-42040643D01*
X189843502Y-42057186D01*
X189817331Y-42070019D01*
X189782374Y-42083354D01*
X189744195Y-42097870D01*
X189748740Y-41840252D01*
X189750570Y-41747382D01*
X189752711Y-41678752D01*
X189755780Y-41629574D01*
X189760393Y-41595061D01*
X189767167Y-41570425D01*
X189776718Y-41550879D01*
X189788233Y-41533633D01*
X189843789Y-41478543D01*
X189911579Y-41446685D01*
X189985312Y-41439054D01*
X190058692Y-41456643D01*
G37*
X190058692Y-41456643D02*
X190105271Y-41483586D01*
X190137656Y-41510329D01*
X190161341Y-41538347D01*
X190177658Y-41572611D01*
X190187938Y-41618090D01*
X190193513Y-41679755D01*
X190195715Y-41762574D01*
X190195970Y-41822109D01*
X190195970Y-42041254D01*
X190134285Y-42068907D01*
X190072599Y-42096560D01*
X190065342Y-41856533D01*
X190062343Y-41766891D01*
X190059197Y-41701825D01*
X190055300Y-41656889D01*
X190050046Y-41627633D01*
X190042830Y-41609611D01*
X190033049Y-41598374D01*
X190029911Y-41595942D01*
X189982360Y-41576946D01*
X189934296Y-41584463D01*
X189905685Y-41604406D01*
X189894046Y-41618538D01*
X189885990Y-41637083D01*
X189880870Y-41665197D01*
X189878040Y-41708036D01*
X189876855Y-41770758D01*
X189876656Y-41836124D01*
X189876617Y-41918131D01*
X189875213Y-41976179D01*
X189870513Y-42015328D01*
X189860586Y-42040643D01*
X189843502Y-42057186D01*
X189817331Y-42070019D01*
X189782374Y-42083354D01*
X189744195Y-42097870D01*
X189748740Y-41840252D01*
X189750570Y-41747382D01*
X189752711Y-41678752D01*
X189755780Y-41629574D01*
X189760393Y-41595061D01*
X189767167Y-41570425D01*
X189776718Y-41550879D01*
X189788233Y-41533633D01*
X189843789Y-41478543D01*
X189911579Y-41446685D01*
X189985312Y-41439054D01*
X190058692Y-41456643D01*
G36*
X193995199Y-41487615D02*
G01*
X194012547Y-41495197D01*
X194053955Y-41527991D01*
X194089364Y-41575410D01*
X194111263Y-41626014D01*
X194114828Y-41650961D01*
X194102878Y-41685790D01*
X194076666Y-41704220D01*
X194048563Y-41715379D01*
X194035694Y-41717435D01*
X194029428Y-41702512D01*
X194017055Y-41670038D01*
X194011627Y-41655365D01*
X193981189Y-41604607D01*
X193937119Y-41579290D01*
X193880609Y-41580069D01*
X193876424Y-41581066D01*
X193846254Y-41595370D01*
X193824075Y-41623256D01*
X193808926Y-41668150D01*
X193799849Y-41733478D01*
X193795885Y-41822667D01*
X193795513Y-41870124D01*
X193795329Y-41944934D01*
X193794121Y-41995932D01*
X193790908Y-42028334D01*
X193784708Y-42047358D01*
X193774539Y-42058219D01*
X193759418Y-42066135D01*
X193758545Y-42066533D01*
X193729427Y-42078844D01*
X193715002Y-42083377D01*
X193712785Y-42069672D01*
X193710888Y-42031788D01*
X193709446Y-41974578D01*
X193708597Y-41902890D01*
X193708428Y-41850428D01*
X193709291Y-41748910D01*
X193712669Y-41671895D01*
X193719741Y-41614886D01*
X193731687Y-41573389D01*
X193749689Y-41542906D01*
X193774926Y-41518943D01*
X193799846Y-41502218D01*
X193859770Y-41479960D01*
X193929510Y-41474939D01*
X193995199Y-41487615D01*
G37*
X193995199Y-41487615D02*
X194012547Y-41495197D01*
X194053955Y-41527991D01*
X194089364Y-41575410D01*
X194111263Y-41626014D01*
X194114828Y-41650961D01*
X194102878Y-41685790D01*
X194076666Y-41704220D01*
X194048563Y-41715379D01*
X194035694Y-41717435D01*
X194029428Y-41702512D01*
X194017055Y-41670038D01*
X194011627Y-41655365D01*
X193981189Y-41604607D01*
X193937119Y-41579290D01*
X193880609Y-41580069D01*
X193876424Y-41581066D01*
X193846254Y-41595370D01*
X193824075Y-41623256D01*
X193808926Y-41668150D01*
X193799849Y-41733478D01*
X193795885Y-41822667D01*
X193795513Y-41870124D01*
X193795329Y-41944934D01*
X193794121Y-41995932D01*
X193790908Y-42028334D01*
X193784708Y-42047358D01*
X193774539Y-42058219D01*
X193759418Y-42066135D01*
X193758545Y-42066533D01*
X193729427Y-42078844D01*
X193715002Y-42083377D01*
X193712785Y-42069672D01*
X193710888Y-42031788D01*
X193709446Y-41974578D01*
X193708597Y-41902890D01*
X193708428Y-41850428D01*
X193709291Y-41748910D01*
X193712669Y-41671895D01*
X193719741Y-41614886D01*
X193731687Y-41573389D01*
X193749689Y-41542906D01*
X193774926Y-41518943D01*
X193799846Y-41502218D01*
X193859770Y-41479960D01*
X193929510Y-41474939D01*
X193995199Y-41487615D01*
G36*
X192127325Y-41618949D02*
G01*
X192149734Y-41567463D01*
X192184723Y-41527306D01*
X192211974Y-41506724D01*
X192261506Y-41484488D01*
X192318915Y-41474167D01*
X192372281Y-41476930D01*
X192402142Y-41488075D01*
X192413860Y-41491246D01*
X192421636Y-41479420D01*
X192427064Y-41447729D01*
X192431170Y-41399456D01*
X192435666Y-41345692D01*
X192441912Y-41313345D01*
X192453275Y-41294848D01*
X192473127Y-41282633D01*
X192485599Y-41277225D01*
X192532770Y-41257464D01*
X192532716Y-41594221D01*
X192532532Y-41702700D01*
X192531818Y-41786150D01*
X192530274Y-41848567D01*
X192527600Y-41893948D01*
X192523493Y-41926292D01*
X192517654Y-41949596D01*
X192509781Y-41967858D01*
X192503820Y-41978281D01*
X192454454Y-42034808D01*
X192391863Y-42070240D01*
X192322612Y-42082953D01*
X192253267Y-42071326D01*
X192211974Y-42050431D01*
X192168624Y-42014285D01*
X192139080Y-41970139D01*
X192121254Y-41912325D01*
X192113062Y-41835176D01*
X192111901Y-41778577D01*
X192112057Y-41774510D01*
X192213456Y-41774510D01*
X192214075Y-41839413D01*
X192216913Y-41882377D01*
X192223439Y-41910485D01*
X192235122Y-41930816D01*
X192249082Y-41946151D01*
X192295964Y-41975753D01*
X192346300Y-41978282D01*
X192393875Y-41953568D01*
X192397578Y-41950219D01*
X192413382Y-41932798D01*
X192423292Y-41912072D01*
X192428657Y-41881225D01*
X192430827Y-41833440D01*
X192431170Y-41780611D01*
X192430426Y-41714244D01*
X192427347Y-41669969D01*
X192420660Y-41640872D01*
X192409095Y-41620036D01*
X192399612Y-41608970D01*
X192355559Y-41581061D01*
X192304823Y-41577706D01*
X192256395Y-41599022D01*
X192247049Y-41606936D01*
X192231139Y-41624510D01*
X192221209Y-41645450D01*
X192215877Y-41676645D01*
X192213762Y-41724985D01*
X192213456Y-41774510D01*
X192112057Y-41774510D01*
X192115409Y-41687431D01*
X192127325Y-41618949D01*
G37*
X192127325Y-41618949D02*
X192149734Y-41567463D01*
X192184723Y-41527306D01*
X192211974Y-41506724D01*
X192261506Y-41484488D01*
X192318915Y-41474167D01*
X192372281Y-41476930D01*
X192402142Y-41488075D01*
X192413860Y-41491246D01*
X192421636Y-41479420D01*
X192427064Y-41447729D01*
X192431170Y-41399456D01*
X192435666Y-41345692D01*
X192441912Y-41313345D01*
X192453275Y-41294848D01*
X192473127Y-41282633D01*
X192485599Y-41277225D01*
X192532770Y-41257464D01*
X192532716Y-41594221D01*
X192532532Y-41702700D01*
X192531818Y-41786150D01*
X192530274Y-41848567D01*
X192527600Y-41893948D01*
X192523493Y-41926292D01*
X192517654Y-41949596D01*
X192509781Y-41967858D01*
X192503820Y-41978281D01*
X192454454Y-42034808D01*
X192391863Y-42070240D01*
X192322612Y-42082953D01*
X192253267Y-42071326D01*
X192211974Y-42050431D01*
X192168624Y-42014285D01*
X192139080Y-41970139D01*
X192121254Y-41912325D01*
X192113062Y-41835176D01*
X192111901Y-41778577D01*
X192112057Y-41774510D01*
X192213456Y-41774510D01*
X192214075Y-41839413D01*
X192216913Y-41882377D01*
X192223439Y-41910485D01*
X192235122Y-41930816D01*
X192249082Y-41946151D01*
X192295964Y-41975753D01*
X192346300Y-41978282D01*
X192393875Y-41953568D01*
X192397578Y-41950219D01*
X192413382Y-41932798D01*
X192423292Y-41912072D01*
X192428657Y-41881225D01*
X192430827Y-41833440D01*
X192431170Y-41780611D01*
X192430426Y-41714244D01*
X192427347Y-41669969D01*
X192420660Y-41640872D01*
X192409095Y-41620036D01*
X192399612Y-41608970D01*
X192355559Y-41581061D01*
X192304823Y-41577706D01*
X192256395Y-41599022D01*
X192247049Y-41606936D01*
X192231139Y-41624510D01*
X192221209Y-41645450D01*
X192215877Y-41676645D01*
X192213762Y-41724985D01*
X192213456Y-41774510D01*
X192112057Y-41774510D01*
X192115409Y-41687431D01*
X192127325Y-41618949D01*
G36*
X190718485Y-41380152D02*
G01*
X190722738Y-41439476D01*
X190727624Y-41474435D01*
X190734394Y-41489683D01*
X190744301Y-41489878D01*
X190747513Y-41488058D01*
X190790243Y-41474878D01*
X190845826Y-41475648D01*
X190902336Y-41489196D01*
X190937681Y-41506724D01*
X190973920Y-41534724D01*
X191000412Y-41566412D01*
X191018598Y-41606676D01*
X191029921Y-41660406D01*
X191035821Y-41732489D01*
X191037742Y-41827814D01*
X191037776Y-41846100D01*
X191037799Y-42051509D01*
X190992090Y-42067443D01*
X190959626Y-42078283D01*
X190941814Y-42083331D01*
X190941290Y-42083377D01*
X190939536Y-42069691D01*
X190938043Y-42031939D01*
X190936925Y-41975087D01*
X190936296Y-41904097D01*
X190936199Y-41860936D01*
X190935997Y-41775836D01*
X190934957Y-41714844D01*
X190932430Y-41673040D01*
X190927763Y-41645505D01*
X190920306Y-41627319D01*
X190909410Y-41613561D01*
X190902606Y-41606936D01*
X190855871Y-41580238D01*
X190804871Y-41578238D01*
X190758600Y-41600818D01*
X190750043Y-41608970D01*
X190737492Y-41624299D01*
X190728787Y-41642481D01*
X190723230Y-41668772D01*
X190720125Y-41708425D01*
X190718775Y-41766695D01*
X190718485Y-41847036D01*
X190718485Y-42051509D01*
X190672776Y-42067443D01*
X190640312Y-42078283D01*
X190622500Y-42083331D01*
X190621976Y-42083377D01*
X190620636Y-42069486D01*
X190619427Y-42030302D01*
X190618400Y-41969563D01*
X190617601Y-41891004D01*
X190617080Y-41798361D01*
X190616885Y-41695372D01*
X190616885Y-41298205D01*
X190664056Y-41278307D01*
X190711228Y-41258410D01*
X190718485Y-41380152D01*
G37*
X190718485Y-41380152D02*
X190722738Y-41439476D01*
X190727624Y-41474435D01*
X190734394Y-41489683D01*
X190744301Y-41489878D01*
X190747513Y-41488058D01*
X190790243Y-41474878D01*
X190845826Y-41475648D01*
X190902336Y-41489196D01*
X190937681Y-41506724D01*
X190973920Y-41534724D01*
X191000412Y-41566412D01*
X191018598Y-41606676D01*
X191029921Y-41660406D01*
X191035821Y-41732489D01*
X191037742Y-41827814D01*
X191037776Y-41846100D01*
X191037799Y-42051509D01*
X190992090Y-42067443D01*
X190959626Y-42078283D01*
X190941814Y-42083331D01*
X190941290Y-42083377D01*
X190939536Y-42069691D01*
X190938043Y-42031939D01*
X190936925Y-41975087D01*
X190936296Y-41904097D01*
X190936199Y-41860936D01*
X190935997Y-41775836D01*
X190934957Y-41714844D01*
X190932430Y-41673040D01*
X190927763Y-41645505D01*
X190920306Y-41627319D01*
X190909410Y-41613561D01*
X190902606Y-41606936D01*
X190855871Y-41580238D01*
X190804871Y-41578238D01*
X190758600Y-41600818D01*
X190750043Y-41608970D01*
X190737492Y-41624299D01*
X190728787Y-41642481D01*
X190723230Y-41668772D01*
X190720125Y-41708425D01*
X190718775Y-41766695D01*
X190718485Y-41847036D01*
X190718485Y-42051509D01*
X190672776Y-42067443D01*
X190640312Y-42078283D01*
X190622500Y-42083331D01*
X190621976Y-42083377D01*
X190620636Y-42069486D01*
X190619427Y-42030302D01*
X190618400Y-41969563D01*
X190617601Y-41891004D01*
X190617080Y-41798361D01*
X190616885Y-41695372D01*
X190616885Y-41298205D01*
X190664056Y-41278307D01*
X190711228Y-41258410D01*
X190718485Y-41380152D01*
G36*
X191382343Y-41479831D02*
G01*
X191439215Y-41500950D01*
X191439866Y-41501356D01*
X191475039Y-41527243D01*
X191501006Y-41557496D01*
X191519269Y-41596921D01*
X191531331Y-41650325D01*
X191538695Y-41722514D01*
X191542863Y-41818295D01*
X191543228Y-41831941D01*
X191548475Y-42037705D01*
X191504315Y-42060541D01*
X191472362Y-42075973D01*
X191453069Y-42083286D01*
X191452177Y-42083377D01*
X191448838Y-42069885D01*
X191446186Y-42033489D01*
X191444555Y-41980315D01*
X191444199Y-41937256D01*
X191444191Y-41867504D01*
X191441002Y-41823700D01*
X191429887Y-41802807D01*
X191406100Y-41801788D01*
X191364895Y-41817604D01*
X191302685Y-41846678D01*
X191256940Y-41870826D01*
X191233412Y-41891776D01*
X191226495Y-41914610D01*
X191226485Y-41915740D01*
X191237898Y-41955075D01*
X191271691Y-41976325D01*
X191323408Y-41979402D01*
X191360660Y-41978869D01*
X191380302Y-41989598D01*
X191392551Y-42015368D01*
X191399601Y-42048200D01*
X191389441Y-42066829D01*
X191385616Y-42069495D01*
X191349600Y-42080203D01*
X191299165Y-42081719D01*
X191247225Y-42074622D01*
X191210421Y-42061651D01*
X191159537Y-42018448D01*
X191130613Y-41958309D01*
X191124885Y-41911325D01*
X191129256Y-41868945D01*
X191145074Y-41834351D01*
X191176396Y-41803626D01*
X191227277Y-41772853D01*
X191301775Y-41738115D01*
X191306313Y-41736151D01*
X191373420Y-41705150D01*
X191414831Y-41679725D01*
X191432580Y-41656877D01*
X191428706Y-41633608D01*
X191405242Y-41606919D01*
X191398226Y-41600777D01*
X191351229Y-41576963D01*
X191302532Y-41577966D01*
X191260121Y-41601314D01*
X191231983Y-41644538D01*
X191229368Y-41653023D01*
X191203907Y-41694171D01*
X191171600Y-41713991D01*
X191124885Y-41733633D01*
X191124885Y-41682813D01*
X191139095Y-41608945D01*
X191181274Y-41541190D01*
X191203223Y-41518524D01*
X191253116Y-41489432D01*
X191316566Y-41476263D01*
X191382343Y-41479831D01*
G37*
X191382343Y-41479831D02*
X191439215Y-41500950D01*
X191439866Y-41501356D01*
X191475039Y-41527243D01*
X191501006Y-41557496D01*
X191519269Y-41596921D01*
X191531331Y-41650325D01*
X191538695Y-41722514D01*
X191542863Y-41818295D01*
X191543228Y-41831941D01*
X191548475Y-42037705D01*
X191504315Y-42060541D01*
X191472362Y-42075973D01*
X191453069Y-42083286D01*
X191452177Y-42083377D01*
X191448838Y-42069885D01*
X191446186Y-42033489D01*
X191444555Y-41980315D01*
X191444199Y-41937256D01*
X191444191Y-41867504D01*
X191441002Y-41823700D01*
X191429887Y-41802807D01*
X191406100Y-41801788D01*
X191364895Y-41817604D01*
X191302685Y-41846678D01*
X191256940Y-41870826D01*
X191233412Y-41891776D01*
X191226495Y-41914610D01*
X191226485Y-41915740D01*
X191237898Y-41955075D01*
X191271691Y-41976325D01*
X191323408Y-41979402D01*
X191360660Y-41978869D01*
X191380302Y-41989598D01*
X191392551Y-42015368D01*
X191399601Y-42048200D01*
X191389441Y-42066829D01*
X191385616Y-42069495D01*
X191349600Y-42080203D01*
X191299165Y-42081719D01*
X191247225Y-42074622D01*
X191210421Y-42061651D01*
X191159537Y-42018448D01*
X191130613Y-41958309D01*
X191124885Y-41911325D01*
X191129256Y-41868945D01*
X191145074Y-41834351D01*
X191176396Y-41803626D01*
X191227277Y-41772853D01*
X191301775Y-41738115D01*
X191306313Y-41736151D01*
X191373420Y-41705150D01*
X191414831Y-41679725D01*
X191432580Y-41656877D01*
X191428706Y-41633608D01*
X191405242Y-41606919D01*
X191398226Y-41600777D01*
X191351229Y-41576963D01*
X191302532Y-41577966D01*
X191260121Y-41601314D01*
X191231983Y-41644538D01*
X191229368Y-41653023D01*
X191203907Y-41694171D01*
X191171600Y-41713991D01*
X191124885Y-41733633D01*
X191124885Y-41682813D01*
X191139095Y-41608945D01*
X191181274Y-41541190D01*
X191203223Y-41518524D01*
X191253116Y-41489432D01*
X191316566Y-41476263D01*
X191382343Y-41479831D01*
G36*
X191446509Y-36771211D02*
G01*
X191525053Y-36771641D01*
X191581897Y-36772805D01*
X191620704Y-36775070D01*
X191645137Y-36778803D01*
X191658861Y-36784369D01*
X191665539Y-36792136D01*
X191668835Y-36802468D01*
X191669155Y-36803806D01*
X191674161Y-36827942D01*
X191683428Y-36875564D01*
X191695991Y-36941604D01*
X191710886Y-37020991D01*
X191727150Y-37108659D01*
X191727718Y-37111738D01*
X191744009Y-37197652D01*
X191759251Y-37273559D01*
X191772460Y-37334908D01*
X191782653Y-37377145D01*
X191788847Y-37395718D01*
X191789142Y-37396047D01*
X191807387Y-37405116D01*
X191845004Y-37420230D01*
X191893870Y-37438125D01*
X191894142Y-37438221D01*
X191955692Y-37461356D01*
X192028256Y-37490828D01*
X192096656Y-37520460D01*
X192099893Y-37521925D01*
X192211301Y-37572489D01*
X192457998Y-37404023D01*
X192533676Y-37352666D01*
X192602230Y-37306752D01*
X192659687Y-37268893D01*
X192702075Y-37241700D01*
X192725424Y-37227784D01*
X192727641Y-37226752D01*
X192744609Y-37231347D01*
X192776300Y-37253518D01*
X192823951Y-37294310D01*
X192888797Y-37354768D01*
X192954996Y-37419090D01*
X193018813Y-37482475D01*
X193075928Y-37540314D01*
X193122904Y-37589038D01*
X193156302Y-37625073D01*
X193172684Y-37644847D01*
X193173293Y-37645865D01*
X193175104Y-37659435D01*
X193168282Y-37681596D01*
X193151139Y-37715341D01*
X193121992Y-37763663D01*
X193079154Y-37829555D01*
X193022047Y-37914380D01*
X192971365Y-37989040D01*
X192926060Y-38056003D01*
X192888749Y-38111379D01*
X192862051Y-38151283D01*
X192848584Y-38171825D01*
X192847736Y-38173219D01*
X192849380Y-38192901D01*
X192861844Y-38231156D01*
X192882647Y-38280752D01*
X192890061Y-38296591D01*
X192922413Y-38367153D01*
X192956927Y-38447216D01*
X192984964Y-38516492D01*
X193005167Y-38567908D01*
X193021214Y-38606982D01*
X193030487Y-38627404D01*
X193031640Y-38628977D01*
X193048695Y-38631584D01*
X193088897Y-38638726D01*
X193146901Y-38649386D01*
X193217362Y-38662548D01*
X193294934Y-38677196D01*
X193374271Y-38692312D01*
X193450030Y-38706881D01*
X193516863Y-38719885D01*
X193569427Y-38730308D01*
X193602375Y-38737133D01*
X193610456Y-38739062D01*
X193618804Y-38743825D01*
X193625105Y-38754581D01*
X193629644Y-38774961D01*
X193632703Y-38808597D01*
X193634566Y-38859118D01*
X193635517Y-38930155D01*
X193635839Y-39025339D01*
X193635856Y-39064355D01*
X193635856Y-39381662D01*
X193559656Y-39396702D01*
X193517262Y-39404858D01*
X193453999Y-39416762D01*
X193377561Y-39430979D01*
X193295642Y-39446073D01*
X193272999Y-39450218D01*
X193197405Y-39464916D01*
X193131552Y-39479368D01*
X193080965Y-39492238D01*
X193051173Y-39502185D01*
X193046211Y-39505150D01*
X193034025Y-39526146D01*
X193016552Y-39566830D01*
X192997176Y-39619185D01*
X192993333Y-39630463D01*
X192967938Y-39700386D01*
X192936416Y-39779281D01*
X192905568Y-39850129D01*
X192905416Y-39850458D01*
X192854046Y-39961596D01*
X193022998Y-40210116D01*
X193191951Y-40458635D01*
X192975028Y-40675921D01*
X192909418Y-40740589D01*
X192849578Y-40797596D01*
X192798866Y-40843896D01*
X192760645Y-40876447D01*
X192738274Y-40892206D01*
X192735065Y-40893206D01*
X192716225Y-40885332D01*
X192677779Y-40863441D01*
X192623929Y-40830130D01*
X192558875Y-40787994D01*
X192488539Y-40740806D01*
X192417154Y-40692673D01*
X192353507Y-40650791D01*
X192301640Y-40617734D01*
X192265594Y-40596081D01*
X192249466Y-40588406D01*
X192229788Y-40594900D01*
X192192474Y-40612013D01*
X192145220Y-40636189D01*
X192140211Y-40638876D01*
X192076576Y-40670790D01*
X192032940Y-40686442D01*
X192005801Y-40686608D01*
X191991656Y-40672067D01*
X191991574Y-40671863D01*
X191984504Y-40654642D01*
X191967641Y-40613762D01*
X191942294Y-40552388D01*
X191909770Y-40473682D01*
X191871377Y-40380810D01*
X191828421Y-40276935D01*
X191786821Y-40176365D01*
X191741103Y-40065379D01*
X191699125Y-39962566D01*
X191662147Y-39871078D01*
X191631426Y-39794064D01*
X191608221Y-39734678D01*
X191593789Y-39696072D01*
X191589342Y-39681663D01*
X191600495Y-39665135D01*
X191629668Y-39638793D01*
X191668570Y-39609750D01*
X191779356Y-39517902D01*
X191865950Y-39412622D01*
X191927315Y-39296129D01*
X191962414Y-39170639D01*
X191970207Y-39038370D01*
X191964542Y-38977320D01*
X191933677Y-38850658D01*
X191880519Y-38738804D01*
X191808366Y-38642864D01*
X191720516Y-38563939D01*
X191620264Y-38503133D01*
X191510909Y-38461550D01*
X191395746Y-38440291D01*
X191278074Y-38440462D01*
X191161189Y-38463164D01*
X191048388Y-38509501D01*
X190942968Y-38580576D01*
X190898967Y-38620774D01*
X190814578Y-38723992D01*
X190755821Y-38836788D01*
X190722303Y-38955873D01*
X190713634Y-39077958D01*
X190729422Y-39199756D01*
X190769277Y-39317979D01*
X190832806Y-39429338D01*
X190919620Y-39530547D01*
X191016628Y-39609750D01*
X191057036Y-39640025D01*
X191085581Y-39666082D01*
X191095856Y-39681688D01*
X191090476Y-39698706D01*
X191075174Y-39739363D01*
X191051211Y-39800505D01*
X191019843Y-39878982D01*
X190982331Y-39971643D01*
X190939932Y-40075335D01*
X190898262Y-40176389D01*
X190852289Y-40287470D01*
X190809706Y-40390404D01*
X190771820Y-40482028D01*
X190739939Y-40559179D01*
X190715370Y-40618694D01*
X190699419Y-40657407D01*
X190693509Y-40671863D01*
X190679547Y-40686548D01*
X190652539Y-40686505D01*
X190609012Y-40670962D01*
X190545489Y-40639147D01*
X190544987Y-40638876D01*
X190497159Y-40614186D01*
X190458496Y-40596201D01*
X190436694Y-40588477D01*
X190435732Y-40588406D01*
X190419320Y-40596241D01*
X190383086Y-40618028D01*
X190331073Y-40651191D01*
X190267324Y-40693154D01*
X190196659Y-40740806D01*
X190124715Y-40789054D01*
X190059873Y-40831014D01*
X190006334Y-40864090D01*
X189968296Y-40885684D01*
X189950132Y-40893206D01*
X189933407Y-40883320D01*
X189899779Y-40855689D01*
X189852609Y-40813358D01*
X189795257Y-40759368D01*
X189731083Y-40696762D01*
X189710096Y-40675846D01*
X189493098Y-40458486D01*
X189658267Y-40216083D01*
X189708463Y-40141644D01*
X189752518Y-40074835D01*
X189787961Y-40019528D01*
X189812318Y-39979592D01*
X189823121Y-39958899D01*
X189823437Y-39957426D01*
X189817742Y-39937921D01*
X189802425Y-39898685D01*
X189780136Y-39846293D01*
X189764492Y-39811218D01*
X189735240Y-39744064D01*
X189707693Y-39676221D01*
X189686336Y-39618897D01*
X189680534Y-39601435D01*
X189664051Y-39554801D01*
X189647939Y-39518768D01*
X189639089Y-39505150D01*
X189619559Y-39496815D01*
X189576933Y-39485000D01*
X189516744Y-39471044D01*
X189444521Y-39456285D01*
X189412199Y-39450218D01*
X189330121Y-39435136D01*
X189251394Y-39420532D01*
X189183708Y-39407843D01*
X189134759Y-39398505D01*
X189125542Y-39396702D01*
X189049342Y-39381662D01*
X189049342Y-39064355D01*
X189049513Y-38960017D01*
X189050215Y-38881076D01*
X189051733Y-38823901D01*
X189054348Y-38784862D01*
X189058345Y-38760328D01*
X189064008Y-38746668D01*
X189071619Y-38740252D01*
X189074742Y-38739062D01*
X189093577Y-38734843D01*
X189135187Y-38726425D01*
X189194229Y-38714824D01*
X189265356Y-38701058D01*
X189343224Y-38686143D01*
X189422486Y-38671095D01*
X189497797Y-38656932D01*
X189563812Y-38644669D01*
X189615186Y-38635324D01*
X189646574Y-38629913D01*
X189653558Y-38628977D01*
X189659884Y-38616459D01*
X189673889Y-38583109D01*
X189692954Y-38535240D01*
X189700233Y-38516492D01*
X189729595Y-38444058D01*
X189764170Y-38364033D01*
X189795136Y-38296591D01*
X189817922Y-38245022D01*
X189833081Y-38202648D01*
X189838141Y-38176697D01*
X189837335Y-38173219D01*
X189826640Y-38156799D01*
X189802219Y-38120280D01*
X189766694Y-38067550D01*
X189722686Y-38002498D01*
X189672816Y-37929014D01*
X189662955Y-37914508D01*
X189605091Y-37828567D01*
X189562555Y-37763124D01*
X189533653Y-37715167D01*
X189516689Y-37681683D01*
X189509966Y-37659658D01*
X189511789Y-37646080D01*
X189511835Y-37645994D01*
X189526185Y-37628160D01*
X189557922Y-37593680D01*
X189603609Y-37546131D01*
X189659803Y-37489085D01*
X189723067Y-37426118D01*
X189730201Y-37419090D01*
X189809929Y-37341883D01*
X189871456Y-37285193D01*
X189916020Y-37247973D01*
X189944856Y-37229178D01*
X189957557Y-37226752D01*
X189976093Y-37237334D01*
X190014560Y-37261779D01*
X190068985Y-37297475D01*
X190135397Y-37341810D01*
X190209824Y-37392174D01*
X190227200Y-37404023D01*
X190473896Y-37572489D01*
X190585305Y-37521925D01*
X190653056Y-37492458D01*
X190725782Y-37462822D01*
X190788302Y-37439193D01*
X190791056Y-37438221D01*
X190839959Y-37420320D01*
X190877656Y-37405183D01*
X190896024Y-37396073D01*
X190896055Y-37396047D01*
X190901884Y-37379580D01*
X190911791Y-37339082D01*
X190924794Y-37279105D01*
X190939908Y-37204203D01*
X190956151Y-37118927D01*
X190957480Y-37111738D01*
X190973774Y-37023877D01*
X190988732Y-36944123D01*
X191001390Y-36877544D01*
X191010785Y-36829210D01*
X191015953Y-36804188D01*
X191016043Y-36803806D01*
X191019188Y-36793162D01*
X191025303Y-36785125D01*
X191038052Y-36779330D01*
X191061099Y-36775410D01*
X191098108Y-36772998D01*
X191152743Y-36771728D01*
X191228666Y-36771234D01*
X191329543Y-36771149D01*
X191342599Y-36771149D01*
X191446509Y-36771211D01*
G37*
X191446509Y-36771211D02*
X191525053Y-36771641D01*
X191581897Y-36772805D01*
X191620704Y-36775070D01*
X191645137Y-36778803D01*
X191658861Y-36784369D01*
X191665539Y-36792136D01*
X191668835Y-36802468D01*
X191669155Y-36803806D01*
X191674161Y-36827942D01*
X191683428Y-36875564D01*
X191695991Y-36941604D01*
X191710886Y-37020991D01*
X191727150Y-37108659D01*
X191727718Y-37111738D01*
X191744009Y-37197652D01*
X191759251Y-37273559D01*
X191772460Y-37334908D01*
X191782653Y-37377145D01*
X191788847Y-37395718D01*
X191789142Y-37396047D01*
X191807387Y-37405116D01*
X191845004Y-37420230D01*
X191893870Y-37438125D01*
X191894142Y-37438221D01*
X191955692Y-37461356D01*
X192028256Y-37490828D01*
X192096656Y-37520460D01*
X192099893Y-37521925D01*
X192211301Y-37572489D01*
X192457998Y-37404023D01*
X192533676Y-37352666D01*
X192602230Y-37306752D01*
X192659687Y-37268893D01*
X192702075Y-37241700D01*
X192725424Y-37227784D01*
X192727641Y-37226752D01*
X192744609Y-37231347D01*
X192776300Y-37253518D01*
X192823951Y-37294310D01*
X192888797Y-37354768D01*
X192954996Y-37419090D01*
X193018813Y-37482475D01*
X193075928Y-37540314D01*
X193122904Y-37589038D01*
X193156302Y-37625073D01*
X193172684Y-37644847D01*
X193173293Y-37645865D01*
X193175104Y-37659435D01*
X193168282Y-37681596D01*
X193151139Y-37715341D01*
X193121992Y-37763663D01*
X193079154Y-37829555D01*
X193022047Y-37914380D01*
X192971365Y-37989040D01*
X192926060Y-38056003D01*
X192888749Y-38111379D01*
X192862051Y-38151283D01*
X192848584Y-38171825D01*
X192847736Y-38173219D01*
X192849380Y-38192901D01*
X192861844Y-38231156D01*
X192882647Y-38280752D01*
X192890061Y-38296591D01*
X192922413Y-38367153D01*
X192956927Y-38447216D01*
X192984964Y-38516492D01*
X193005167Y-38567908D01*
X193021214Y-38606982D01*
X193030487Y-38627404D01*
X193031640Y-38628977D01*
X193048695Y-38631584D01*
X193088897Y-38638726D01*
X193146901Y-38649386D01*
X193217362Y-38662548D01*
X193294934Y-38677196D01*
X193374271Y-38692312D01*
X193450030Y-38706881D01*
X193516863Y-38719885D01*
X193569427Y-38730308D01*
X193602375Y-38737133D01*
X193610456Y-38739062D01*
X193618804Y-38743825D01*
X193625105Y-38754581D01*
X193629644Y-38774961D01*
X193632703Y-38808597D01*
X193634566Y-38859118D01*
X193635517Y-38930155D01*
X193635839Y-39025339D01*
X193635856Y-39064355D01*
X193635856Y-39381662D01*
X193559656Y-39396702D01*
X193517262Y-39404858D01*
X193453999Y-39416762D01*
X193377561Y-39430979D01*
X193295642Y-39446073D01*
X193272999Y-39450218D01*
X193197405Y-39464916D01*
X193131552Y-39479368D01*
X193080965Y-39492238D01*
X193051173Y-39502185D01*
X193046211Y-39505150D01*
X193034025Y-39526146D01*
X193016552Y-39566830D01*
X192997176Y-39619185D01*
X192993333Y-39630463D01*
X192967938Y-39700386D01*
X192936416Y-39779281D01*
X192905568Y-39850129D01*
X192905416Y-39850458D01*
X192854046Y-39961596D01*
X193022998Y-40210116D01*
X193191951Y-40458635D01*
X192975028Y-40675921D01*
X192909418Y-40740589D01*
X192849578Y-40797596D01*
X192798866Y-40843896D01*
X192760645Y-40876447D01*
X192738274Y-40892206D01*
X192735065Y-40893206D01*
X192716225Y-40885332D01*
X192677779Y-40863441D01*
X192623929Y-40830130D01*
X192558875Y-40787994D01*
X192488539Y-40740806D01*
X192417154Y-40692673D01*
X192353507Y-40650791D01*
X192301640Y-40617734D01*
X192265594Y-40596081D01*
X192249466Y-40588406D01*
X192229788Y-40594900D01*
X192192474Y-40612013D01*
X192145220Y-40636189D01*
X192140211Y-40638876D01*
X192076576Y-40670790D01*
X192032940Y-40686442D01*
X192005801Y-40686608D01*
X191991656Y-40672067D01*
X191991574Y-40671863D01*
X191984504Y-40654642D01*
X191967641Y-40613762D01*
X191942294Y-40552388D01*
X191909770Y-40473682D01*
X191871377Y-40380810D01*
X191828421Y-40276935D01*
X191786821Y-40176365D01*
X191741103Y-40065379D01*
X191699125Y-39962566D01*
X191662147Y-39871078D01*
X191631426Y-39794064D01*
X191608221Y-39734678D01*
X191593789Y-39696072D01*
X191589342Y-39681663D01*
X191600495Y-39665135D01*
X191629668Y-39638793D01*
X191668570Y-39609750D01*
X191779356Y-39517902D01*
X191865950Y-39412622D01*
X191927315Y-39296129D01*
X191962414Y-39170639D01*
X191970207Y-39038370D01*
X191964542Y-38977320D01*
X191933677Y-38850658D01*
X191880519Y-38738804D01*
X191808366Y-38642864D01*
X191720516Y-38563939D01*
X191620264Y-38503133D01*
X191510909Y-38461550D01*
X191395746Y-38440291D01*
X191278074Y-38440462D01*
X191161189Y-38463164D01*
X191048388Y-38509501D01*
X190942968Y-38580576D01*
X190898967Y-38620774D01*
X190814578Y-38723992D01*
X190755821Y-38836788D01*
X190722303Y-38955873D01*
X190713634Y-39077958D01*
X190729422Y-39199756D01*
X190769277Y-39317979D01*
X190832806Y-39429338D01*
X190919620Y-39530547D01*
X191016628Y-39609750D01*
X191057036Y-39640025D01*
X191085581Y-39666082D01*
X191095856Y-39681688D01*
X191090476Y-39698706D01*
X191075174Y-39739363D01*
X191051211Y-39800505D01*
X191019843Y-39878982D01*
X190982331Y-39971643D01*
X190939932Y-40075335D01*
X190898262Y-40176389D01*
X190852289Y-40287470D01*
X190809706Y-40390404D01*
X190771820Y-40482028D01*
X190739939Y-40559179D01*
X190715370Y-40618694D01*
X190699419Y-40657407D01*
X190693509Y-40671863D01*
X190679547Y-40686548D01*
X190652539Y-40686505D01*
X190609012Y-40670962D01*
X190545489Y-40639147D01*
X190544987Y-40638876D01*
X190497159Y-40614186D01*
X190458496Y-40596201D01*
X190436694Y-40588477D01*
X190435732Y-40588406D01*
X190419320Y-40596241D01*
X190383086Y-40618028D01*
X190331073Y-40651191D01*
X190267324Y-40693154D01*
X190196659Y-40740806D01*
X190124715Y-40789054D01*
X190059873Y-40831014D01*
X190006334Y-40864090D01*
X189968296Y-40885684D01*
X189950132Y-40893206D01*
X189933407Y-40883320D01*
X189899779Y-40855689D01*
X189852609Y-40813358D01*
X189795257Y-40759368D01*
X189731083Y-40696762D01*
X189710096Y-40675846D01*
X189493098Y-40458486D01*
X189658267Y-40216083D01*
X189708463Y-40141644D01*
X189752518Y-40074835D01*
X189787961Y-40019528D01*
X189812318Y-39979592D01*
X189823121Y-39958899D01*
X189823437Y-39957426D01*
X189817742Y-39937921D01*
X189802425Y-39898685D01*
X189780136Y-39846293D01*
X189764492Y-39811218D01*
X189735240Y-39744064D01*
X189707693Y-39676221D01*
X189686336Y-39618897D01*
X189680534Y-39601435D01*
X189664051Y-39554801D01*
X189647939Y-39518768D01*
X189639089Y-39505150D01*
X189619559Y-39496815D01*
X189576933Y-39485000D01*
X189516744Y-39471044D01*
X189444521Y-39456285D01*
X189412199Y-39450218D01*
X189330121Y-39435136D01*
X189251394Y-39420532D01*
X189183708Y-39407843D01*
X189134759Y-39398505D01*
X189125542Y-39396702D01*
X189049342Y-39381662D01*
X189049342Y-39064355D01*
X189049513Y-38960017D01*
X189050215Y-38881076D01*
X189051733Y-38823901D01*
X189054348Y-38784862D01*
X189058345Y-38760328D01*
X189064008Y-38746668D01*
X189071619Y-38740252D01*
X189074742Y-38739062D01*
X189093577Y-38734843D01*
X189135187Y-38726425D01*
X189194229Y-38714824D01*
X189265356Y-38701058D01*
X189343224Y-38686143D01*
X189422486Y-38671095D01*
X189497797Y-38656932D01*
X189563812Y-38644669D01*
X189615186Y-38635324D01*
X189646574Y-38629913D01*
X189653558Y-38628977D01*
X189659884Y-38616459D01*
X189673889Y-38583109D01*
X189692954Y-38535240D01*
X189700233Y-38516492D01*
X189729595Y-38444058D01*
X189764170Y-38364033D01*
X189795136Y-38296591D01*
X189817922Y-38245022D01*
X189833081Y-38202648D01*
X189838141Y-38176697D01*
X189837335Y-38173219D01*
X189826640Y-38156799D01*
X189802219Y-38120280D01*
X189766694Y-38067550D01*
X189722686Y-38002498D01*
X189672816Y-37929014D01*
X189662955Y-37914508D01*
X189605091Y-37828567D01*
X189562555Y-37763124D01*
X189533653Y-37715167D01*
X189516689Y-37681683D01*
X189509966Y-37659658D01*
X189511789Y-37646080D01*
X189511835Y-37645994D01*
X189526185Y-37628160D01*
X189557922Y-37593680D01*
X189603609Y-37546131D01*
X189659803Y-37489085D01*
X189723067Y-37426118D01*
X189730201Y-37419090D01*
X189809929Y-37341883D01*
X189871456Y-37285193D01*
X189916020Y-37247973D01*
X189944856Y-37229178D01*
X189957557Y-37226752D01*
X189976093Y-37237334D01*
X190014560Y-37261779D01*
X190068985Y-37297475D01*
X190135397Y-37341810D01*
X190209824Y-37392174D01*
X190227200Y-37404023D01*
X190473896Y-37572489D01*
X190585305Y-37521925D01*
X190653056Y-37492458D01*
X190725782Y-37462822D01*
X190788302Y-37439193D01*
X190791056Y-37438221D01*
X190839959Y-37420320D01*
X190877656Y-37405183D01*
X190896024Y-37396073D01*
X190896055Y-37396047D01*
X190901884Y-37379580D01*
X190911791Y-37339082D01*
X190924794Y-37279105D01*
X190939908Y-37204203D01*
X190956151Y-37118927D01*
X190957480Y-37111738D01*
X190973774Y-37023877D01*
X190988732Y-36944123D01*
X191001390Y-36877544D01*
X191010785Y-36829210D01*
X191015953Y-36804188D01*
X191016043Y-36803806D01*
X191019188Y-36793162D01*
X191025303Y-36785125D01*
X191038052Y-36779330D01*
X191061099Y-36775410D01*
X191098108Y-36772998D01*
X191152743Y-36771728D01*
X191228666Y-36771234D01*
X191329543Y-36771149D01*
X191342599Y-36771149D01*
X191446509Y-36771211D01*
G36*
X193487475Y-41485198D02*
G01*
X193529266Y-41504207D01*
X193562068Y-41527241D01*
X193586102Y-41552996D01*
X193602696Y-41586221D01*
X193613176Y-41631663D01*
X193618870Y-41694070D01*
X193621106Y-41778190D01*
X193621342Y-41833584D01*
X193621342Y-42049689D01*
X193584373Y-42066533D01*
X193555255Y-42078844D01*
X193540830Y-42083377D01*
X193538071Y-42069888D01*
X193535881Y-42033516D01*
X193534541Y-41980405D01*
X193534256Y-41938235D01*
X193533033Y-41877310D01*
X193529735Y-41828978D01*
X193524920Y-41799381D01*
X193521095Y-41793092D01*
X193495382Y-41799515D01*
X193455017Y-41815988D01*
X193408278Y-41838321D01*
X193363444Y-41862320D01*
X193328792Y-41883793D01*
X193312601Y-41898548D01*
X193312537Y-41898708D01*
X193313929Y-41926015D01*
X193326417Y-41952082D01*
X193348342Y-41973255D01*
X193380342Y-41980337D01*
X193407691Y-41979512D01*
X193446425Y-41978905D01*
X193466757Y-41987979D01*
X193478968Y-42011955D01*
X193480508Y-42016476D01*
X193485802Y-42050669D01*
X193471646Y-42071431D01*
X193434747Y-42081325D01*
X193394888Y-42083155D01*
X193323161Y-42069590D01*
X193286031Y-42050218D01*
X193240175Y-42004708D01*
X193215855Y-41948846D01*
X193213672Y-41889820D01*
X193234228Y-41834816D01*
X193265148Y-41800349D01*
X193296019Y-41781052D01*
X193344541Y-41756622D01*
X193401084Y-41731848D01*
X193410509Y-41728062D01*
X193472618Y-41700654D01*
X193508421Y-41676497D01*
X193519936Y-41652482D01*
X193509179Y-41625498D01*
X193490713Y-41604406D01*
X193447068Y-41578435D01*
X193399045Y-41576487D01*
X193355005Y-41596500D01*
X193323308Y-41636414D01*
X193319148Y-41646711D01*
X193294926Y-41684587D01*
X193259564Y-41712705D01*
X193214942Y-41735780D01*
X193214942Y-41670348D01*
X193217568Y-41630369D01*
X193228829Y-41598860D01*
X193253798Y-41565241D01*
X193277768Y-41539347D01*
X193315040Y-41502680D01*
X193344000Y-41482984D01*
X193375104Y-41475083D01*
X193410312Y-41473777D01*
X193487475Y-41485198D01*
G37*
X193487475Y-41485198D02*
X193529266Y-41504207D01*
X193562068Y-41527241D01*
X193586102Y-41552996D01*
X193602696Y-41586221D01*
X193613176Y-41631663D01*
X193618870Y-41694070D01*
X193621106Y-41778190D01*
X193621342Y-41833584D01*
X193621342Y-42049689D01*
X193584373Y-42066533D01*
X193555255Y-42078844D01*
X193540830Y-42083377D01*
X193538071Y-42069888D01*
X193535881Y-42033516D01*
X193534541Y-41980405D01*
X193534256Y-41938235D01*
X193533033Y-41877310D01*
X193529735Y-41828978D01*
X193524920Y-41799381D01*
X193521095Y-41793092D01*
X193495382Y-41799515D01*
X193455017Y-41815988D01*
X193408278Y-41838321D01*
X193363444Y-41862320D01*
X193328792Y-41883793D01*
X193312601Y-41898548D01*
X193312537Y-41898708D01*
X193313929Y-41926015D01*
X193326417Y-41952082D01*
X193348342Y-41973255D01*
X193380342Y-41980337D01*
X193407691Y-41979512D01*
X193446425Y-41978905D01*
X193466757Y-41987979D01*
X193478968Y-42011955D01*
X193480508Y-42016476D01*
X193485802Y-42050669D01*
X193471646Y-42071431D01*
X193434747Y-42081325D01*
X193394888Y-42083155D01*
X193323161Y-42069590D01*
X193286031Y-42050218D01*
X193240175Y-42004708D01*
X193215855Y-41948846D01*
X193213672Y-41889820D01*
X193234228Y-41834816D01*
X193265148Y-41800349D01*
X193296019Y-41781052D01*
X193344541Y-41756622D01*
X193401084Y-41731848D01*
X193410509Y-41728062D01*
X193472618Y-41700654D01*
X193508421Y-41676497D01*
X193519936Y-41652482D01*
X193509179Y-41625498D01*
X193490713Y-41604406D01*
X193447068Y-41578435D01*
X193399045Y-41576487D01*
X193355005Y-41596500D01*
X193323308Y-41636414D01*
X193319148Y-41646711D01*
X193294926Y-41684587D01*
X193259564Y-41712705D01*
X193214942Y-41735780D01*
X193214942Y-41670348D01*
X193217568Y-41630369D01*
X193228829Y-41598860D01*
X193253798Y-41565241D01*
X193277768Y-41539347D01*
X193315040Y-41502680D01*
X193344000Y-41482984D01*
X193375104Y-41475083D01*
X193410312Y-41473777D01*
X193487475Y-41485198D01*
G36*
X189214149Y-41565075D02*
G01*
X189248055Y-41516165D01*
X189309252Y-41466741D01*
X189376662Y-41442222D01*
X189445479Y-41440660D01*
X189510902Y-41460102D01*
X189568126Y-41498598D01*
X189612348Y-41554198D01*
X189638766Y-41624949D01*
X189644109Y-41677025D01*
X189643502Y-41698756D01*
X189638421Y-41715394D01*
X189624454Y-41730300D01*
X189597188Y-41746836D01*
X189552211Y-41768361D01*
X189485110Y-41798237D01*
X189484770Y-41798387D01*
X189423006Y-41826676D01*
X189372358Y-41851796D01*
X189338003Y-41871042D01*
X189325117Y-41881711D01*
X189325113Y-41881797D01*
X189336471Y-41905029D01*
X189363030Y-41930637D01*
X189393522Y-41949084D01*
X189408969Y-41952749D01*
X189451114Y-41940075D01*
X189487407Y-41908334D01*
X189505116Y-41873435D01*
X189522151Y-41847708D01*
X189555521Y-41818409D01*
X189594748Y-41793098D01*
X189629355Y-41779334D01*
X189636592Y-41778577D01*
X189644738Y-41791023D01*
X189645229Y-41822835D01*
X189639242Y-41865729D01*
X189627956Y-41911421D01*
X189612549Y-41951624D01*
X189611770Y-41953185D01*
X189565403Y-42017925D01*
X189505310Y-42061960D01*
X189437064Y-42083574D01*
X189366237Y-42081048D01*
X189298403Y-42052667D01*
X189295387Y-42050671D01*
X189242026Y-42002311D01*
X189206939Y-41939215D01*
X189187521Y-41856250D01*
X189184915Y-41832941D01*
X189180300Y-41722918D01*
X189185832Y-41671611D01*
X189325113Y-41671611D01*
X189326923Y-41703616D01*
X189336821Y-41712956D01*
X189361497Y-41705968D01*
X189400394Y-41689450D01*
X189443874Y-41668744D01*
X189444955Y-41668196D01*
X189481808Y-41648812D01*
X189496599Y-41635876D01*
X189492952Y-41622314D01*
X189477594Y-41604495D01*
X189438522Y-41578708D01*
X189396445Y-41576813D01*
X189358702Y-41595580D01*
X189332633Y-41631778D01*
X189325113Y-41671611D01*
X189185832Y-41671611D01*
X189189793Y-41634890D01*
X189214149Y-41565075D01*
G37*
X189214149Y-41565075D02*
X189248055Y-41516165D01*
X189309252Y-41466741D01*
X189376662Y-41442222D01*
X189445479Y-41440660D01*
X189510902Y-41460102D01*
X189568126Y-41498598D01*
X189612348Y-41554198D01*
X189638766Y-41624949D01*
X189644109Y-41677025D01*
X189643502Y-41698756D01*
X189638421Y-41715394D01*
X189624454Y-41730300D01*
X189597188Y-41746836D01*
X189552211Y-41768361D01*
X189485110Y-41798237D01*
X189484770Y-41798387D01*
X189423006Y-41826676D01*
X189372358Y-41851796D01*
X189338003Y-41871042D01*
X189325117Y-41881711D01*
X189325113Y-41881797D01*
X189336471Y-41905029D01*
X189363030Y-41930637D01*
X189393522Y-41949084D01*
X189408969Y-41952749D01*
X189451114Y-41940075D01*
X189487407Y-41908334D01*
X189505116Y-41873435D01*
X189522151Y-41847708D01*
X189555521Y-41818409D01*
X189594748Y-41793098D01*
X189629355Y-41779334D01*
X189636592Y-41778577D01*
X189644738Y-41791023D01*
X189645229Y-41822835D01*
X189639242Y-41865729D01*
X189627956Y-41911421D01*
X189612549Y-41951624D01*
X189611770Y-41953185D01*
X189565403Y-42017925D01*
X189505310Y-42061960D01*
X189437064Y-42083574D01*
X189366237Y-42081048D01*
X189298403Y-42052667D01*
X189295387Y-42050671D01*
X189242026Y-42002311D01*
X189206939Y-41939215D01*
X189187521Y-41856250D01*
X189184915Y-41832941D01*
X189180300Y-41722918D01*
X189185832Y-41671611D01*
X189325113Y-41671611D01*
X189326923Y-41703616D01*
X189336821Y-41712956D01*
X189361497Y-41705968D01*
X189400394Y-41689450D01*
X189443874Y-41668744D01*
X189444955Y-41668196D01*
X189481808Y-41648812D01*
X189496599Y-41635876D01*
X189492952Y-41622314D01*
X189477594Y-41604495D01*
X189438522Y-41578708D01*
X189396445Y-41576813D01*
X189358702Y-41595580D01*
X189332633Y-41631778D01*
X189325113Y-41671611D01*
X189185832Y-41671611D01*
X189189793Y-41634890D01*
X189214149Y-41565075D01*
G36*
X191872525Y-41478618D02*
G01*
X191938457Y-41502947D01*
X191991872Y-41545980D01*
X192012763Y-41576272D01*
X192035538Y-41631857D01*
X192035065Y-41672049D01*
X192011161Y-41699080D01*
X192002316Y-41703676D01*
X191964129Y-41718007D01*
X191944627Y-41714335D01*
X191938021Y-41690270D01*
X191937685Y-41676977D01*
X191925591Y-41628073D01*
X191894070Y-41593862D01*
X191850258Y-41577339D01*
X191801294Y-41581497D01*
X191761493Y-41603090D01*
X191748049Y-41615407D01*
X191738520Y-41630350D01*
X191732084Y-41652938D01*
X191727916Y-41688191D01*
X191725196Y-41741129D01*
X191723101Y-41816770D01*
X191722559Y-41840720D01*
X191720580Y-41922653D01*
X191718330Y-41980318D01*
X191714956Y-42018471D01*
X191709605Y-42041867D01*
X191701423Y-42055261D01*
X191689558Y-42063408D01*
X191681961Y-42067007D01*
X191649701Y-42079315D01*
X191630710Y-42083377D01*
X191624435Y-42069811D01*
X191620605Y-42028797D01*
X191619199Y-41959862D01*
X191620197Y-41862532D01*
X191620507Y-41847520D01*
X191622700Y-41758722D01*
X191625292Y-41693882D01*
X191628981Y-41647930D01*
X191634463Y-41615798D01*
X191642434Y-41592416D01*
X191653592Y-41572715D01*
X191659429Y-41564273D01*
X191692895Y-41526920D01*
X191730326Y-41497866D01*
X191734908Y-41495330D01*
X191802025Y-41475306D01*
X191872525Y-41478618D01*
G37*
X191872525Y-41478618D02*
X191938457Y-41502947D01*
X191991872Y-41545980D01*
X192012763Y-41576272D01*
X192035538Y-41631857D01*
X192035065Y-41672049D01*
X192011161Y-41699080D01*
X192002316Y-41703676D01*
X191964129Y-41718007D01*
X191944627Y-41714335D01*
X191938021Y-41690270D01*
X191937685Y-41676977D01*
X191925591Y-41628073D01*
X191894070Y-41593862D01*
X191850258Y-41577339D01*
X191801294Y-41581497D01*
X191761493Y-41603090D01*
X191748049Y-41615407D01*
X191738520Y-41630350D01*
X191732084Y-41652938D01*
X191727916Y-41688191D01*
X191725196Y-41741129D01*
X191723101Y-41816770D01*
X191722559Y-41840720D01*
X191720580Y-41922653D01*
X191718330Y-41980318D01*
X191714956Y-42018471D01*
X191709605Y-42041867D01*
X191701423Y-42055261D01*
X191689558Y-42063408D01*
X191681961Y-42067007D01*
X191649701Y-42079315D01*
X191630710Y-42083377D01*
X191624435Y-42069811D01*
X191620605Y-42028797D01*
X191619199Y-41959862D01*
X191620197Y-41862532D01*
X191620507Y-41847520D01*
X191622700Y-41758722D01*
X191625292Y-41693882D01*
X191628981Y-41647930D01*
X191634463Y-41615798D01*
X191642434Y-41592416D01*
X191653592Y-41572715D01*
X191659429Y-41564273D01*
X191692895Y-41526920D01*
X191730326Y-41497866D01*
X191734908Y-41495330D01*
X191802025Y-41475306D01*
X191872525Y-41478618D01*
G36*
X188636276Y-41679196D02*
G01*
X188639049Y-41631821D01*
X188642987Y-41598153D01*
X188648448Y-41574361D01*
X188655791Y-41556616D01*
X188665376Y-41541087D01*
X188669486Y-41535244D01*
X188724004Y-41480048D01*
X188792935Y-41448753D01*
X188872671Y-41440028D01*
X188942343Y-41448781D01*
X188997800Y-41476431D01*
X189046747Y-41527343D01*
X189060228Y-41546201D01*
X189074913Y-41570878D01*
X189084441Y-41597679D01*
X189089892Y-41633450D01*
X189092346Y-41685032D01*
X189092885Y-41753130D01*
X189090451Y-41846451D01*
X189081993Y-41916520D01*
X189065773Y-41968794D01*
X189040053Y-42008732D01*
X189003096Y-42041792D01*
X189000381Y-42043749D01*
X188963959Y-42063771D01*
X188920101Y-42073678D01*
X188864323Y-42076120D01*
X188773647Y-42076120D01*
X188773609Y-42164146D01*
X188772765Y-42213171D01*
X188767623Y-42241928D01*
X188754186Y-42259174D01*
X188728457Y-42273671D01*
X188722278Y-42276632D01*
X188693363Y-42290511D01*
X188670975Y-42299277D01*
X188654328Y-42300034D01*
X188642635Y-42289886D01*
X188635109Y-42265936D01*
X188630965Y-42225289D01*
X188629414Y-42165049D01*
X188629670Y-42082318D01*
X188630948Y-41974202D01*
X188631347Y-41941863D01*
X188632784Y-41830387D01*
X188634071Y-41757466D01*
X188773570Y-41757466D01*
X188774354Y-41819362D01*
X188777839Y-41859860D01*
X188785723Y-41886571D01*
X188799704Y-41907107D01*
X188809196Y-41917123D01*
X188848003Y-41946430D01*
X188882362Y-41948815D01*
X188917815Y-41924613D01*
X188918713Y-41923720D01*
X188933138Y-41905016D01*
X188941912Y-41879595D01*
X188946338Y-41840447D01*
X188947717Y-41780560D01*
X188947742Y-41767293D01*
X188944411Y-41684764D01*
X188933568Y-41627554D01*
X188913939Y-41592629D01*
X188884249Y-41576957D01*
X188867090Y-41575377D01*
X188826365Y-41582789D01*
X188798431Y-41607193D01*
X188781616Y-41651843D01*
X188774249Y-41719993D01*
X188773570Y-41757466D01*
X188634071Y-41757466D01*
X188634307Y-41744108D01*
X188636276Y-41679196D01*
G37*
X188636276Y-41679196D02*
X188639049Y-41631821D01*
X188642987Y-41598153D01*
X188648448Y-41574361D01*
X188655791Y-41556616D01*
X188665376Y-41541087D01*
X188669486Y-41535244D01*
X188724004Y-41480048D01*
X188792935Y-41448753D01*
X188872671Y-41440028D01*
X188942343Y-41448781D01*
X188997800Y-41476431D01*
X189046747Y-41527343D01*
X189060228Y-41546201D01*
X189074913Y-41570878D01*
X189084441Y-41597679D01*
X189089892Y-41633450D01*
X189092346Y-41685032D01*
X189092885Y-41753130D01*
X189090451Y-41846451D01*
X189081993Y-41916520D01*
X189065773Y-41968794D01*
X189040053Y-42008732D01*
X189003096Y-42041792D01*
X189000381Y-42043749D01*
X188963959Y-42063771D01*
X188920101Y-42073678D01*
X188864323Y-42076120D01*
X188773647Y-42076120D01*
X188773609Y-42164146D01*
X188772765Y-42213171D01*
X188767623Y-42241928D01*
X188754186Y-42259174D01*
X188728457Y-42273671D01*
X188722278Y-42276632D01*
X188693363Y-42290511D01*
X188670975Y-42299277D01*
X188654328Y-42300034D01*
X188642635Y-42289886D01*
X188635109Y-42265936D01*
X188630965Y-42225289D01*
X188629414Y-42165049D01*
X188629670Y-42082318D01*
X188630948Y-41974202D01*
X188631347Y-41941863D01*
X188632784Y-41830387D01*
X188634071Y-41757466D01*
X188773570Y-41757466D01*
X188774354Y-41819362D01*
X188777839Y-41859860D01*
X188785723Y-41886571D01*
X188799704Y-41907107D01*
X188809196Y-41917123D01*
X188848003Y-41946430D01*
X188882362Y-41948815D01*
X188917815Y-41924613D01*
X188918713Y-41923720D01*
X188933138Y-41905016D01*
X188941912Y-41879595D01*
X188946338Y-41840447D01*
X188947717Y-41780560D01*
X188947742Y-41767293D01*
X188944411Y-41684764D01*
X188933568Y-41627554D01*
X188913939Y-41592629D01*
X188884249Y-41576957D01*
X188867090Y-41575377D01*
X188826365Y-41582789D01*
X188798431Y-41607193D01*
X188781616Y-41651843D01*
X188774249Y-41719993D01*
X188773570Y-41757466D01*
X188634071Y-41757466D01*
X188634307Y-41744108D01*
X188636276Y-41679196D01*
D14*
X190208383Y-64709254D02*
X190208383Y-82489254D01*
X223228383Y-64709254D02*
X190208383Y-64709254D01*
X223228383Y-82489254D02*
X223228383Y-64709254D01*
X190208383Y-82489254D02*
X223228383Y-82489254D01*
D15*
X228020406Y-60913344D02*
X239120406Y-60913344D01*
X239120406Y-60913344D02*
X239120406Y-76153344D01*
X239120406Y-76153344D02*
X228020406Y-76153344D01*
X228020406Y-76153344D02*
X228020406Y-60913344D01*
X162807585Y-65055143D02*
X164017585Y-65055143D01*
X162807585Y-71775143D02*
X162807585Y-65055143D01*
X164827585Y-72275143D02*
X164827585Y-71275143D01*
X164827585Y-64555143D02*
X164827585Y-65555143D01*
X164017585Y-71775143D02*
X162807585Y-71775143D01*
X164827585Y-71275143D02*
X166327585Y-71275143D01*
X162307585Y-64555143D02*
X162307585Y-72275143D01*
X166327585Y-64555143D02*
X162307585Y-64555143D01*
X164017585Y-65055143D02*
X164017585Y-64555143D01*
X162307585Y-72275143D02*
X166327585Y-72275143D01*
X166327585Y-72275143D02*
X166327585Y-64555143D01*
X164127585Y-72575143D02*
X166627585Y-72575143D01*
X166627585Y-72575143D02*
X166627585Y-70075143D01*
X164827585Y-65555143D02*
X166327585Y-65555143D01*
X164017585Y-72275143D02*
X164017585Y-71775143D01*
X191190000Y-57890000D02*
X191190000Y-61490000D01*
X191201522Y-61528478D02*
G75*
G03*
X195640000Y-59690000I1838478J1838478D01*
G01*
X195640001Y-59690000D02*
G75*
G03*
X191201522Y-57851522I-2600001J0D01*
G01*
X172690000Y-70688615D02*
X172690000Y-74708615D01*
X172690000Y-72188615D02*
X173690000Y-72188615D01*
X173690000Y-72188615D02*
X173690000Y-70688615D01*
X180710000Y-70388615D02*
X178210000Y-70388615D01*
X179410000Y-72188615D02*
X179410000Y-70688615D01*
X172690000Y-74708615D02*
X180410000Y-74708615D01*
X180410000Y-70688615D02*
X172690000Y-70688615D01*
X180410000Y-72188615D02*
X179410000Y-72188615D01*
X173190000Y-74208615D02*
X173190000Y-72998615D01*
X179910000Y-74208615D02*
X173190000Y-74208615D01*
X173190000Y-72998615D02*
X172690000Y-72998615D01*
X180710000Y-72888615D02*
X180710000Y-70388615D01*
X180410000Y-74708615D02*
X180410000Y-70688615D01*
X179910000Y-72998615D02*
X179910000Y-74208615D01*
X180410000Y-72998615D02*
X179910000Y-72998615D01*
X186604613Y-65992340D02*
X187934613Y-65992340D01*
X185274613Y-81352340D02*
X187934613Y-81352340D01*
X187934613Y-65992340D02*
X187934613Y-67322340D01*
X187934613Y-68592340D02*
X187934613Y-81352340D01*
X185274613Y-68592340D02*
X185274613Y-81352340D01*
X185274613Y-68592340D02*
X187934613Y-68592340D01*
X215970956Y-57553650D02*
X220010956Y-57553650D01*
X220010956Y-57553650D02*
X220010956Y-58178650D01*
X215970956Y-60393650D02*
X220010956Y-60393650D01*
X220010956Y-59768650D02*
X220010956Y-60393650D01*
X215970956Y-57553650D02*
X215970956Y-58178650D01*
X215970956Y-59768650D02*
X215970956Y-60393650D01*
X234410000Y-52090000D02*
G75*
G03*
X234410000Y-52090000I-3270000J0D01*
G01*
X178159537Y-76438612D02*
X167577657Y-76434170D01*
X167577657Y-87094170D02*
X178159537Y-87098612D01*
X167577657Y-76434170D02*
X167577657Y-87094170D01*
X178159537Y-87098612D02*
X178159537Y-76448612D01*
X224790000Y-52869000D02*
X219456000Y-52869000D01*
X225120000Y-53445000D02*
X195920000Y-53445000D01*
X224536000Y-50075000D02*
X224536000Y-50075000D01*
X222250000Y-50075000D02*
X224536000Y-50075000D01*
X219456000Y-52869000D02*
X219456000Y-42201000D01*
X225120000Y-53445000D02*
X225120000Y-53445000D01*
X224790000Y-42201000D02*
X224790000Y-52869000D01*
X195920000Y-53445000D02*
X195920000Y-37995000D01*
X224790000Y-42201000D02*
X224790000Y-42201000D01*
X222250000Y-52361000D02*
X222250000Y-50075000D01*
X195920000Y-37995000D02*
X225120000Y-37995000D01*
X225120000Y-37995000D02*
X225120000Y-53445000D01*
X224790000Y-52869000D02*
X224790000Y-52869000D01*
X219456000Y-42201000D02*
X224790000Y-42201000D01*
%LPC*%
D16*
X163780082Y-59299944D03*
X236220000Y-83820000D03*
X236220000Y-40640000D03*
D17*
X191478383Y-79949254D03*
X191478383Y-77409254D03*
X191478383Y-74869254D03*
X201638383Y-65979254D03*
X191478383Y-69789254D03*
X191478383Y-67249254D03*
X205321383Y-68900254D03*
X202781383Y-68900254D03*
X194018383Y-65979254D03*
X196558383Y-65979254D03*
X199098383Y-65979254D03*
X191478383Y-72329254D03*
X204178383Y-65979254D03*
X206718383Y-65979254D03*
X209258383Y-65979254D03*
X211798383Y-65979254D03*
X214338383Y-65979254D03*
X216878383Y-65979254D03*
X219418383Y-65979254D03*
X221958383Y-65979254D03*
X221958383Y-81219254D03*
X219418383Y-81219254D03*
X216878383Y-81219254D03*
X214338383Y-81219254D03*
X211798383Y-81219254D03*
X209258383Y-81219254D03*
X206718383Y-81219254D03*
X204178383Y-81219254D03*
X201638383Y-81219254D03*
X199098383Y-81219254D03*
X196558383Y-81219254D03*
X194018383Y-81219254D03*
D18*
X229473563Y-62284871D03*
X229473563Y-64824871D03*
X229473563Y-67364871D03*
X229473563Y-69904871D03*
X229473563Y-72444871D03*
X229473563Y-74984871D03*
D19*
X164017585Y-69665143D03*
D20*
X164017585Y-67165143D03*
D21*
X193040000Y-58420000D03*
D22*
X193040000Y-59690000D03*
X193040000Y-60960000D03*
D23*
X177800000Y-72998615D03*
D24*
X175300000Y-72998615D03*
D25*
X186604613Y-67322340D03*
D26*
X186604613Y-69862340D03*
X186604613Y-72402340D03*
X186604613Y-74942340D03*
X186604613Y-77482340D03*
X186604613Y-80022340D03*
D27*
X216740956Y-58973650D03*
X219240956Y-58973650D03*
X231140000Y-53340000D03*
X231140000Y-50840000D03*
D28*
X176759537Y-79218612D03*
D29*
X176759537Y-84298612D03*
X176759537Y-81758612D03*
D25*
X223520000Y-51345000D03*
D30*
X220980000Y-51345000D03*
X223520000Y-48805000D03*
X220980000Y-48805000D03*
X223520000Y-46265000D03*
X220980000Y-46265000D03*
X223520000Y-43725000D03*
X220980000Y-43725000D03*
M02*
